<?xml version="1.0" encoding="utf-8"?>
<!-- Generator: Adobe Illustrator 16.0.0, SVG Export Plug-In . SVG Version: 6.00 Build 0)  -->
<!DOCTYPE svg PUBLIC "-//W3C//DTD SVG 1.1//EN" "http://www.w3.org/Graphics/SVG/1.1/DTD/svg11.dtd">
<svg version="1.1" id="Calque_1" xmlns="http://www.w3.org/2000/svg" xmlns:xlink="http://www.w3.org/1999/xlink" x="0px" y="0px"
	 width="598px" height="600px" viewBox="0 0 598 600" enable-background="new 0 0 598 600" xml:space="preserve">
<g>
	<path fill-rule="evenodd" clip-rule="evenodd" fill="#FAD334" d="M459.547,65.375c11.141,8.389,22.934,16.046,33.313,25.29
		c51.545,45.907,82.571,103.288,93.222,171.413c2.326,14.879,2.225,30.138,3.242,45.223c-9.369-8.885-18.621-17.9-28.171-26.59
		c-3.509-3.192-7.719-5.615-11.608-8.39c-1.273-1.253-2.374-2.776-3.846-3.718c-11.325-7.247-22.722-14.381-34.096-21.549
		c-11.678-5.971-23.355-11.94-35.033-17.911c-11.005-4.635-22.011-9.271-33.016-13.905c-10.636-3.732-21.271-7.468-31.906-11.202
		c-8.727-2.807-17.453-5.612-26.179-8.419c0.018-1.355,0.035-2.712,0.053-4.067c18.325,5.649,36.651,11.299,54.978,16.948
		c10.473,4.323,20.934,8.678,31.424,12.958c5.161,2.106,10.377,4.076,15.568,6.108c1.155,0.893,2.216,1.957,3.479,2.653
		c11.033,6.076,22.116,12.062,33.154,18.13c3.794,2.085,7.501,4.327,11.247,6.497c0.342-0.341,0.684-0.682,1.025-1.022
		c-0.645-1.803-1.211-3.637-1.943-5.402c-4.639-11.181-9.342-22.333-13.968-33.518c-8.997-21.756-17.931-43.538-26.94-65.289
		c-9.707-23.436-19.516-46.83-29.17-70.288C462.508,74.781,461.144,70.03,459.547,65.375z"/>
	<path fill-rule="evenodd" clip-rule="evenodd" fill="#CC0F13" d="M155.443,552.616c-1.321-0.746-2.643-1.492-3.964-2.238
		c-0.389-0.273-0.778-0.547-1.168-0.82c-0.607-0.385-1.215-0.77-1.823-1.154c-0.402-0.279-0.804-0.558-1.205-0.837
		c-0.596-0.376-1.192-0.752-1.788-1.129c-0.394-0.281-0.788-0.562-1.181-0.843l0.074,0.083c-0.875-3.769-3.612-4.918-7.081-5.042
		l0.068,0.063c-1.398-2.247-3.117-4.359-4.13-6.769c-2.416-5.746-4.498-11.632-6.714-17.462c17.734,0.675,35.467,1.374,53.203,2.018
		c19.232,0.697,38.466,1.323,57.698,2.016c17.735,0.639,35.465,1.449,53.204,1.955c17.439,0.496,34.888,0.656,52.33,1.06
		c9.951,0.23,19.898,0.667,29.85,0.979c2.228,0.069,4.459,0.007,6.689,0.005c6.955,9.251,13.974,18.455,20.814,27.789
		c1.533,2.092,2.442,4.64,3.639,6.978c-2.497,0.078-4.999,0.295-7.49,0.212c-18.744-0.625-37.484-1.328-56.227-1.969
		c-20.24-0.691-40.482-1.336-60.723-2.011c-19.742-0.658-39.481-1.379-59.225-1.978c-13.95-0.422-27.906-0.636-41.856-1.05
		c-4.628-0.138-9.244-0.813-13.869-0.854C161.53,551.59,158.485,552.259,155.443,552.616z"/>
	<path fill-rule="evenodd" clip-rule="evenodd" fill="#FBF10A" d="M15.728,280.493c1.303-17.711,4.283-35.104,9.814-52.017
		c5.649-4.327,11.298-8.655,16.948-12.982c32.671,25.005,65.341,50.01,98.012,75.014c-3.668,9.329-7.337,18.657-11.006,27.986
		c-0.6,0.961-1.417,1.849-1.765,2.894c-3.789,11.355-7.503,22.735-11.238,34.109c-1.975-1.145-4.098-2.094-5.9-3.465
		c-12.488-9.505-24.912-19.094-37.351-28.663c-15.06-11.587-30.07-23.239-45.202-34.731
		C24.129,285.668,19.842,283.194,15.728,280.493z"/>
	<path fill-rule="evenodd" clip-rule="evenodd" fill="#6DB32E" d="M511.604,247.055c11.374,7.168,22.771,14.302,34.096,21.549
		c1.472,0.941,2.572,2.465,3.846,3.719c-0.734,4.896,0.477,8.743,5.275,11.161c2.021,1.02,3.6,2.896,5.447,4.291
		c3.417,2.578,3.947,5.881,2.693,9.746c-4.137,12.76-8.338,25.499-12.348,38.3c-9.211,29.413-18.252,58.879-27.496,88.282
		c-8.996,28.611-18.196,57.158-27.19,85.771c-0.878,2.794-0.935,5.846-1.372,8.778c-11.689,9.009-23.371,18.027-35.079,27.012
		c-1.546,1.187-3.228,2.195-4.847,3.285c0.433-2.757,0.545-5.61,1.352-8.253c4.895-16.026,9.922-32.013,14.951-47.998
		c15.035-47.792,30.094-95.576,45.137-143.365c7.62-24.205,15.296-48.394,22.693-72.667c0.498-1.634-0.533-4.762-1.899-5.752
		c-5.226-3.787-10.878-6.984-16.372-10.401c-3.328-2.005-6.658-4.01-9.986-6.015C510.87,252.016,511.236,249.535,511.604,247.055z"
		/>
	<path fill-rule="evenodd" clip-rule="evenodd" fill="#BD0607" d="M155.443,552.616c3.042-0.357,6.087-1.026,9.126-0.999
		c4.625,0.041,9.241,0.717,13.869,0.854c13.95,0.414,27.906,0.628,41.856,1.05c19.743,0.599,39.483,1.319,59.225,1.978
		c20.241,0.675,40.483,1.319,60.723,2.011c18.742,0.641,37.482,1.344,56.227,1.969c2.491,0.083,4.993-0.134,7.49-0.212
		c-1.196-2.338-2.105-4.886-3.639-6.978c-6.841-9.334-13.859-18.538-20.814-27.789c-5.354-8.362-10.698-16.73-16.064-25.085
		c-4.281-6.665-8.59-13.313-12.887-19.969c-3.363-6.308-6.728-12.616-10.092-18.924c2.979-0.005,5.957-0.01,8.936-0.014
		c1.068,1.674,2.141,3.347,3.205,5.023c5.401,8.511,10.801,17.022,16.202,25.534c8.524,12.892,17.049,25.784,25.573,38.676
		c9.512,12.106,19.022,24.214,28.534,36.32c-17.224,8.792-35.53,14.597-54.248,19.034c-49.718,11.788-99.271,10.707-148.263-3.732
		C197.592,574.642,175.711,565.327,155.443,552.616z"/>
	<path fill-rule="evenodd" clip-rule="evenodd" fill="#5FA238" d="M494.555,518.651c0.438-2.933,0.494-5.984,1.372-8.778
		c8.994-28.612,18.194-57.159,27.19-85.771c9.244-29.403,18.285-58.869,27.496-88.282c4.01-12.801,8.211-25.54,12.348-38.3
		c1.254-3.865,0.724-7.168-2.693-9.746c-1.848-1.396-3.426-3.271-5.447-4.291c-4.799-2.418-6.01-6.265-5.275-11.161
		c3.89,2.773,8.1,5.196,11.608,8.389c9.55,8.689,18.802,17.705,28.172,26.59c-0.271,2.758-0.772,5.517-0.779,8.277
		c-0.126,49.439-14.663,94.78-39.649,136.932c-7.238,12.209-15.517,23.958-24.549,34.902
		C515.211,498.48,504.549,508.29,494.555,518.651z"/>
	<path fill-rule="evenodd" clip-rule="evenodd" fill="#FADE24" d="M459.547,65.375c1.597,4.655,2.961,9.406,4.83,13.95
		c9.654,23.458,19.463,46.853,29.17,70.288c9.01,21.751,17.943,43.533,26.94,65.289c4.626,11.185,9.329,22.337,13.968,33.518
		c0.732,1.766,1.299,3.6,1.943,5.402c-0.342,0.341-0.684,0.682-1.025,1.022c-3.746-2.17-7.453-4.412-11.247-6.497
		c-11.038-6.068-22.121-12.054-33.154-18.13c-1.264-0.696-2.324-1.761-3.479-2.654c-0.363-1.765-0.459-3.639-1.133-5.273
		c-6.715-16.266-13.557-32.479-20.301-48.731c-15.334-36.95-30.686-73.894-45.896-110.895c-2.566-6.244-4.465-12.763-6.672-19.154
		c1.046-0.435,2.092-0.869,3.138-1.304c12.947,6.883,25.898,13.758,38.834,20.662C456.869,63.618,458.188,64.535,459.547,65.375z"/>
	<path fill-rule="evenodd" clip-rule="evenodd" fill="#74BB28" d="M520.49,260.512c5.494,3.417,11.146,6.614,16.372,10.401
		c1.366,0.99,2.397,4.118,1.899,5.752c-7.397,24.273-15.073,48.462-22.693,72.667c-15.043,47.789-30.102,95.573-45.137,143.365
		c-5.029,15.985-10.057,31.972-14.951,47.998c-0.807,2.643-0.919,5.496-1.352,8.253c-7.811,4.324-15.621,8.647-23.434,12.966
		c-1.566-1.474-3.131-2.942-4.696-4.412c0.946-1.307,2.315-2.481,2.774-3.941c5.671-18.036,11.154-36.131,16.791-54.177
		c13.895-44.485,27.797-88.97,41.789-133.425c9.264-29.43,18.729-58.796,28.004-88.223
		C517.643,272.07,518.958,266.257,520.49,260.512z"/>
	<path fill-rule="evenodd" clip-rule="evenodd" fill="#88E044" d="M199.481,37.344c8.623-2.953,17.125-6.337,25.892-8.772
		c21.67-6.021,43.75-9.541,66.292-10.313c34.816-1.191,68.731,3.474,101.723,14.679c4.076,1.385,8.042,3.097,12.06,4.657
		c-0.903,0.307-1.787,0.705-2.714,0.904c-7.584,1.623-15.482,2.364-22.697,4.99c-13.059,4.751-25.704,10.633-38.539,16.002
		c-1.198,0.502-2.517,0.719-3.779,1.068c-9.571-0.687-19.135-1.507-28.716-2.028c-14.403-0.783-28.813-1.481-43.229-1.992
		c-21.736-0.77-43.48-1.347-65.22-2.006c-0.05-0.354-0.099-0.707-0.149-1.061C200.097,48.096,199.789,42.72,199.481,37.344z"/>
	<path fill-rule="evenodd" clip-rule="evenodd" fill="#119BE3" d="M27.435,222.486c0.836-3.187,1.469-6.444,2.54-9.551
		c16.841-48.846,44.598-90.369,83.585-124.334c1.613-1.404,3.289-2.737,4.935-4.104c0.555,1.547,1.637,3.122,1.553,4.633
		c-0.164,2.943-1.052,5.839-1.516,8.774c-2.894,18.28-5.745,36.567-8.629,54.849c-1.101,6.974-2.253,13.939-3.5,21.644
		c2.157-0.199,3.728-0.237,5.26-0.504c8.297-1.445,16.577-2.992,24.877-4.417c5.98-1.027,11.984-1.919,17.977-2.871
		c1.655-0.029,3.309-0.058,4.964-0.087c0.398,2.12,0.796,4.24,1.194,6.36c-20.335,2.512-40.677,4.989-60.332,11.174
		c-5.095,1.457-10.272,2.676-15.269,4.415c-14.44,5.026-28.505,10.925-40.819,20.212C38.468,213.044,33.03,217.87,27.435,222.486z"
		/>
	<path fill-rule="evenodd" clip-rule="evenodd" fill="#FBEB13" d="M15.728,280.493c4.114,2.701,8.401,5.175,12.312,8.145
		c15.132,11.492,30.142,23.145,45.202,34.731c12.438,9.569,24.863,19.158,37.351,28.663c1.802,1.371,3.925,2.32,5.9,3.465
		c-2.072,8.096-4.295,16.156-6.168,24.298c-1.499,6.516-2.57,13.129-3.831,19.698c-1.337-0.507-2.889-0.734-3.979-1.566
		c-9.708-7.41-19.311-14.96-28.991-22.407c-16.482-12.68-32.965-25.359-49.541-37.917c-2.268-1.719-5.069-2.734-7.623-4.075
		C13.873,315.876,13.834,298.196,15.728,280.493z"/>
	<path fill-rule="evenodd" clip-rule="evenodd" fill="#21B8F5" d="M154.515,166.605c-5.993,0.952-11.997,1.844-17.977,2.871
		c-8.301,1.425-16.581,2.972-24.877,4.417c-1.532,0.267-3.103,0.305-5.26,0.504c1.248-7.704,2.4-14.67,3.5-21.644
		c2.885-18.281,5.735-36.568,8.629-54.849c0.464-2.936,1.352-5.831,1.516-8.774c0.084-1.511-0.998-3.086-1.553-4.633
		c16.516-14.01,34.374-25.968,53.959-35.282c-2.068,15.2-3.909,30.435-6.258,45.591
		C162.481,118.768,158.426,142.675,154.515,166.605z"/>
	<path fill-rule="evenodd" clip-rule="evenodd" fill="#FAD334" d="M106.493,399.493c1.261-6.569,2.333-13.183,3.831-19.698
		c1.873-8.142,4.096-16.202,6.168-24.298c3.735-11.374,7.45-22.754,11.238-34.109c0.349-1.045,1.166-1.933,1.765-2.894
		c1.243,0.998,2.485,1.996,3.728,2.994c-3.882,12.34-7.765,24.679-11.646,37.019c-10.055,33.641-14.056,67.974-11.785,103.023
		c1.235,22.374,6.186,43.932,14.199,64.823c0.642,1.674,1.021,3.45,1.521,5.179c-4.327-3.293-8.883-6.327-12.946-9.919
		C73.714,487.271,45.864,445.59,29.4,396.367c-0.312-0.932-0.471-1.914-0.702-2.874c2.082,0.997,4.41,1.669,6.206,3.039
		c22.308,17.023,44.539,34.149,66.854,51.298C103.323,431.849,104.908,415.671,106.493,399.493z"/>
	<path fill-rule="evenodd" clip-rule="evenodd" fill="#FADE24" d="M106.493,399.493c-1.584,16.178-3.169,32.355-4.735,48.337
		c-22.315-17.148-44.545-34.274-66.854-51.298c-1.796-1.37-4.125-2.042-6.206-3.039c-6.443-19.509-10.948-39.417-12.34-59.966
		c2.554,1.341,5.355,2.356,7.623,4.075C40.557,350.16,57.04,362.84,73.522,375.52c9.681,7.447,19.283,14.997,28.991,22.407
		C103.604,398.759,105.155,398.986,106.493,399.493z"/>
	<path fill-rule="evenodd" clip-rule="evenodd" fill="#43CDFE" d="M154.515,166.605c3.911-23.931,7.966-47.838,11.68-71.799
		c2.349-15.156,4.189-30.391,6.258-45.591c4.289-2.023,8.578-4.046,12.868-6.066c0.376,2.109,0.753,4.218,1.129,6.326
		c3.027,16.996,5.512,34.113,9.246,50.953c3.273,14.761,7.949,29.21,12.002,43.798c-2.468,1.961-4.933,3.921-7.398,5.882
		c-2.979,5.146-5.957,10.294-8.935,15.44c-10.629,0.323-21.257,0.646-31.886,0.97C157.824,166.548,156.17,166.576,154.515,166.605z"
		/>
	<path fill-rule="evenodd" clip-rule="evenodd" fill="#21B8F5" d="M207.701,144.227c-4.056-14.588-8.732-29.037-12.005-43.798
		c-3.734-16.84-6.218-33.957-9.246-50.953c-0.376-2.108-0.753-4.217-1.129-6.326c1.886-0.839,3.772-1.676,5.66-2.514
		c0.421,3.951,0.841,7.903,1.263,11.856c0.743,5.335,1.485,10.67,2.227,16.005c1.285,6.659,2.569,13.318,3.854,19.978
		c1.309,5.671,2.617,11.343,3.926,17.015c3.248,12.336,6.496,24.673,9.744,37.009C210.563,143.074,209.132,143.65,207.701,144.227z"
		/>
	<path fill-rule="evenodd" clip-rule="evenodd" fill="#BD0607" d="M125.512,531.532c-0.5-1.729-0.879-3.505-1.521-5.179
		c-8.013-20.892-12.964-42.449-14.2-64.823c2.237-0.011,4.474-0.021,6.71-0.031c0.346,3.663,0.691,7.327,1.037,10.99
		c0.035,1.988-0.27,4.052,0.158,5.951c2.857,12.695,5.871,25.356,8.834,38.028c2.216,5.83,4.298,11.716,6.714,17.462
		c1.013,2.409,2.732,4.521,4.13,6.769c-3.69-2.742-7.38-5.484-11.069-8.226c-0.279-0.335-0.558-0.671-0.837-1.007L125.512,531.532z"
		/>
	<path fill-rule="evenodd" clip-rule="evenodd" fill="#6DB32E" d="M426.499,557.502c1.565,1.47,3.13,2.938,4.696,4.412
		c-2.758,1.385-5.519,2.765-8.281,4.146c-9.513-12.104-19.023-24.212-28.535-36.318c1.375-2.416,2.75-4.832,4.125-7.247
		c0.756,0.841,1.53,1.665,2.266,2.523c3.575,4.174,7.141,8.356,10.709,12.536c0.19,0.946,0.078,2.141,0.618,2.8
		C416.831,546.125,421.682,551.8,426.499,557.502z"/>
	<path fill-rule="evenodd" clip-rule="evenodd" fill="#FADE24" d="M27.435,222.486c5.595-4.616,11.033-9.442,16.819-13.807
		c12.313-9.287,26.378-15.186,40.819-20.212c4.997-1.739,10.174-2.958,15.269-4.414c0.378,1.464,0.756,2.928,1.134,4.392
		c-6.362,2.347-12.724,4.692-19.085,7.039c-1.119,0.229-2.364,0.216-3.336,0.725c-12.211,6.385-24.383,12.845-36.564,19.285
		c-5.649,4.327-11.299,8.655-16.948,12.982c0.394-1.644,0.787-3.286,1.18-4.93c0.273-0.366,0.546-0.732,0.819-1.098L27.435,222.486z
		"/>
	<path fill-rule="evenodd" clip-rule="evenodd" fill="#6DB32E" d="M337.719,60.56c1.263-0.35,2.581-0.566,3.779-1.068
		c12.835-5.369,25.48-11.251,38.539-16.002c7.215-2.626,15.113-3.367,22.697-4.99c0.927-0.199,1.811-0.598,2.714-0.904
		c2.645,1.055,5.289,2.109,7.934,3.163c-0.78,0.224-1.548,0.564-2.343,0.654c-25.989,2.917-49.51,12.634-71.717,25.981
		c-0.562,0.068-1.124,0.138-1.687,0.206c-1.419-1.048-2.837-2.095-4.255-3.142C334.826,63.158,336.272,61.858,337.719,60.56z"/>
	<path fill-rule="evenodd" clip-rule="evenodd" fill="#FAD334" d="M339.322,67.393c22.207-13.347,45.728-23.063,71.717-25.98
		c0.795-0.09,1.563-0.431,2.343-0.654c1.083,0.483,2.165,0.966,3.247,1.448c-1.046,0.435-2.092,0.869-3.138,1.304
		c-12.845,1.425-25.155,4.83-36.99,9.991c-3.062,1.192-6.204,2.217-9.172,3.61c-8.642,4.058-17.215,8.264-25.814,12.411
		C340.783,68.813,340.053,68.103,339.322,67.393z"/>
	<path fill-rule="evenodd" clip-rule="evenodd" fill="#6DB32E" d="M192.242,52.492c-0.42-3.953-0.84-7.905-1.262-11.856
		c2.833-1.097,5.667-2.194,8.5-3.292c0.308,5.376,0.616,10.752,0.925,16.129C197.686,53.146,194.964,52.819,192.242,52.492z"/>
	<path fill-rule="evenodd" clip-rule="evenodd" fill="#BD0607" d="M137.307,540.636c3.469,0.124,6.207,1.273,7.081,5.042
		C142.028,543.997,139.667,542.316,137.307,540.636z"/>
	<path fill-rule="evenodd" clip-rule="evenodd" fill="#119BE3" d="M27.541,222.449c-0.273,0.365-0.546,0.731-0.819,1.098
		C26.995,223.182,27.268,222.815,27.541,222.449z"/>
	<path fill-rule="evenodd" clip-rule="evenodd" fill="#FAD334" d="M125.469,531.467c0.279,0.336,0.559,0.672,0.837,1.007
		C126.027,532.138,125.748,531.803,125.469,531.467z"/>
	<path fill-rule="evenodd" clip-rule="evenodd" fill="#BD0607" d="M144.314,545.595c0.394,0.281,0.788,0.562,1.181,0.843
		C145.102,546.156,144.708,545.876,144.314,545.595z"/>
	<path fill-rule="evenodd" clip-rule="evenodd" fill="#BD0607" d="M147.283,547.566c0.401,0.279,0.803,0.558,1.205,0.837
		C148.086,548.124,147.685,547.846,147.283,547.566z"/>
	<path fill-rule="evenodd" clip-rule="evenodd" fill="#BD0607" d="M150.311,549.558c0.39,0.273,0.779,0.547,1.168,0.82
		C151.089,550.104,150.7,549.831,150.311,549.558z"/>
	<path fill-rule="evenodd" clip-rule="evenodd" fill="#FBF10A" d="M341.515,69.522c8.6-4.147,17.173-8.354,25.814-12.411
		c2.968-1.394,6.11-2.418,9.172-3.61c1.329,2.991,2.714,5.958,3.979,8.977c8.002,19.09,15.996,38.184,23.956,57.291
		c8.725,20.94,17.476,41.87,26.083,62.858c3.506,8.551,6.664,17.243,9.98,25.871c-18.326-5.649-36.652-11.299-54.978-16.949
		c-5.352-1.676-10.702-3.351-16.053-5.026c-0.15-1.31-0.012-2.737-0.495-3.91c-6.637-16.113-13.408-32.173-20.051-48.285
		c-7.523-18.25-14.951-36.541-22.42-54.814C331.508,76.183,336.511,72.853,341.515,69.522z"/>
	<path fill-rule="evenodd" clip-rule="evenodd" fill="#FBEB13" d="M440.5,208.498c-3.316-8.628-6.475-17.32-9.98-25.871
		c-8.607-20.988-17.358-41.918-26.083-62.858c-7.96-19.107-15.954-38.201-23.956-57.291c-1.266-3.019-2.65-5.985-3.979-8.977
		c11.835-5.161,24.146-8.566,36.99-9.991c2.207,6.392,4.105,12.91,6.672,19.154c15.21,37.001,30.562,73.944,45.896,110.895
		c6.744,16.253,13.586,32.466,20.301,48.731c0.674,1.635,0.77,3.509,1.133,5.273c-5.191-2.031-10.407-4.001-15.568-6.107
		C461.434,217.176,450.973,212.821,440.5,208.498z"/>
	<path fill-rule="evenodd" clip-rule="evenodd" fill="#FADE24" d="M369.469,186.522c5.352,1.676,10.702,3.351,16.054,5.026
		c-0.018,1.356-0.035,2.713-0.053,4.068c-2.987-0.668-5.976-1.335-8.964-2.002c-7.879-1.962-15.676-4.388-23.651-5.796
		c-24.608-4.346-49.269-8.417-73.947-12.348c-8.327-1.326-16.767-1.97-25.167-2.804c-2.215-0.22-3.584-0.754-2.821-3.315
		c11.22,0.746,22.442,1.492,33.665,2.237c12.638,1.969,25.275,3.938,37.912,5.907c0.824,0.099,1.656,0.149,2.469,0.303
		c11.844,2.238,23.686,4.491,35.527,6.74C363.484,185.2,366.477,185.861,369.469,186.522z"/>
	<path fill-rule="evenodd" clip-rule="evenodd" fill="#74BB28" d="M511.604,247.055c-0.367,2.48-0.733,4.961-1.1,7.442
		c-3.005-1.661-6.01-3.322-9.014-4.983c-6-2.998-11.999-5.996-17.998-8.994c-2.662-1.344-5.323-2.688-7.984-4.031
		c0.354-2.448,0.709-4.896,1.063-7.345C488.248,235.114,499.926,241.084,511.604,247.055z"/>
	<path fill-rule="evenodd" clip-rule="evenodd" fill="#7BC423" d="M476.57,229.144c-0.354,2.448-0.708,4.896-1.063,7.345
		c-3.006-1.32-6.014-2.641-9.02-3.961c-7.998-3.343-15.996-6.685-23.993-10.026c-0.018-0.31-0.035-0.619-0.054-0.929
		c0.371-2.111,0.742-4.224,1.113-6.335C454.56,219.873,465.565,224.509,476.57,229.144z"/>
	<path fill-rule="evenodd" clip-rule="evenodd" fill="#87D319" d="M376.506,193.615c2.988,0.667,5.977,1.334,8.964,2.002
		c8.726,2.807,17.452,5.612,26.179,8.422c-0.053,2.16-0.105,4.316-0.158,6.474c-3.665-1.002-7.33-2.004-10.995-3.005
		c-8.002-2.664-16.003-5.329-24.005-7.993C376.495,197.548,376.5,195.582,376.506,193.615z"/>
	<path fill-rule="evenodd" clip-rule="evenodd" fill="#82CC1E" d="M411.49,210.513c0.053-2.157,0.105-4.313,0.158-6.474
		c10.635,3.731,21.271,7.467,31.906,11.199c-0.371,2.11-0.742,4.223-1.112,6.334c-1.144-0.123-2.378-0.007-3.418-0.403
		C429.826,217.669,420.664,214.077,411.49,210.513z"/>
	<path fill-rule="evenodd" clip-rule="evenodd" fill="#DF1A22" d="M126.532,516.469c-2.963-12.672-5.977-25.333-8.834-38.028
		c-0.428-1.899-0.124-3.963-0.159-5.951c3.923,0.015,7.856-0.133,11.77,0.074c10.733,0.566,21.455,1.363,32.189,1.911
		c8.935,0.455,17.88,0.71,26.823,1.013c20.211,0.685,40.423,1.35,60.635,2.01c10.604,0.347,21.208,0.706,31.815,0.988
		c14.098,0.375,28.199,0.649,42.294,1.044c2.463,0.068,4.92,0.785,7.371,0.734c6.709-0.139,13.413-0.527,20.119-0.817
		c4.297,6.655,8.605,13.304,12.887,19.969c5.366,8.354,10.711,16.723,16.064,25.085c-2.23,0.002-4.462,0.064-6.689-0.005
		c-9.951-0.312-19.898-0.748-29.85-0.979c-17.442-0.403-34.891-0.563-52.33-1.06c-17.739-0.506-35.469-1.316-53.204-1.955
		c-19.232-0.692-38.466-1.318-57.698-2.016C161.999,517.843,144.266,517.144,126.532,516.469z"/>
	<path fill-rule="evenodd" clip-rule="evenodd" fill="#FBF92E" d="M42.489,215.494c12.182-6.44,24.354-12.9,36.564-19.285
		c0.973-0.509,2.218-0.495,3.337-0.725c10.034,7.542,20.125,15.007,30.081,22.647c9.569,7.342,18.915,14.976,28.521,22.269
		c6.012,4.565,12.323,8.737,18.5,13.086c-6.331,12.341-12.661,24.682-18.991,37.021C107.831,265.504,75.16,240.499,42.489,215.494z"
		/>
	<path fill-rule="evenodd" clip-rule="evenodd" fill="#FADE24" d="M140.501,290.508c6.331-12.34,12.661-24.681,18.991-37.021
		c0.49-1.016,0.905-2.077,1.482-3.041c6.179-10.312,12.383-20.608,18.581-30.91c1.055-1.477,2.093-2.965,3.167-4.427
		c5.574-7.591,11.158-15.176,16.739-22.762c0.642,0.295,1.285,0.59,1.927,0.88c0.417,0.693,0.833,1.391,1.25,2.088
		c-11.188,17.345-22.375,34.689-33.563,52.034c-6.868,12.918-14.103,25.658-20.495,38.808
		c-5.609,11.539-10.274,23.537-15.356,35.332c-1.243-0.998-2.485-1.996-3.728-2.994
		C133.164,309.165,136.833,299.837,140.501,290.508z"/>
	<path fill-rule="evenodd" clip-rule="evenodd" fill="#7BC423" d="M501.49,249.514c3.004,1.661,6.009,3.322,9.014,4.983
		c3.328,2.005,6.658,4.01,9.986,6.015c-1.532,5.745-2.848,11.559-4.633,17.225c-9.274,29.427-18.74,58.793-28.004,88.223
		c-13.992,44.455-27.895,88.939-41.789,133.425c-5.637,18.046-11.12,36.141-16.791,54.177c-0.459,1.46-1.828,2.635-2.774,3.941
		c-4.817-5.702-9.668-11.377-14.402-17.147c-0.54-0.659-0.428-1.854-0.618-2.8c0.889-2.146,1.953-4.236,2.637-6.444
		c5.153-16.624,10.15-33.297,15.351-49.907c9.513-30.387,19.12-60.743,28.708-91.106c12.436-39.381,24.941-78.739,37.29-118.146
		C497.777,264.566,499.496,256.997,501.49,249.514z"/>
	<path fill-rule="evenodd" clip-rule="evenodd" fill="#E82029" d="M350.555,479.446c-6.706,0.29-13.41,0.679-20.119,0.817
		c-2.451,0.051-4.908-0.666-7.371-0.734c-14.096-0.395-28.197-0.669-42.294-1.044c-10.606-0.282-21.21-0.642-31.815-0.988
		c-20.212-0.66-40.424-1.325-60.635-2.01c-8.942-0.303-17.888-0.558-26.823-1.013c-10.734-0.548-21.456-1.345-32.189-1.911
		c-3.914-0.207-7.846-0.06-11.77-0.074c-0.345-3.663-0.691-7.327-1.037-10.99c0.024-9.339,0.048-18.678,0.072-28.017
		c4.712,0.339,9.419,0.807,14.138,0.991c10.607,0.415,21.222,0.648,31.832,1.029c17.727,0.636,35.452,1.354,53.179,1.987
		c10.775,0.385,21.553,0.74,32.332,0.992c16.769,0.392,33.545,0.522,50.308,1.078c10.077,0.333,20.135,1.262,30.202,1.923
		c1.024,1.439,2.137,2.826,3.057,4.33c2.985,4.88,5.9,9.803,8.842,14.709C343.827,466.83,347.191,473.139,350.555,479.446z"/>
	<path fill-rule="evenodd" clip-rule="evenodd" fill="#CC0F13" d="M340.463,460.522c-2.941-4.906-5.856-9.829-8.842-14.709
		c-0.92-1.504-2.032-2.891-3.058-4.33c-4.765-9.264-9.662-18.462-14.263-27.807c-8.047-16.346-15.912-32.78-23.853-49.178
		c2.888,0.003,5.775,0.006,8.664,0.009c6.438,12.675,12.875,25.35,19.313,38.024c8.384,15.479,16.767,30.957,25.15,46.436
		c1.941,3.847,3.883,7.693,5.824,11.541C346.42,460.513,343.441,460.518,340.463,460.522z"/>
	<path fill-rule="evenodd" clip-rule="evenodd" fill="#7BC423" d="M349.398,460.509c-1.941-3.848-3.883-7.694-5.82-11.542
		c1.32-2.188,2.638-4.374,3.955-6.561c1.301,1.656,2.73,3.229,3.883,4.984c4.398,6.702,8.708,13.463,13.051,20.202
		c0.58,1.47,1.064,2.986,1.76,4.399c2.053,4.174,4.188,8.308,6.291,12.457c-1.237,2.205-2.475,4.411-3.712,6.617
		c-5.401-8.512-10.801-17.023-16.202-25.534C351.539,463.855,350.467,462.183,349.398,460.509z"/>
	<path fill-rule="evenodd" clip-rule="evenodd" fill="#74BB28" d="M368.806,491.066c1.237-2.206,2.475-4.412,3.712-6.617
		c3.325,4.353,6.65,8.704,9.977,13.056c4.665,6.674,9.33,13.348,13.996,20.021c0.671,1.657,1.343,3.313,2.014,4.97
		c-1.375,2.415-2.75,4.831-4.125,7.247C385.854,516.851,377.33,503.958,368.806,491.066z"/>
	<path fill-rule="evenodd" clip-rule="evenodd" fill="#9CEF21" d="M337.719,60.56c-1.446,1.299-2.893,2.599-4.336,3.898
		c-2.48,1.277-5.133,2.306-7.407,3.879c-5.632,3.896-11.091,8.041-16.618,12.086c-7.291,5.354-14.583,10.707-21.874,16.061
		c-1.622,0.688-3.245,1.377-4.867,2.066c-2.945-0.349-5.882-0.898-8.836-1.012c-19.17-0.734-38.346-1.346-57.517-2.073
		c-2.951-0.112-5.886-0.619-8.829-0.944c-0.661-2.015-1.322-4.03-1.983-6.045c-1.285-6.661-2.569-13.322-3.854-19.983
		c-0.347-4.653-0.695-9.307-1.042-13.959c21.74,0.659,43.484,1.236,65.22,2.006c14.415,0.511,28.826,1.209,43.229,1.992
		C318.584,59.053,328.147,59.873,337.719,60.56z"/>
	<path fill-rule="evenodd" clip-rule="evenodd" fill="#74BB28" d="M200.554,54.533c0.348,4.652,0.695,9.306,1.042,13.959
		c-2.376,0.002-4.751,0.004-7.126,0.005c-0.742-5.335-1.484-10.67-2.227-16.005c2.721,0.327,5.442,0.653,8.163,0.98
		C200.455,53.826,200.504,54.18,200.554,54.533z"/>
	<path fill-rule="evenodd" clip-rule="evenodd" fill="#FBF92E" d="M101.476,188.445c-0.378-1.464-0.756-2.928-1.134-4.392
		c19.655-6.186,39.996-8.663,60.331-11.175c10.125-0.493,20.251-0.986,30.376-1.479c0.084,1.62,0.168,3.24,0.253,4.862
		c-20.432-0.312-40.661,1.713-60.753,5.306C120.858,183.86,111.167,186.153,101.476,188.445z"/>
	<path fill-rule="evenodd" clip-rule="evenodd" fill="#21B8F5" d="M191.049,171.399c-10.125,0.493-20.251,0.986-30.376,1.479
		c-0.397-2.12-0.795-4.24-1.194-6.36c10.629-0.323,21.257-0.646,31.886-0.971C191.26,167.498,191.155,169.448,191.049,171.399z"/>
	<path fill-rule="evenodd" clip-rule="evenodd" fill="#DF1A22" d="M133.223,321.488c5.082-11.795,9.747-23.793,15.356-35.332
		c6.392-13.149,13.627-25.89,20.497-38.808c2.157,0.054,4.312,0.106,6.467,0.16c-0.686,1.498-1.317,3.023-2.065,4.489
		c-4.005,7.84-8.04,15.665-12.064,23.495c-3.001,6.051-6.313,11.971-8.938,18.181c-4.864,11.513-9.326,23.195-13.956,34.807
		c-3.347,10.345-6.694,20.689-10.041,31.034c-2.301-0.336-4.603-0.672-6.903-1.008C125.458,346.167,129.341,333.828,133.223,321.488
		z"/>
	<path fill-rule="evenodd" clip-rule="evenodd" fill="#CC0F13" d="M121.577,358.507c2.301,0.336,4.602,0.672,6.903,1.007
		c-1.516,6.375-3.501,12.681-4.46,19.139c-2.708,18.243-4.994,36.549-7.446,54.83c-0.024,9.339-0.048,18.678-0.072,28.017
		c-2.237,0.011-4.474,0.021-6.71,0.031C107.521,426.48,111.521,392.147,121.577,358.507z"/>
	<path fill-rule="evenodd" clip-rule="evenodd" fill="#5FA238" d="M191.049,171.399c0.105-1.951,0.211-3.901,0.316-5.852
		c2.978-5.146,5.956-10.293,8.935-15.439c0.104,0.857,0.208,1.714,0.31,2.569c-9.738,15.335-9.37,27.3,1.184,38.512
		c-0.136,0.681-0.271,1.361-0.407,2.042c-0.642-0.295-1.285-0.59-1.926-0.884c-2.719-5.361-5.439-10.725-8.16-16.088
		C191.218,174.64,191.134,173.02,191.049,171.399z"/>
	<path fill-rule="evenodd" clip-rule="evenodd" fill="#6DB32E" d="M200.611,152.68c-0.104-0.857-0.207-1.714-0.311-2.571
		c2.465-1.961,4.93-3.921,7.398-5.882c1.434-0.576,2.864-1.152,4.295-1.729c2.162-0.327,4.323-0.653,6.485-0.979
		c0.313,0.025,0.626,0.053,0.938,0.083c-0.014,0.924-0.028,1.847-0.042,2.772c-3.626,1.021-7.254,2.043-10.882,3.063
		C205.866,149.185,203.239,150.932,200.611,152.68z"/>
	<path fill-rule="evenodd" clip-rule="evenodd" fill="#8CDA15" d="M218.479,141.518c-2.162,0.326-4.324,0.652-6.485,0.979
		c-3.248-12.335-6.496-24.672-9.743-37.008c2.089-0.335,4.178-0.669,6.267-1.003c0.967,2.359,1.935,4.719,2.902,7.078
		c0.292,1.928,0.437,3.892,0.903,5.775C214.323,125.412,216.418,133.461,218.479,141.518z"/>
	<path fill-rule="evenodd" clip-rule="evenodd" fill="#7BC423" d="M194.47,68.497c2.375-0.001,4.75-0.003,7.126-0.005
		c1.286,6.661,2.571,13.322,3.856,19.983c-2.376,0-4.752-0.001-7.128-0.001C197.039,81.815,195.754,75.156,194.47,68.497z"/>
	<path fill-rule="evenodd" clip-rule="evenodd" fill="#87D319" d="M198.324,88.475c2.376,0,4.752,0.001,7.128,0.001
		c0.66,2.015,1.321,4.03,1.983,6.045c0.361,3.321,0.721,6.644,1.082,9.965c-2.089,0.335-4.178,0.669-6.267,1.004
		C200.941,99.817,199.632,94.146,198.324,88.475z"/>
	<path fill-rule="evenodd" clip-rule="evenodd" fill="#82CC1E" d="M398.504,522.495c-0.671-1.656-1.343-3.313-2.014-4.97
		c4.514-14.03,9.1-28.037,13.527-42.094c12.9-40.953,25.709-81.936,38.609-122.889c8.667-27.518,17.478-54.989,26.12-82.515
		c3.073-9.786,5.839-19.67,8.745-29.509c5.999,2.998,11.998,5.996,17.998,8.994c-1.994,7.483-3.713,15.053-6.026,22.437
		c-12.349,39.407-24.854,78.766-37.29,118.146c-9.588,30.363-19.195,60.72-28.708,91.106c-5.2,16.61-10.197,33.283-15.351,49.907
		c-0.684,2.208-1.748,4.299-2.637,6.444c-3.568-4.18-7.134-8.362-10.709-12.536C400.034,524.16,399.26,523.336,398.504,522.495z"/>
	<path fill-rule="evenodd" clip-rule="evenodd" fill="#FBFA59" d="M101.476,188.445c9.691-2.292,19.383-4.585,29.073-6.878
		c0.566,0.939,0.921,2.152,1.73,2.777c9.3,7.184,18.619,14.346,28.037,21.374c6.327,4.721,12.82,9.219,19.238,13.816
		c-6.197,10.302-12.402,20.599-18.581,30.91c-0.577,0.964-0.992,2.025-1.482,3.041c-6.177-4.349-12.487-8.521-18.5-13.086
		c-9.605-7.293-18.952-14.927-28.521-22.269c-9.957-7.641-20.047-15.105-30.081-22.647
		C88.752,193.138,95.114,190.792,101.476,188.445z"/>
	<path fill-rule="evenodd" clip-rule="evenodd" fill="#FADE24" d="M341.515,69.522c-5.004,3.33-10.007,6.66-15.011,9.99
		c-2.336,1.652-4.672,3.306-7.008,4.959c-9.004,6.664-18.008,13.329-27.012,19.993c-4.446,3.651-9.042,7.138-13.297,10.999
		c-4.095,3.716-7.838,7.82-11.736,11.753c-1.561,1.197-3.278,2.237-4.655,3.618c-6.552,6.565-13.01,13.225-19.502,19.851
		c-0.864-0.688-1.729-1.375-4.203-3.342c2.173-1.354,4.133-2.15,5.537-3.518c10.323-10.053,20.534-20.221,30.781-30.352
		c5.753-4.953,11.506-9.906,17.259-14.859c6.637-4.968,13.274-9.936,19.913-14.903c3.406-2.165,6.824-4.313,10.219-6.5
		c4.955-3.19,9.893-6.407,14.837-9.612c0.563-0.068,1.125-0.138,1.687-0.206C340.053,68.103,340.783,68.813,341.515,69.522z"/>
	<path fill-rule="evenodd" clip-rule="evenodd" fill="#7BC423" d="M337.636,67.6c-4.944,3.205-9.882,6.422-14.837,9.612
		c-3.395,2.187-6.813,4.335-10.22,6.499c-1.074-1.098-2.147-2.192-3.222-3.288c5.527-4.045,10.986-8.19,16.618-12.086
		c2.274-1.573,4.927-2.602,7.407-3.879C334.799,65.505,336.217,66.552,337.636,67.6z"/>
	<path fill-rule="evenodd" clip-rule="evenodd" fill="#FBEB13" d="M319.496,84.472c2.336-1.653,4.672-3.307,7.008-4.959
		c7.469,18.273,14.896,36.564,22.42,54.814c6.643,16.112,13.414,32.172,20.051,48.285c0.483,1.173,0.345,2.601,0.495,3.91
		c-2.993-0.661-5.985-1.322-8.978-1.983c-0.529-1.736-0.92-3.53-1.612-5.198c-6.789-16.351-13.653-32.67-20.446-49.02
		C332.089,115.051,325.807,99.756,319.496,84.472z"/>
	<path fill-rule="evenodd" clip-rule="evenodd" fill="#FBF92E" d="M319.496,84.472c6.311,15.284,12.593,30.579,18.938,45.85
		c6.793,16.35,13.657,32.669,20.446,49.02c0.692,1.668,1.083,3.462,1.612,5.198c-11.842-2.248-23.684-4.501-35.527-6.739
		c-0.813-0.153-1.645-0.204-2.469-0.303c-0.609-2.548-0.898-5.228-1.882-7.622c-7.354-17.9-14.798-35.765-22.328-53.592
		c-1.705-4.036-3.856-7.884-5.802-11.818C301.488,97.801,310.492,91.136,319.496,84.472z"/>
	<path fill-rule="evenodd" clip-rule="evenodd" fill="#8CDA15" d="M275.407,113.475c-10.246,10.131-20.458,20.299-30.78,30.352
		c-1.404,1.367-3.364,2.164-5.537,3.518c2.474,1.967,3.338,2.654,4.204,3.34c2.543,6.222,5.085,12.445,7.628,18.669
		c-0.766,2.562,0.604,3.096,2.819,3.315c8.4,0.834,16.839,1.478,25.167,2.804c24.679,3.931,49.339,8.002,73.947,12.348
		c7.976,1.408,15.772,3.834,23.651,5.796c-0.006,1.967-0.011,3.933-0.016,5.899c-1.941-0.277-3.92-0.399-5.816-0.859
		c-5.41-1.311-10.785-2.758-16.175-4.151c-7.423-1.688-14.798-3.643-22.28-5.011c-17.069-3.122-34.158-6.177-51.306-8.82
		c-9.301-1.434-18.733-2.062-28.127-2.774c-1.025-0.078-2.423,1.512-3.25,2.624c-3.607,4.848-6.659,10.188-10.757,14.558
		c-2.001,2.134-3.027,3.396-1.94,6.155c9.737,24.707,19.101,49.568,29.209,74.123c7.52,18.27,15.841,36.215,24.077,54.181
		c4.491,9.797,9.546,19.335,14.348,28.99c1.873,4.045,3.705,8.109,5.627,12.131c4.117,8.619,8.281,17.217,12.426,25.822
		c-0.676,0.879-1.397,1.727-2.015,2.645c-0.742,1.104-1.396,2.268-2.087,3.405c-6.438-12.675-12.875-25.35-19.313-38.024
		c-0.745-1.666-1.459-3.348-2.24-4.997c-5.752-12.14-11.851-24.128-17.204-36.44c-9.185-21.126-17.907-42.452-26.824-63.694
		c-7.47-19.823-14.94-39.647-22.464-59.615c-2.561,0.578-4.792,1.082-7.023,1.586c-0.967-0.091-1.935-0.182-2.902-0.272
		c-0.001-0.84-0.002-1.68-0.003-2.52c3.354-0.681,6.706-1.36,10.059-2.04c9.764-3.304,17.554-13.406,17.987-23.328
		c0.482-11.052-5.671-21.609-14.986-25.712c-4.712-1.034-9.425-2.068-14.137-3.104c0.014-0.924,0.028-1.847,0.043-2.771
		c4.545,0.753,9.174,1.19,13.604,2.374c2.939,0.786,4.461-0.045,6.399-2.126c8.58-9.218,17.384-18.227,26.107-27.312
		c1.663-1.329,3.326-2.658,4.989-3.987C272.146,111.523,273.777,112.499,275.407,113.475z"/>
	<path fill-rule="evenodd" clip-rule="evenodd" fill="#FBFA59" d="M292.484,104.465c1.946,3.935,4.097,7.782,5.802,11.818
		c7.53,17.827,14.975,35.691,22.328,53.592c0.983,2.395,1.272,5.074,1.882,7.622c-12.637-1.969-25.274-3.938-37.913-5.908
		c-2.867-7.048-5.835-14.057-8.571-21.154c-2.967-7.695-5.717-15.475-8.562-23.218c3.898-3.933,7.641-8.037,11.736-11.753
		C283.442,111.603,288.038,108.116,292.484,104.465z"/>
	<path fill-rule="evenodd" clip-rule="evenodd" fill="#FBFA7C" d="M267.451,127.217c2.845,7.743,5.595,15.522,8.562,23.218
		c2.736,7.098,5.704,14.106,8.571,21.154c-11.221-0.744-22.444-1.49-33.664-2.236c-2.54-6.224-5.083-12.447-7.625-18.669
		c6.491-6.624,12.95-13.283,19.501-19.849C264.172,129.454,265.89,128.414,267.451,127.217z"/>
	<path fill-rule="evenodd" clip-rule="evenodd" fill="#87D319" d="M483.492,240.52c-2.906,9.839-5.672,19.723-8.745,29.509
		c-8.643,27.525-17.453,54.997-26.12,82.515c-12.9,40.953-25.709,81.936-38.609,122.889c-4.428,14.057-9.014,28.063-13.527,42.094
		c-4.666-6.673-9.331-13.347-13.996-20.021c0.658-0.887,1.618-1.679,1.932-2.674c9.746-30.995,19.388-62.023,29.137-93.018
		c6.863-21.817,13.914-43.575,20.783-65.391c8.053-25.577,16.023-51.181,23.979-76.789c2.799-9.012,5.447-18.069,8.164-27.106
		c3.006,1.32,6.014,2.641,9.02,3.961C478.169,237.832,480.83,239.176,483.492,240.52z"/>
	<path fill-rule="evenodd" clip-rule="evenodd" fill="#96E70D" d="M364.467,467.593c-4.343-6.739-8.652-13.5-13.051-20.202
		c-1.152-1.755-2.582-3.328-3.884-4.983c-0.858-2.273-1.47-4.682-2.62-6.797c-3.684-6.77-7.566-13.431-11.373-20.134
		c1.52-2.744,3.554-5.325,4.478-8.256c9.366-29.715,18.476-59.51,27.81-89.234c8.939-28.47,18.09-56.874,27.084-85.327
		c2.64-8.349,5.063-16.766,7.585-25.151c3.665,1.001,7.33,2.003,10.995,3.005c9.174,3.564,18.336,7.156,27.534,10.656
		c1.04,0.396,2.274,0.28,3.418,0.403c0.018,0.31,0.035,0.619,0.053,0.929c-0.343,0.546-0.816,1.049-1.009,1.644
		c-6.996,21.638-14.049,43.258-20.917,64.936c-7.669,24.208-15.134,48.48-22.749,72.706c-5.717,18.182-11.559,36.325-17.291,54.502
		C375.139,433.378,369.818,450.49,364.467,467.593z"/>
	<path fill-rule="evenodd" clip-rule="evenodd" fill="#8CDA15" d="M364.467,467.593c5.352-17.103,10.672-34.215,16.063-51.305
		c5.732-18.177,11.574-36.32,17.291-54.502c7.615-24.226,15.08-48.498,22.749-72.706c6.868-21.678,13.921-43.298,20.917-64.936
		c0.192-0.595,0.666-1.098,1.009-1.644c7.997,3.342,15.995,6.684,23.993,10.026c-2.717,9.037-5.365,18.095-8.164,27.106
		c-7.955,25.608-15.926,51.212-23.979,76.789c-6.869,21.815-13.92,43.573-20.783,65.391c-9.749,30.994-19.391,62.022-29.137,93.018
		c-0.313,0.995-1.273,1.787-1.932,2.674c-3.326-4.352-6.651-8.703-9.977-13.056c-2.104-4.149-4.238-8.283-6.291-12.457
		C365.531,470.579,365.047,469.063,364.467,467.593z"/>
	<path fill-rule="evenodd" clip-rule="evenodd" fill="#A0F405" d="M400.495,207.508c-2.522,8.386-4.945,16.803-7.585,25.151
		c-8.994,28.453-18.145,56.857-27.084,85.327c-9.334,29.725-18.443,59.52-27.81,89.234c-0.924,2.931-2.958,5.512-4.478,8.256
		c-3.672-6.331-7.343-12.662-11.014-18.994c-4.145-8.605-8.309-17.203-12.426-25.822c-1.922-4.021-3.754-8.086-5.627-12.132
		c0.584-3.18,0.895-6.441,1.804-9.525c2.948-10.002,6.065-19.955,9.212-29.897c4.643-14.676,9.391-29.318,14.049-43.99
		c6.569-20.685,13.135-41.37,19.621-62.081c1.92-6.133,3.568-12.352,5.341-18.53c5.39,1.394,10.765,2.841,16.175,4.151
		c1.896,0.46,3.875,0.582,5.816,0.859C384.492,202.179,392.493,204.844,400.495,207.508z"/>
	<path fill-rule="evenodd" clip-rule="evenodd" fill="#FBFA7C" d="M179.555,219.535c-6.418-4.598-12.912-9.096-19.238-13.816
		c-9.418-7.028-18.737-14.19-28.037-21.374c-0.809-0.625-1.165-1.838-1.73-2.777c20.092-3.593,40.321-5.617,60.753-5.306
		c2.72,5.361,5.44,10.725,8.159,16.086c-5.582,7.585-11.166,15.17-16.74,22.761C181.647,216.57,180.609,218.059,179.555,219.535z"/>
	<path fill-rule="evenodd" clip-rule="evenodd" fill="#E82029" d="M175.543,247.509c-2.155-0.054-4.311-0.106-6.467-0.16
		c11.187-17.345,22.374-34.689,33.561-52.033c1.987,1.229,3.975,2.456,5.962,3.686c-1.938,2.487-4.037,4.865-5.786,7.477
		C193.674,220.122,184.625,233.825,175.543,247.509z"/>
	<path fill-rule="evenodd" clip-rule="evenodd" fill="#74BB28" d="M208.599,198.999c-1.987-1.228-3.975-2.455-5.962-3.684
		c-0.416-0.698-0.833-1.396-1.25-2.089c0.136-0.676,0.271-1.356,0.405-2.034c1.563,0.844,3.127,1.686,4.693,2.527
		c4.655,1.611,9.311,3.224,13.967,4.835c0.001,0.84,0.002,1.68,0.003,2.521C216.503,200.385,212.551,199.692,208.599,198.999z"/>
	<path fill-rule="evenodd" clip-rule="evenodd" fill="#F0262F" d="M116.574,433.482c2.452-18.281,4.738-36.587,7.446-54.83
		c0.958-6.458,2.944-12.764,4.46-19.139c3.347-10.344,6.694-20.688,10.041-31.033c19.412,0.677,38.82,1.449,58.236,2
		c16.784,0.476,33.575,0.69,50.363,1.053c1.147,0.024,2.286,0.447,3.433,0.476c7.997,0.191,15.996,0.327,23.993,0.48
		c2.992,6.201,5.938,12.426,8.992,18.597c2.23,4.507,4.602,8.944,6.911,13.413c7.941,16.397,15.806,32.832,23.853,49.178
		c4.601,9.345,9.498,18.543,14.263,27.807c-10.065-0.661-20.124-1.59-30.201-1.923c-16.763-0.556-33.539-0.687-50.308-1.078
		c-10.779-0.252-21.557-0.607-32.332-0.992c-17.728-0.634-35.452-1.352-53.179-1.987c-10.609-0.381-21.224-0.614-31.832-1.029
		C125.994,434.289,121.286,433.821,116.574,433.482z"/>
	<path fill-rule="evenodd" clip-rule="evenodd" fill="#DF1A22" d="M290.448,364.499c-2.309-4.469-4.68-8.906-6.911-13.413
		c-3.053-6.171-6-12.396-8.992-18.597c-7.689-18.002-15.377-36.004-23.066-54.006c-2.575-6.655-5.15-13.31-7.726-19.965
		c3.03,0.286,6.061,0.572,9.091,0.857c8.916,21.242,17.638,42.568,26.823,63.694c5.353,12.313,11.452,24.301,17.204,36.44
		c0.781,1.649,1.495,3.331,2.24,4.997C296.223,364.505,293.335,364.502,290.448,364.499z"/>
	<path fill-rule="evenodd" clip-rule="evenodd" fill="#87D319" d="M322.525,396.482c3.671,6.332,7.342,12.663,11.014,18.994
		c3.807,6.703,7.689,13.364,11.373,20.134c1.15,2.115,1.762,4.523,2.62,6.797c-1.316,2.186-2.634,4.372-3.954,6.56
		c-8.388-15.478-16.771-30.956-25.154-46.435c0.691-1.138,1.345-2.302,2.087-3.405C321.128,398.209,321.85,397.361,322.525,396.482z
		"/>
	<path fill-rule="evenodd" clip-rule="evenodd" fill="#A0F405" d="M270.517,110.549c-1.663,1.329-3.326,2.658-4.989,3.987
		c-0.781-0.673-1.511-1.849-2.353-1.936c-4.926-0.509-9.875-0.808-14.822-1.093c-6.437-0.371-12.879-0.915-19.318-0.916
		c-5.872-0.001-11.744,0.624-17.615,0.973c-0.968-2.359-1.935-4.719-2.902-7.078c-0.36-3.322-0.721-6.645-1.082-9.966
		c2.942,0.325,5.877,0.832,8.828,0.944c19.171,0.728,38.347,1.339,57.517,2.073c2.954,0.113,5.891,0.663,8.834,1.011
		C278.582,102.549,274.549,106.549,270.517,110.549z"/>
	<path fill-rule="evenodd" clip-rule="evenodd" fill="#82CC1E" d="M309.357,80.423c1.074,1.096,2.147,2.19,3.222,3.288
		c-6.638,4.969-13.275,9.937-19.913,14.903c-1.729-0.711-3.456-1.421-5.183-2.131C294.774,91.13,302.066,85.776,309.357,80.423z"/>
	<path fill-rule="evenodd" clip-rule="evenodd" fill="#87D319" d="M287.483,96.483c1.727,0.71,3.454,1.42,5.183,2.131
		c-5.752,4.954-11.505,9.907-17.258,14.86c-1.631-0.976-3.261-1.951-4.891-2.926c4.032-4,8.065-8,12.099-12
		C284.239,97.86,285.861,97.172,287.483,96.483z"/>
	<path fill-rule="evenodd" clip-rule="evenodd" fill="#F3543C" d="M251.479,278.483c7.688,18.002,15.377,36.004,23.066,54.006
		c-7.997-0.153-15.996-0.289-23.993-0.48c-1.147-0.028-2.286-0.451-3.433-0.476c-16.788-0.362-33.579-0.577-50.363-1.053
		c-19.416-0.551-38.824-1.323-58.236-2c4.63-11.611,9.092-23.294,13.956-34.807c2.624-6.21,5.936-12.13,8.938-18.181
		c4.897-0.001,9.795-0.08,14.69,0.011c16.075,0.296,32.155,0.493,48.221,1.052C233.389,276.87,242.429,277.819,251.479,278.483z"/>
	<path fill-rule="evenodd" clip-rule="evenodd" fill="#F6814C" d="M251.479,278.483c-9.05-0.664-18.09-1.613-27.153-1.928
		c-16.066-0.559-32.146-0.756-48.221-1.052c-4.895-0.091-9.793-0.012-14.69-0.011c4.023-7.83,8.058-15.655,12.063-23.495
		c0.749-1.466,1.379-2.991,2.065-4.489c9.081-13.684,18.131-27.387,27.27-41.031c1.749-2.611,3.849-4.989,5.786-7.477
		c3.952,0.691,7.904,1.384,11.856,2.075c0.967,0.089,1.935,0.18,2.902,0.271c3.075,9.295,5.977,18.65,9.271,27.866
		c3.516,9.837,7.401,19.543,11.125,29.306C246.329,265.174,248.904,271.828,251.479,278.483z"/>
	<path fill-rule="evenodd" clip-rule="evenodd" fill="#A7FD00" d="M206.485,193.72c-1.565-0.842-3.13-1.684-4.693-2.527
		c-10.552-11.215-10.92-23.18-1.182-38.515c2.628-1.746,5.256-3.493,7.883-5.24C207.824,162.865,207.154,178.292,206.485,193.72z"/>
	<path fill-rule="evenodd" clip-rule="evenodd" fill="#9CEF21" d="M206.485,193.72c0.669-15.428,1.339-30.854,2.008-46.282
		c3.628-1.021,7.256-2.043,10.882-3.064c4.711,1.033,9.424,2.067,14.136,3.102c-0.674,1.558-1.85,3.084-1.943,4.675
		c-0.798,13.56-1.43,27.131-2.01,40.702c-0.051,1.205,0.618,2.441,0.952,3.663c-3.353,0.68-6.705,1.359-10.059,2.04
		C215.796,196.943,211.14,195.331,206.485,193.72z"/>
	<path fill-rule="evenodd" clip-rule="evenodd" fill="#A7FD00" d="M211.419,111.564c5.872-0.349,11.743-0.974,17.615-0.973
		c6.439,0.001,12.881,0.545,19.318,0.916c4.946,0.285,9.896,0.584,14.822,1.093c0.842,0.087,1.571,1.263,2.353,1.936
		c-8.723,9.085-17.526,18.094-26.106,27.312c-1.938,2.081-3.46,2.912-6.399,2.126c-4.43-1.184-9.059-1.621-13.604-2.374
		c-0.313-0.029-0.626-0.057-0.939-0.082c-2.061-8.057-4.156-16.105-6.156-24.178C211.856,115.456,211.712,113.492,211.419,111.564z"
		/>
	<path fill-rule="evenodd" clip-rule="evenodd" fill="#A7FD00" d="M354.499,194.504c-1.772,6.179-3.421,12.397-5.341,18.53
		c-6.486,20.711-13.052,41.396-19.621,62.081c-4.658,14.672-9.406,29.314-14.049,43.99c-3.146,9.942-6.264,19.896-9.212,29.897
		c-0.909,3.084-1.22,6.346-1.804,9.525c-4.802-9.654-9.857-19.192-14.348-28.989c-8.236-17.966-16.557-35.911-24.077-54.181
		c-10.108-24.555-19.472-49.416-29.209-74.123c-1.087-2.759-0.062-4.021,1.94-6.155c4.098-4.369,7.149-9.71,10.757-14.558
		c0.827-1.112,2.225-2.702,3.25-2.624c9.394,0.713,18.827,1.341,28.127,2.774c17.148,2.644,34.237,5.698,51.306,8.82
		C339.701,190.861,347.076,192.815,354.499,194.504z"/>
	<path fill-rule="evenodd" clip-rule="evenodd" fill="#88E044" d="M230.511,196.515c-0.334-1.222-1.003-2.458-0.952-3.663
		c0.58-13.571,1.211-27.143,2.01-40.702c0.093-1.591,1.269-3.117,1.943-4.675c9.315,4.103,15.468,14.66,14.986,25.712
		C248.064,183.108,240.275,193.211,230.511,196.515z"/>
	<path fill-rule="evenodd" clip-rule="evenodd" fill="#E82029" d="M243.753,258.519c-3.724-9.763-7.609-19.469-11.125-29.306
		c-3.293-9.216-6.196-18.571-9.271-27.866c2.231-0.504,4.462-1.008,7.023-1.586c7.524,19.968,14.994,39.792,22.464,59.615
		C249.814,259.091,246.783,258.805,243.753,258.519z"/>
</g>
<path fill="none" enable-background="new    " d="z"/>
</svg>
