<?xml version="1.0" encoding="utf-8"?>
<!-- Generator: Adobe Illustrator 16.0.0, SVG Export Plug-In . SVG Version: 6.00 Build 0)  -->
<!DOCTYPE svg PUBLIC "-//W3C//DTD SVG 1.1//EN" "http://www.w3.org/Graphics/SVG/1.1/DTD/svg11.dtd">
<svg version="1.1" id="Calque_1" xmlns="http://www.w3.org/2000/svg" xmlns:xlink="http://www.w3.org/1999/xlink" x="0px" y="0px"
	 width="294.029px" height="309.031px" viewBox="0 0 294.029 309.031" enable-background="new 0 0 294.029 309.031"
	 xml:space="preserve">
<g>
	<path fill-rule="evenodd" clip-rule="evenodd" fill="#E5A766" d="M262.526,58.263c0.739-1.026,1.676-1.964,2.18-3.095
		c1.258-2.833,3.022-3.516,5.626-1.734c-0.657,1.331-1.235,2.709-1.985,3.987c-15.393,26.257-30.807,52.503-46.215,78.75
		c-1.336,2.023-2.671,4.046-4.006,6.069c-0.287,0.675-0.573,1.35-0.859,2.024l0.017-0.037c-0.342,0.682-0.684,1.363-1.025,2.046
		l0.028-0.041c-0.348,0.345-0.695,0.689-1.043,1.034l0.037-0.033c-0.338,0.675-0.676,1.351-1.014,2.025l0.015-0.028
		c-0.34,0.68-0.68,1.358-1.02,2.037l0.025-0.043c-0.345,0.684-0.689,1.367-1.034,2.051l0.035-0.047
		c-0.349,0.345-0.696,0.69-1.044,1.035l0.036-0.022c-0.672,1.343-1.344,2.686-2.016,4.028l0.022-0.046
		c-0.345,0.684-0.69,1.368-1.035,2.052l0.03-0.058c-0.339,0.488-0.678,0.977-1.017,1.465c-2.139,3.856-4.278,7.713-6.417,11.569
		c-0.861,1.339-1.725,2.679-2.586,4.019l0.024-0.048c-0.347,0.684-0.692,1.368-1.039,2.052l0.037-0.05
		c-0.348,0.347-0.695,0.693-1.043,1.039l0.038-0.023c-0.674,1.344-1.348,2.688-2.021,4.032l0.025-0.041
		c-0.346,0.345-0.693,0.689-1.041,1.034l0.035-0.032c-0.338,0.675-0.675,1.35-1.012,2.024l0.014-0.027
		c-0.341,0.681-0.681,1.36-1.021,2.041l0.029-0.049c-0.346,0.685-0.693,1.369-1.039,2.054l0.037-0.052
		c-0.348,0.347-0.696,0.694-1.045,1.041l0.041-0.026c-0.674,1.346-1.348,2.69-2.021,4.036l0.025-0.045
		c-0.348,0.346-0.695,0.69-1.042,1.035l0.036-0.032c-0.338,0.677-0.676,1.354-1.014,2.029l0.017-0.034
		c-0.341,0.68-0.681,1.359-1.022,2.039l0.027-0.043c-0.347,0.685-0.693,1.368-1.039,2.053l0.039-0.053
		c-0.35,0.348-0.698,0.695-1.047,1.043l0.041-0.036c-0.34,0.678-0.679,1.356-1.018,2.034l0.02-0.039
		c-0.342,0.684-0.685,1.367-1.027,2.05l0.029-0.046c-0.348,0.346-0.694,0.69-1.042,1.036l0.043-0.026
		c-0.095,0.623-0.189,1.247-0.284,1.87c-3.769,6.612-7.5,13.246-11.314,19.832c-9.338,16.125-18.764,32.199-28.023,48.369
		c-1.35,2.356-2.772,3.627-5.507,2.858c0.002-0.464,0.003-0.928,0.005-1.393c-1.498-1.083-2.849-2.597-4.521-3.168
		c-5.151-1.757-10.426-3.153-15.652-4.69c1.889-0.209,3.87-0.886,5.65-0.537c4.51,0.884,8.894,2.426,13.409,3.268
		c1.366,0.255,3.721-0.46,4.387-1.513c3.248-5.137,6.077-10.537,9.054-15.844c0.248-0.693,0.496-1.386,0.744-2.078
		c0.709-0.978,1.419-1.956,2.129-2.935c4.279-7.361,8.559-14.724,12.839-22.086c2.965-4.941,5.931-9.883,8.896-14.824
		c1.446-2.581,2.893-5.162,4.339-7.743c1.55-2.88,3.1-5.761,4.649-8.641c2.369-3.932,4.738-7.864,7.107-11.796
		c2.938-5.004,5.875-10.008,8.813-15.013c3.817-6.635,7.635-13.27,11.452-19.904c3.381-5.826,6.761-11.652,10.141-17.479
		c3.82-6.536,7.641-13.072,11.46-19.608c3.453-5.969,6.906-11.937,10.359-17.905c1.92-3.298,3.841-6.596,5.761-9.896
		c1.366-2.345,2.731-4.688,4.098-7.03c1.977-3.368,3.953-6.737,5.93-10.105c1.709-2.998,3.416-5.995,5.125-8.993
		C261.063,60.925,261.794,59.594,262.526,58.263z"/>
	<path fill-rule="evenodd" clip-rule="evenodd" fill="#925B23" d="M134.158,282.17c2.735,0.769,4.158-0.502,5.507-2.858
		c9.259-16.17,18.685-32.244,28.023-48.369c3.814-6.586,7.546-13.22,11.314-19.831c0.096-0.624,0.189-1.247,0.284-1.871
		l-0.043,0.026c0.348-0.346,0.695-0.69,1.042-1.036l-0.029,0.046c0.343-0.684,0.686-1.366,1.027-2.05l-0.02,0.039
		c0.34-0.678,0.678-1.356,1.018-2.034l-0.041,0.036c0.35-0.348,0.697-0.695,1.047-1.043l-0.039,0.053
		c0.346-0.685,0.692-1.369,1.039-2.053l-0.027,0.043c0.342-0.68,0.682-1.359,1.022-2.039l-0.017,0.034
		c0.338-0.676,0.676-1.353,1.014-2.029c0,0-0.036,0.032-0.035,0.032c0.347-0.345,0.693-0.689,1.041-1.035
		c0,0-0.025,0.045-0.026,0.045c0.675-1.346,1.349-2.69,2.022-4.036l-0.041,0.026c0.35-0.347,0.697-0.694,1.045-1.041l-0.037,0.052
		c0.346-0.685,0.693-1.369,1.039-2.054c0,0-0.029,0.049-0.028,0.049c0.34-0.681,0.68-1.36,1.021-2.041l-0.014,0.027
		c0.338-0.675,0.674-1.35,1.012-2.024c0,0-0.035,0.032-0.034,0.032c0.347-0.345,0.694-0.689,1.04-1.034l-0.025,0.041
		c0.674-1.345,1.348-2.688,2.021-4.032l-0.038,0.023c0.349-0.346,0.696-0.692,1.043-1.039l-0.037,0.05
		c0.347-0.685,0.692-1.368,1.039-2.052l-0.024,0.048c0.861-1.34,1.725-2.68,2.586-4.019c2.139-3.856,4.278-7.713,6.418-11.571
		c0.339-0.489,0.678-0.976,1.016-1.463l-0.03,0.058c0.345-0.685,0.69-1.368,1.035-2.052l-0.022,0.046
		c0.672-1.343,1.344-2.686,2.016-4.028l-0.036,0.022c0.349-0.345,0.696-0.69,1.044-1.035l-0.035,0.047
		c0.345-0.684,0.689-1.367,1.034-2.051l-0.025,0.043c0.34-0.679,0.68-1.357,1.02-2.037l-0.015,0.028
		c0.338-0.675,0.676-1.351,1.014-2.025c0,0-0.037,0.033-0.036,0.033c0.347-0.345,0.694-0.689,1.042-1.034
		c0,0-0.028,0.041-0.028,0.04c0.342-0.682,0.684-1.363,1.025-2.045l-0.017,0.037c0.286-0.675,0.572-1.35,0.859-2.024
		c1.335-2.023,2.67-4.046,4.006-6.069c2.009,0.009,4.018,0.018,6.025,0.026c-0.615,1.156-1.229,2.314-1.846,3.47
		c-3.828,7.173-7.656,14.346-11.484,21.519c-2.203,4.267-4.408,8.533-6.612,12.8c-2.394,3.37-4.788,6.74-7.183,10.11
		c-2.652,4.584-5.305,9.167-7.957,13.75c-2.631,4.423-5.264,8.847-7.895,13.27c-1.334,2.61-2.666,5.22-4,7.829
		c-3.457,5.719-6.914,11.437-10.371,17.155c-3.257,5.672-6.514,11.344-9.77,17.017c-0.602,1.029-1.201,2.06-1.802,3.09
		c-0.616,1.003-1.231,2.007-1.849,3.01c-0.369,0.662-0.738,1.324-1.107,1.986c-3.364,6.328-6.729,12.655-10.093,18.982
		c-1.44,1.964-2.881,3.929-4.321,5.893c-0.407,0.593-0.814,1.185-1.221,1.776C136.686,288.012,135.048,285.518,134.158,282.17z"/>
	<path fill-rule="evenodd" clip-rule="evenodd" fill="#E5A766" d="M78.776,178.251c12.597-19.185,25.172-38.384,37.796-57.55
		c16.745-25.424,33.547-50.81,50.27-76.248c2.065-3.143,4.089-4.914,7.244-1.32c-1.278,1.716-2.558,3.432-3.836,5.146l0.044-0.06
		c-1.35,1.596-2.861,3.082-4.021,4.805c-9.679,14.379-19.292,28.801-28.926,43.21c-0.699,1.015-1.397,2.03-2.096,3.045l0.044-0.045
		c-0.146,0.054-0.414,0.108-0.415,0.162c0,0.24,0.077,0.48,0.126,0.721c-4.255,6.378-8.511,12.757-12.767,19.136
		c-0.325,0.343-0.649,0.686-0.975,1.028l0.014-0.05c-0.346,0.345-0.692,0.688-1.038,1.032l0.034-0.03
		c-0.339,0.678-0.677,1.356-1.016,2.035l0.016-0.035c-0.345,0.344-0.689,0.688-1.034,1.031l0.036-0.032
		c-0.339,0.679-0.678,1.356-1.018,2.035l0.015-0.033c-0.344,0.343-0.688,0.687-1.033,1.029l0.034-0.03
		c-0.339,0.678-0.677,1.355-1.016,2.033l0.014-0.032c-0.344,0.343-0.688,0.687-1.032,1.029l0.035-0.03
		c-0.338,0.675-0.676,1.35-1.014,2.024l0.005-0.019c-0.341,0.342-0.683,0.683-1.024,1.024l0.031-0.028
		c-0.337,0.675-0.675,1.35-1.012,2.024l0.006-0.021c-0.342,0.342-0.684,0.683-1.025,1.024l0.032-0.028
		c-0.337,0.675-0.675,1.35-1.013,2.024l0.005-0.02c-0.341,0.341-0.683,0.682-1.024,1.023l0.031-0.027
		c-0.337,0.674-0.675,1.349-1.012,2.022l0.013-0.028c-0.341,0.679-0.682,1.358-1.022,2.038l0.043-0.008
		c-0.68,1.004-1.36,2.007-2.04,3.011l0.035-0.029c-0.151,0.058-0.436,0.13-0.431,0.169c0.029,0.251,0.122,0.495,0.193,0.741
		c-2.931,4.372-5.862,8.745-8.793,13.117c-0.261-0.122-0.521-0.244-0.782-0.367c-0.072,0.459-0.144,0.917-0.216,1.376l0.012-0.046
		c-0.345,0.344-0.69,0.688-1.035,1.031l0.034-0.03c-0.339,0.678-0.678,1.355-1.017,2.033l0.017-0.032
		c-0.344,0.343-0.688,0.686-1.032,1.027l0.031-0.026c-0.338,0.677-0.676,1.353-1.014,2.029l0.011-0.028
		c-0.343,0.343-0.686,0.685-1.028,1.027l0.031-0.028c-0.338,0.677-0.676,1.354-1.014,2.031l0.014-0.031
		c-0.344,0.343-0.688,0.687-1.032,1.029l0.033-0.031c-0.339,0.679-0.677,1.357-1.016,2.036l0.016-0.035
		c-0.345,0.344-0.689,0.688-1.034,1.031l0.036-0.032c-0.338,0.676-0.677,1.353-1.015,2.028l0.032-0.026
		c-0.333,0.424-0.667,0.848-1,1.271C81.789,177.754,80.283,178.003,78.776,178.251z"/>
	<path fill-rule="evenodd" clip-rule="evenodd" fill="#FDFDFD" d="M244.261,56.205c0.967,0.333,1.933,0.666,2.899,0.999
		c1.036,0.33,2.071,0.66,3.107,0.991c-0.391,0.957-0.781,1.915-1.172,2.873c-0.548,3.026-1.095,6.054-1.643,9.08
		c-0.388,3.354-0.774,6.709-1.163,10.063c-0.244,0.06-0.49,0.12-0.734,0.182c-2.561-0.399-5.135-0.729-7.681-1.212
		c-5.376-1.02-10.737-2.118-16.102-3.183c0.201-1.899,0.399-3.801,0.597-5.702c1.038-4.02,2.076-8.039,3.115-12.059
		c0.897-1.023,1.795-2.048,2.691-3.072c2.695,0.014,5.391,0.026,8.086,0.039c0.967,0.333,1.934,0.666,2.9,0.998
		C240.862,56.204,242.562,56.205,244.261,56.205z"/>
	<path fill-rule="evenodd" clip-rule="evenodd" fill="#9A5E22" d="M228.157,136.198c-2.008-0.009-4.017-0.018-6.025-0.026
		c15.408-26.247,30.822-52.493,46.215-78.75c0.75-1.278,1.328-2.656,1.985-3.987c3.358,2.634,3.486,5.494,1.047,8.951
		c-1.703,2.415-2.883,5.198-4.296,7.816c-3.348,5.652-6.694,11.306-10.042,16.959c-0.979,1.668-1.959,3.337-2.938,5.006
		c-0.922,1.681-1.844,3.36-2.767,5.04c-3.833,6.615-7.667,13.229-11.501,19.844c-1.899,3.317-3.8,6.634-5.699,9.951
		c-0.37,0.688-0.74,1.376-1.109,2.063c0,0,0.06,0.003,0.061,0.003C231.444,131.445,229.801,133.821,228.157,136.198z"/>
	<path fill-rule="evenodd" clip-rule="evenodd" fill="#925B23" d="M33.057,259.072c-1.22-1.615-2.441-3.229-3.662-4.844
		c3.027,0.626,4.795-0.765,6.399-3.3c8.426-13.322,16.968-26.571,25.573-39.778c4.426-6.793,9.068-13.444,13.614-20.159
		c1.855,0.449,3.71,0.898,5.566,1.348c-12.453,18.946-24.906,37.893-37.358,56.84c-0.647,0.99-1.294,1.98-1.941,2.971
		c-1.538,0.139-3.076,0.276-4.613,0.415c0.022,0.408,0.044,0.816,0.065,1.225c1.157,0.154,2.315,0.308,3.472,0.461
		c-1.011,1.469-2.022,2.937-3.033,4.405c-0.931,0.227-1.861,0.453-2.792,0.679C33.917,259.247,33.487,259.159,33.057,259.072z"/>
	<path fill-rule="evenodd" clip-rule="evenodd" fill="#459BDE" d="M78.776,178.251c1.506-0.248,3.013-0.497,4.52-0.746
		c0.343-0.097,0.687-0.192,1.03-0.288c3.003-1.001,6.005-2.002,9.008-3.002c3.269-1.147,6.538-2.295,9.807-3.442
		c0.967,1.183,1.727,3.059,2.939,3.424c4.46,1.341,9.07,2.18,13.625,3.207c-9.986,5.953-20.886,8.225-32.396,8.034
		c-4.313-0.127-8.627-0.254-12.94-0.381c-3.762-1.266-7.526-2.523-11.27-3.842c-0.084-0.029,0.075-0.752,0.121-1.151
		C68.405,179.459,73.59,178.856,78.776,178.251z"/>
	<path fill-rule="evenodd" clip-rule="evenodd" fill="#E5A766" d="M74.98,190.991c-4.545,6.715-9.188,13.366-13.613,20.159
		c-8.605,13.207-17.147,26.456-25.573,39.778c-1.604,2.535-3.372,3.926-6.399,3.3c0.747-1.621,1.302-3.368,2.27-4.845
		c12.009-18.315,24.087-36.587,36.116-54.89c0.893-1.358,1.547-2.874,2.313-4.315c0.589-0.335,1.179-0.669,1.77-1.003
		C72.902,189.781,73.941,190.385,74.98,190.991z"/>
	<path fill-rule="evenodd" clip-rule="evenodd" fill="#AA7641" d="M37.138,258.655c1.011-1.469,2.021-2.937,3.033-4.405
		c8.157,2.067,16.294,4.22,24.479,6.173c5.822,1.39,11.708,2.512,17.564,3.753c10.592,2.915,21.184,5.829,31.776,8.744
		c5.227,1.537,10.501,2.934,15.652,4.69c1.672,0.571,3.023,2.085,4.521,3.168c-28.461-7.414-56.896-14.934-85.416-22.112
		C45.107,257.75,41.019,258.615,37.138,258.655z"/>
	<path fill-rule="evenodd" clip-rule="evenodd" fill="#925B23" d="M226.015,201.215c0.438,1.656,0.875,3.313,1.312,4.969
		c0.561,2.015,1.122,4.029,1.683,6.044c0.349,1.995,0.697,3.989,1.047,5.983c-1.857,0.678-3.716,1.355-5.776,2.107
		c-0.783-3.174-1.298-6.426-2.452-9.433c-0.564-1.471-2.32-2.483-3.536-3.703c-0.173-0.6-0.347-1.199-0.52-1.799
		c0.483-0.728,0.966-1.455,1.448-2.183c-1.662-6.661-3.323-13.322-4.985-19.983c2.132-0.046,4.263-0.092,6.396-0.138
		c0.314,0.754,0.631,1.509,0.945,2.263C223.056,190.634,224.536,195.925,226.015,201.215z"/>
	<path fill-rule="evenodd" clip-rule="evenodd" fill="#90C5F2" d="M239.276,158.212c-2.377,4.002-4.754,8.004-7.13,12.006
		c-1.394,0.132-2.81,0.488-4.178,0.354c-3.56-0.35-7.099-0.915-10.646-1.394c-0.413-1.646-0.826-3.294-1.239-4.94
		c2.061-3.01,4.119-6.019,6.18-9.027C227.935,156.211,233.604,157.212,239.276,158.212z"/>
	<path fill-rule="evenodd" clip-rule="evenodd" fill="#AED5F9" d="M249.409,139.375c-1.07,1.937-2.142,3.873-3.213,5.81
		c0.938-1.985,1.813-3.832-1.729-4.007c-4.789-0.236-9.566-0.668-14.349-1.016c0.989-3.697,1.978-7.396,2.967-11.094
		c0,0-0.06-0.003-0.059-0.001c0.399,0.048,0.798,0.095,1.196,0.142c5.336,0.663,10.672,1.327,16.008,1.99
		c-0.015,1.004-0.029,2.009-0.045,3.013l0.02-0.031c-0.34,1.01-0.681,2.019-1.021,3.028l0.022-0.026
		c-0.437,0.529-0.874,1.059-1.312,1.588c0.424,0.133,0.848,0.265,1.271,0.397L249.409,139.375z"/>
	<path fill-rule="evenodd" clip-rule="evenodd" fill="#A5D0F7" d="M230.118,140.162c4.783,0.348,9.561,0.779,14.35,1.016
		c3.542,0.175,2.667,2.021,1.729,4.007c-0.699,1.686-1.399,3.371-2.099,5.056c-0.294,0.354-0.588,0.707-0.882,1.062
		c-0.011,0.305-0.053,0.606-0.124,0.902c-2.552-0.985-5.036-2.271-7.675-2.879c-3.01-0.693-6.158-0.784-9.245-1.137
		C227.487,145.512,228.803,142.837,230.118,140.162z"/>
	<path fill-rule="evenodd" clip-rule="evenodd" fill="#9BCBF5" d="M226.172,148.188c3.087,0.353,6.235,0.443,9.245,1.137
		c2.639,0.608,5.123,1.894,7.675,2.879c-1.272,2.003-2.544,4.006-3.815,6.009c-5.672-1-11.342-2.001-17.014-3.001
		C223.565,152.87,224.868,150.529,226.172,148.188z"/>
	<path fill-rule="evenodd" clip-rule="evenodd" fill="#7BBAED" d="M217.322,169.179c3.548,0.479,7.087,1.044,10.646,1.394
		c1.368,0.134,2.784-0.223,4.178-0.354c-0.651,1.324-1.302,2.648-1.952,3.973c-0.664,0.333-1.326,0.665-1.989,0.997l-0.019,0.021
		c-0.002,0.322-0.003,0.645-0.005,0.968l0.292,0.289c-2.299,2.96-4.598,5.919-6.897,8.878c-0.315-0.755-0.632-1.51-0.948-2.264
		c-0.526-1.959-1.053-3.918-1.578-5.878C218.474,174.529,217.897,171.854,217.322,169.179z"/>
	<path fill-rule="evenodd" clip-rule="evenodd" fill="#E5EEF7" d="M71.86,189.175c-0.589,0.334-1.178,0.668-1.768,1.003
		c-4.641-1.272-9.283-2.544-13.924-3.815c0.315-1.038,0.63-2.077,0.946-3.115c0.027-0.684,0.054-1.367,0.08-2.051
		c0.325-0.663,0.649-1.326,0.974-1.989c1.684,0.286,3.367,0.571,5.051,0.856c-0.046,0.399-0.205,1.122-0.121,1.151
		c3.743,1.318,7.507,2.576,11.269,3.842c-0.393,0.711-0.785,1.422-1.178,2.133C72.747,187.852,72.304,188.513,71.86,189.175z"/>
	<path fill-rule="evenodd" clip-rule="evenodd" fill="#B9DAFC" d="M228.177,55.166c-0.896,1.024-1.794,2.049-2.693,3.072
		c-6.08-0.664-12.16-1.328-18.239-1.992c0.63-1.346,1.26-2.691,1.89-4.037c0.36-0.34,0.72-0.68,1.08-1.021
		c5.642,0.681,11.283,1.36,16.926,2.041C227.485,53.875,227.831,54.52,228.177,55.166z"/>
	<path fill-rule="evenodd" clip-rule="evenodd" fill="#9BCBF5" d="M257.041,87.161c3.348-5.653,6.694-11.307,10.042-16.959
		c-1.017,6.961-2.033,13.921-3.049,20.881C263.036,87.401,259.957,87.427,257.041,87.161z"/>
	<path fill-rule="evenodd" clip-rule="evenodd" fill="#62ABE5" d="M57.115,183.248c-0.315,1.038-0.63,2.077-0.946,3.115
		c-6.652-1.751-13.305-3.503-19.958-5.255c0.479-1.323,0.959-2.647,1.439-3.971c0.187,0.029,0.37,0.073,0.549,0.132
		c0.934,0.685,1.775,1.714,2.818,1.994C46.355,180.698,51.744,181.939,57.115,183.248z"/>
	<path fill-rule="evenodd" clip-rule="evenodd" fill="#B9DAFC" d="M176.25,47.106c3.65,0.669,7.302,1.339,10.952,2.009
		c0.326,0.351,0.652,0.699,0.98,1.049c-0.926,1.016-1.85,2.031-2.775,3.047c-5.007-0.74-10.014-1.479-15.021-2.219
		c-0.031-0.924-0.062-1.848-0.092-2.771l-0.044,0.06C172.25,47.888,174.25,47.498,176.25,47.106z"/>
	<path fill-rule="evenodd" clip-rule="evenodd" fill="#D7E6F4" d="M261.341,98.18c0.27,1.075,1.001,2.283,0.735,3.204
		c-1.816,6.301-3.843,12.542-5.802,18.802c-0.031,0.992-0.063,1.984-0.096,2.977c-0.254,0.352-0.508,0.702-0.764,1.054
		c-0.742,0.659-1.482,1.318-2.222,1.979l0.009,0.006c0.341-2.332,0.682-4.663,1.023-6.995c2.002-6.995,4.004-13.99,6.007-20.985
		C260.602,98.208,260.971,98.194,261.341,98.18z"/>
	<path fill-rule="evenodd" clip-rule="evenodd" fill="#9BCBF5" d="M38.199,177.269c-0.179-0.059-0.362-0.103-0.549-0.131
		c1.169-0.642,2.338-1.284,3.508-1.926c5.348,0.771,10.701,1.511,16.032,2.38c0.403,0.066,0.656,1.056,0.979,1.615
		c-0.325,0.663-0.649,1.326-0.974,1.989C50.863,179.887,44.531,178.579,38.199,177.269z"/>
	<path fill-rule="evenodd" clip-rule="evenodd" fill="#AED5F9" d="M257.041,87.161c2.916,0.267,5.995,0.24,6.993,3.922
		c-0.586,1.732-1.172,3.465-1.758,5.196c-2.725-1.371-5.449-2.741-8.174-4.112C255.082,90.498,256.062,88.829,257.041,87.161z"/>
	<path fill-rule="evenodd" clip-rule="evenodd" fill="#B9DAFC" d="M249.096,61.068c0.391-0.958,0.781-1.916,1.171-2.873
		c0.336-0.65,0.674-1.301,1.011-1.951c3.747,0.674,7.495,1.348,11.245,2.021c-0.729,1.33-1.46,2.661-2.192,3.992
		C256.585,61.86,252.841,61.464,249.096,61.068z"/>
	<path fill-rule="evenodd" clip-rule="evenodd" fill="#9A5E22" d="M41.158,175.212c-1.169,0.642-2.339,1.284-3.508,1.926
		c-0.479,1.322-0.959,2.646-1.439,3.97c-1.758-0.212-3.516-0.424-5.273-0.637c0.714-2.667,1.429-5.333,2.144-8
		C35.773,173.385,38.466,174.298,41.158,175.212z"/>
	<path fill-rule="evenodd" clip-rule="evenodd" fill="#B9DAFC" d="M254.103,92.167c2.725,1.371,5.449,2.741,8.174,4.112
		c-0.313,0.635-0.626,1.268-0.938,1.901c-0.368,0.014-0.737,0.027-1.107,0.04c-2.965-0.338-5.93-0.676-8.896-1.014
		C252.259,95.527,253.181,93.847,254.103,92.167z"/>
	<path fill-rule="evenodd" clip-rule="evenodd" fill="#E9E9E9" d="M188.183,50.163c-0.328-0.349-0.654-0.697-0.98-1.048
		c3.479,0.058,6.979-0.1,10.434,0.229c4.213,0.401,8.387,1.211,12.578,1.844c-0.36,0.341-0.72,0.681-1.079,1.021
		C202.151,51.527,195.167,50.845,188.183,50.163z"/>
	<path fill-rule="evenodd" clip-rule="evenodd" fill="#E5A766" d="M33.081,172.471c-0.714,2.667-1.429,5.333-2.144,8
		c-2.899,0.039-3.311-1.557-2.293-3.776C29.537,174.747,28.545,170.64,33.081,172.471z"/>
	<path fill-rule="evenodd" clip-rule="evenodd" fill="#9A5E22" d="M176.25,47.106c-2,0.392-4,0.782-6,1.174
		c1.278-1.715,2.558-3.431,3.836-5.146C174.807,44.457,175.528,45.781,176.25,47.106z"/>
	<path fill-rule="evenodd" clip-rule="evenodd" fill="#D7E6F4" d="M250.187,134.211c0.016-1.004,0.03-2.009,0.045-3.013
		c0.99-1.666,1.98-3.332,2.971-4.998l-0.009-0.006c0.324,0.983,0.647,1.966,0.972,2.949c-0.256,0.356-0.514,0.713-0.771,1.069
		c-0.391,0.672-0.779,1.343-1.168,2.015l0.013-0.017C251.554,132.878,250.87,133.544,250.187,134.211z"/>
	<path fill-rule="evenodd" clip-rule="evenodd" fill="#E9E9E9" d="M228.177,55.166c-0.346-0.646-0.691-1.291-1.037-1.937
		c3.04,0.658,6.08,1.317,9.122,1.976C233.567,55.192,230.872,55.179,228.177,55.166z"/>
	<path fill-rule="evenodd" clip-rule="evenodd" fill="#F4F4F4" d="M188.196,264.196c1.337-0.993,2.675-1.986,4.012-2.979
		C190.871,262.21,189.533,263.204,188.196,264.196z"/>
	<path fill-rule="evenodd" clip-rule="evenodd" fill="#AED5F9" d="M254.165,129.144c-0.324-0.983-0.647-1.966-0.972-2.949
		c0.739-0.66,1.479-1.319,2.222-1.979C254.999,125.859,254.583,127.501,254.165,129.144z"/>
	<path fill-rule="evenodd" clip-rule="evenodd" fill="#AED5F9" d="M250.187,134.211c0.684-0.667,1.367-1.333,2.052-2
		c-0.628,1.71-1.257,3.419-1.884,5.129l-0.173-0.158c0.009-1.001,0.017-2.002,0.024-3.002L250.187,134.211z"/>
	<path fill-rule="evenodd" clip-rule="evenodd" fill="#E9E9E9" d="M251.277,56.244c-0.337,0.65-0.675,1.301-1.011,1.951
		c-1.035-0.331-2.07-0.661-3.106-0.991C248.532,56.883,249.905,56.564,251.277,56.244z"/>
	<path fill-rule="evenodd" clip-rule="evenodd" fill="#E9E9E9" d="M244.261,56.205c-1.699,0-3.398-0.001-5.098-0.002
		C240.862,56.204,242.562,56.205,244.261,56.205z"/>
	<path fill-rule="evenodd" clip-rule="evenodd" fill="#90C5F2" d="M228.205,175.188c0.663-0.332,1.325-0.664,1.989-0.997
		c-0.274,0.353-0.549,0.704-0.823,1.056C228.981,175.227,228.593,175.208,228.205,175.188z"/>
	<path fill-rule="evenodd" clip-rule="evenodd" fill="#DCDCDB" d="M141.868,286.078c0.521,0.096,1.042,0.19,1.566,0.286
		c-0.927,0.498-1.856,0.995-2.786,1.491C141.054,287.262,141.461,286.67,141.868,286.078z"/>
	<path fill-rule="evenodd" clip-rule="evenodd" fill="#AED5F9" d="M256.179,123.163c0.032-0.992,0.064-1.984,0.096-2.977
		C256.243,121.178,256.212,122.17,256.179,123.163z"/>
	<path fill-rule="evenodd" clip-rule="evenodd" fill="#AED5F9" d="M250.354,137.34c-0.316,0.677-0.633,1.354-0.947,2.032
		c0.002,0.002-0.24-0.205-0.24-0.205c0.014-0.661,0.027-1.323,0.04-1.985l-0.022,0.026c0.332-0.023,0.664-0.032,0.997-0.026
		L250.354,137.34z"/>
	<path fill-rule="evenodd" clip-rule="evenodd" fill="#AED5F9" d="M252.226,132.228c0.389-0.672,0.777-1.343,1.168-2.015
		C253.005,130.885,252.615,131.556,252.226,132.228z"/>
	<path fill-rule="evenodd" clip-rule="evenodd" fill="#AA7641" d="M33.057,259.072c0.43,0.087,0.86,0.175,1.29,0.262
		C33.917,259.247,33.486,259.159,33.057,259.072z"/>
	<path fill-rule="evenodd" clip-rule="evenodd" fill="#7BBAED" d="M228.205,175.188c0.388,0.02,0.776,0.039,1.166,0.059
		c-0.3,0.405-0.601,0.811-0.899,1.218c0.002,0.002-0.29-0.287-0.29-0.287c0.014-0.322,0.015-0.646,0.005-0.968L228.205,175.188z"/>
	<path fill-rule="evenodd" clip-rule="evenodd" fill="#9BCBF5" d="M243.216,151.301c0.294-0.354,0.588-0.708,0.882-1.062
		C243.804,150.594,243.509,150.948,243.216,151.301z"/>
	<path fill-rule="evenodd" clip-rule="evenodd" fill="#F8FAFD" d="M221.771,75.997c5.367,1.066,10.729,2.165,16.104,3.185
		c2.546,0.482,5.12,0.813,7.678,1.21c-0.128,2.664-0.251,5.33-0.374,7.996c-1.92,3.298-3.841,6.596-5.762,9.894
		c-3.915-0.393-8.02-0.186-11.689-1.351c-3.523-1.117-8.363,1.062-10.543-3.759c-0.031-0.34-0.061-0.68-0.09-1.02
		c0.361-1.652,0.723-3.307,1.083-4.96c0.381-1.641,0.763-3.282,1.144-4.924c0.593-2.035,1.187-4.069,1.779-6.104
		C221.32,76.094,221.544,76.039,221.771,75.997z"/>
	<path fill-rule="evenodd" clip-rule="evenodd" fill="#D7E6F4" d="M187.192,188.191c-2.369,3.932-4.738,7.864-7.107,11.797
		c-4.925,1.951-9.851,3.902-14.779,5.853c-6.328-1.792-12.653-3.583-18.978-5.374c6.593-3.836,13.186-7.672,19.779-11.507
		c1.8-1.363,3.6-2.727,5.398-4.09C176.733,185.976,181.964,187.083,187.192,188.191z"/>
	<path fill-rule="evenodd" clip-rule="evenodd" fill="#F4F7FB" d="M217.185,93.171c2.18,4.82,7.02,2.642,10.543,3.759
		c3.67,1.165,7.774,0.958,11.689,1.351c-3.452,5.969-6.905,11.937-10.357,17.905c-5.96-1.33-11.92-2.661-17.879-3.991
		c0.039-1.315,0.08-2.63,0.119-3.945C213.261,103.224,215.223,98.198,217.185,93.171z"/>
	<path fill-rule="evenodd" clip-rule="evenodd" fill="#EFF4FA" d="M211.181,112.195c5.959,1.33,11.919,2.661,17.879,3.991
		c-3.82,6.536-7.641,13.072-11.463,19.605c-1.113-0.543-2.182-1.218-3.346-1.595c-3.337-1.08-6.713-2.039-10.074-3.045
		c1.053-3.638,2.105-7.275,3.158-10.913C208.616,117.557,209.898,114.876,211.181,112.195z"/>
	<path fill-rule="evenodd" clip-rule="evenodd" fill="#E5EEF7" d="M207.458,153.274c-3.817,6.635-7.635,13.27-11.451,19.904
		c-4.354-0.683-8.707-1.365-13.059-2.048c1.452-2.631,2.902-5.262,4.352-7.894c2.621-4.685,5.242-9.369,7.862-14.054
		c0.32-0.038,0.64-0.085,0.957-0.141C198.524,154.135,203.923,151.209,207.458,153.274z"/>
	<path fill-rule="evenodd" clip-rule="evenodd" fill="#EAF2F9" d="M207.458,153.274c-3.535-2.064-8.934,0.861-11.338-4.229
		c1.064-2.942,2.127-5.887,3.19-8.831c1.308-3.001,2.615-6.003,3.923-9.005c0.315-0.009,0.63-0.028,0.943-0.058
		c3.361,1.007,6.737,1.966,10.074,3.046c1.164,0.377,2.232,1.052,3.346,1.595C214.219,141.622,210.839,147.448,207.458,153.274z"/>
	<path fill-rule="evenodd" clip-rule="evenodd" fill="#DFEAF6" d="M182.946,171.13c4.354,0.683,8.707,1.365,13.061,2.048
		c-2.939,5.005-5.877,10.009-8.814,15.013c-5.229-1.107-10.459-2.215-15.684-3.32c2.412-3.18,4.818-6.361,7.222-9.542
		C180.133,173.929,181.54,172.53,182.946,171.13z"/>
	<path fill-rule="evenodd" clip-rule="evenodd" fill="#74BFF7" d="M249.096,61.068c3.745,0.396,7.489,0.792,11.234,1.188
		c-1.708,2.998-3.415,5.995-5.124,8.992c-2.584-0.367-5.168-0.733-7.753-1.101C248.001,67.122,248.548,64.094,249.096,61.068z"/>
	<path fill-rule="evenodd" clip-rule="evenodd" fill="#83501E" d="M171.097,216.371c-2.613-0.789-5.226-1.577-7.838-2.366
		c0.986-2.543,1.973-5.086,2.959-7.628c3.072,0.75,6.145,1.5,9.218,2.251C173.989,211.208,172.543,213.79,171.097,216.371z"/>
	<path fill-rule="evenodd" clip-rule="evenodd" fill="#90C5F2" d="M247.453,70.148c2.585,0.367,5.169,0.733,7.753,1.101
		c-1.977,3.369-3.953,6.738-5.93,10.105c-0.996-0.381-1.99-0.762-2.986-1.143C246.679,76.857,247.065,73.502,247.453,70.148z"/>
	<path fill-rule="evenodd" clip-rule="evenodd" fill="#459BDE" d="M175.436,208.627c-3.073-0.751-6.146-1.501-9.218-2.251
		c-0.304-0.179-0.606-0.356-0.909-0.535c4.926-1.951,9.852-3.902,14.776-5.854C178.535,202.867,176.985,205.748,175.436,208.627z"/>
	<path fill-rule="evenodd" clip-rule="evenodd" fill="#9BCBF5" d="M246.29,80.211c0.996,0.381,1.99,0.762,2.986,1.143
		c-1.366,2.344-2.731,4.687-4.098,7.031c0.123-2.664,0.246-5.33,0.374-7.994C245.8,80.332,246.046,80.271,246.29,80.211z"/>
	<path fill-rule="evenodd" clip-rule="evenodd" fill="#E8B37D" d="M200.849,173.252c-0.861,1.339-1.725,2.679-2.586,4.019
		C199.124,175.931,199.987,174.591,200.849,173.252z"/>
	<path fill-rule="evenodd" clip-rule="evenodd" fill="#E8B37D" d="M211.28,154.242c-0.672,1.343-1.344,2.686-2.016,4.028
		C209.937,156.927,210.608,155.584,211.28,154.242z"/>
	<path fill-rule="evenodd" clip-rule="evenodd" fill="#E8B37D" d="M189.282,192.24c-0.674,1.346-1.348,2.69-2.022,4.036
		C187.935,194.93,188.608,193.585,189.282,192.24z"/>
	<path fill-rule="evenodd" clip-rule="evenodd" fill="#E8B37D" d="M196.28,180.241c-0.674,1.344-1.348,2.688-2.021,4.032
		C194.933,182.928,195.606,181.584,196.28,180.241z"/>
	<path fill-rule="evenodd" clip-rule="evenodd" fill="#F4F4F4" d="M145.196,257.196c0.679-0.327,1.358-0.653,2.037-0.98
		c-0.248,0.692-0.497,1.385-0.744,2.078C146.059,257.927,145.627,257.561,145.196,257.196z"/>
	<path fill-rule="evenodd" clip-rule="evenodd" fill="#E8B37D" d="M217.283,144.228c-0.342,0.682-0.684,1.363-1.025,2.045
		C216.6,145.591,216.941,144.91,217.283,144.228z"/>
	<path fill-rule="evenodd" clip-rule="evenodd" fill="#E8B37D" d="M192.28,187.231c-0.341,0.681-0.681,1.36-1.021,2.041
		C191.6,188.591,191.939,187.912,192.28,187.231z"/>
	<path fill-rule="evenodd" clip-rule="evenodd" fill="#E8B37D" d="M193.278,185.234c-0.338,0.675-0.674,1.35-1.012,2.024
		C192.604,186.583,192.94,185.909,193.278,185.234z"/>
	<path fill-rule="evenodd" clip-rule="evenodd" fill="#E8B37D" d="M181.284,206.227c-0.342,0.684-0.685,1.366-1.027,2.05
		C180.6,207.594,180.942,206.911,181.284,206.227z"/>
	<path fill-rule="evenodd" clip-rule="evenodd" fill="#E8B37D" d="M186.28,197.234c-0.338,0.677-0.676,1.354-1.014,2.029
		C185.604,198.587,185.942,197.911,186.28,197.234z"/>
	<path fill-rule="evenodd" clip-rule="evenodd" fill="#E8B37D" d="M185.283,199.229c-0.341,0.68-0.681,1.359-1.022,2.039
		C184.603,200.588,184.942,199.909,185.283,199.229z"/>
	<path fill-rule="evenodd" clip-rule="evenodd" fill="#E8B37D" d="M215.28,147.234c-0.338,0.675-0.676,1.351-1.014,2.025
		C214.604,148.584,214.942,147.909,215.28,147.234z"/>
	<path fill-rule="evenodd" clip-rule="evenodd" fill="#E8B37D" d="M184.288,201.225c-0.347,0.684-0.693,1.368-1.039,2.053
		C183.595,202.593,183.941,201.91,184.288,201.225z"/>
	<path fill-rule="evenodd" clip-rule="evenodd" fill="#E8B37D" d="M191.288,189.223c-0.346,0.685-0.693,1.369-1.039,2.054
		C190.595,190.592,190.942,189.908,191.288,189.223z"/>
	<path fill-rule="evenodd" clip-rule="evenodd" fill="#E8B37D" d="M214.281,149.231c-0.34,0.68-0.68,1.358-1.02,2.037
		C213.602,150.589,213.941,149.911,214.281,149.231z"/>
	<path fill-rule="evenodd" clip-rule="evenodd" fill="#E8B37D" d="M182.282,204.232c-0.34,0.678-0.678,1.356-1.018,2.034
		C181.604,205.588,181.942,204.91,182.282,204.232z"/>
	<path fill-rule="evenodd" clip-rule="evenodd" fill="#E8B37D" d="M218.126,142.241c-0.287,0.675-0.573,1.35-0.859,2.024
		C217.553,143.59,217.839,142.916,218.126,142.241z"/>
	<path fill-rule="evenodd" clip-rule="evenodd" fill="#E8B37D" d="M198.287,177.223c-0.347,0.684-0.692,1.367-1.039,2.052
		C197.595,178.591,197.94,177.907,198.287,177.223z"/>
	<path fill-rule="evenodd" clip-rule="evenodd" fill="#E8B37D" d="M209.287,158.224c-0.345,0.684-0.69,1.367-1.035,2.052
		C208.597,159.592,208.942,158.908,209.287,158.224z"/>
	<path fill-rule="evenodd" clip-rule="evenodd" fill="#E8B37D" d="M213.287,151.225c-0.345,0.684-0.689,1.367-1.034,2.051
		C212.598,152.592,212.942,151.909,213.287,151.225z"/>
	<path fill-rule="evenodd" clip-rule="evenodd" fill="#E8B37D" d="M179.287,209.241c-0.095,0.624-0.188,1.247-0.284,1.871
		C179.098,210.488,179.192,209.864,179.287,209.241z"/>
	<path fill-rule="evenodd" clip-rule="evenodd" fill="#E8B37D" d="M216.286,146.233c-0.348,0.345-0.695,0.689-1.042,1.034
		C215.591,146.922,215.938,146.578,216.286,146.233z"/>
	<path fill-rule="evenodd" clip-rule="evenodd" fill="#E8B37D" d="M187.286,196.231c-0.348,0.346-0.694,0.69-1.041,1.035
		C186.591,196.921,186.938,196.577,187.286,196.231z"/>
	<path fill-rule="evenodd" clip-rule="evenodd" fill="#E8B37D" d="M212.288,153.229c-0.348,0.345-0.695,0.69-1.044,1.035
		C211.592,153.919,211.939,153.574,212.288,153.229z"/>
	<path fill-rule="evenodd" clip-rule="evenodd" fill="#E8B37D" d="M183.288,203.225c-0.35,0.348-0.697,0.695-1.047,1.043
		C182.59,203.92,182.938,203.573,183.288,203.225z"/>
	<path fill-rule="evenodd" clip-rule="evenodd" fill="#E8B37D" d="M197.285,179.225c-0.347,0.347-0.694,0.693-1.043,1.039
		C196.59,179.918,196.938,179.572,197.285,179.225z"/>
	<path fill-rule="evenodd" clip-rule="evenodd" fill="#E8B37D" d="M180.286,208.231c-0.347,0.346-0.694,0.69-1.042,1.036
		C179.592,208.921,179.938,208.577,180.286,208.231z"/>
	<path fill-rule="evenodd" clip-rule="evenodd" fill="#E8B37D" d="M194.284,184.232c-0.346,0.345-0.693,0.689-1.04,1.034
		C193.591,184.921,193.938,184.577,194.284,184.232z"/>
	<path fill-rule="evenodd" clip-rule="evenodd" fill="#E8B37D" d="M190.286,191.225c-0.348,0.347-0.695,0.694-1.045,1.041
		C189.59,191.919,189.938,191.572,190.286,191.225z"/>
	<path fill-rule="evenodd" clip-rule="evenodd" fill="#E8B37D" d="M208.282,160.218c-0.338,0.487-0.677,0.974-1.016,1.463
		C207.604,161.195,207.943,160.707,208.282,160.218z"/>
	<path fill-rule="evenodd" clip-rule="evenodd" fill="#62ABE5" d="M193.075,197.846c2.652-4.583,5.305-9.166,7.957-13.749
		c3.744,0.687,7.488,1.372,11.232,2.059c0.616,2.346,1.232,4.69,1.848,7.036c-2.832,2.604-5.665,5.207-8.498,7.81
		c-1.813,1.013-3.627,2.025-5.439,3.038c-1.54-1.272-3.1-2.522-4.613-3.825C194.694,199.469,193.901,198.638,193.075,197.846z"/>
	<path fill-rule="evenodd" clip-rule="evenodd" fill="#6D4518" d="M214.112,193.192c-0.615-2.346-1.231-4.69-1.848-7.036
		c-1.35-4.057-2.699-8.113-4.05-12.17c2.204-4.267,4.409-8.533,6.613-12.8c0.419,1.019,0.837,2.035,1.255,3.053
		c0.413,1.646,0.826,3.294,1.239,4.94c0.575,2.675,1.151,5.35,1.728,8.023c-6.523,0.044-6.782,0.368-4.815,6.016
		c1.662,6.661,3.323,13.322,4.985,19.983c-0.637-0.005-1.274-0.009-1.912-0.013c-0.279-0.47-0.559-0.939-0.839-1.409
		C215.683,198.917,214.897,196.054,214.112,193.192z"/>
	<path fill-rule="evenodd" clip-rule="evenodd" fill="#DFEAF6" d="M216.083,164.239c-0.418-1.018-0.836-2.034-1.255-3.053
		c3.827-7.173,7.655-14.346,11.483-21.519c0.617-1.155,1.23-2.313,1.846-3.47c1.644-2.377,3.287-4.753,4.93-7.13
		c-0.99,3.698-1.979,7.396-2.968,11.094c-1.316,2.676-2.632,5.351-3.947,8.026c-1.304,2.341-2.606,4.682-3.909,7.023
		C220.202,158.22,218.144,161.229,216.083,164.239z"/>
	<path fill-rule="evenodd" clip-rule="evenodd" fill="#459BDE" d="M193.075,197.846c0.826,0.792,1.619,1.623,2.486,2.368
		c1.514,1.303,3.073,2.553,4.613,3.825c-0.179,0.297-0.357,0.594-0.535,0.89c-2.592,1.619-5.185,3.238-7.777,4.857
		c-1.377,0.729-2.756,1.457-4.133,2.186c-0.85-0.285-1.699-0.57-2.549-0.856C187.812,206.693,190.444,202.269,193.075,197.846z"/>
	<path fill-rule="evenodd" clip-rule="evenodd" fill="#6D4518" d="M185.181,211.116c0.85,0.286,1.699,0.571,2.549,0.857
		c2.688,0.6,5.374,1.198,8.061,1.796c-4.43,1.172-4.643,4.28-4.611,7.547c-3.332-0.79-6.664-1.58-9.997-2.37
		C182.515,216.335,183.847,213.726,185.181,211.116z"/>
	<path fill-rule="evenodd" clip-rule="evenodd" fill="#7BBAED" d="M208.215,173.986c1.351,4.057,2.7,8.113,4.05,12.17
		c-3.744-0.687-7.488-1.372-11.232-2.059C203.427,180.726,205.821,177.356,208.215,173.986z"/>
	<path fill-rule="evenodd" clip-rule="evenodd" fill="#9A5E22" d="M170.294,48.22c0.03,0.924,0.061,1.848,0.092,2.773
		c-0.727,3.038-1.453,6.075-2.18,9.112c-0.346,0.449-0.691,0.898-1.037,1.348c-11.552,17.392-23.147,34.754-34.635,52.187
		c-5.566,8.446-10.931,17.025-16.387,25.544c-1.96,2.787-3.92,5.574-5.88,8.361c-5.644,8.89-11.289,17.779-16.933,26.67
		c-3.003,1-6.005,2.001-9.009,3.001c0.082-0.329,0.072-0.656-0.03-0.981l-0.032,0.026c0.339-0.676,0.677-1.353,1.015-2.028
		c0,0-0.036,0.032-0.036,0.032c0.345-0.344,0.689-0.688,1.033-1.031l-0.016,0.035c0.339-0.679,0.678-1.357,1.016-2.036l-0.033,0.031
		c0.344-0.343,0.688-0.687,1.032-1.029l-0.014,0.031c0.338-0.677,0.676-1.354,1.014-2.031c0,0-0.031,0.028-0.03,0.028
		c0.343-0.343,0.686-0.685,1.028-1.027l-0.011,0.028c0.338-0.676,0.676-1.353,1.014-2.029c0,0-0.031,0.026-0.03,0.026
		c0.344-0.342,0.688-0.685,1.031-1.027l-0.017,0.032c0.339-0.678,0.678-1.355,1.017-2.033c0,0-0.034,0.03-0.034,0.03
		c0.345-0.344,0.69-0.688,1.035-1.031l-0.012,0.046c0.333-0.337,0.666-0.673,0.998-1.009c2.931-4.372,5.862-8.745,8.793-13.117
		c0.18-0.277,0.259-0.58,0.237-0.91l-0.035,0.029c0.68-1.004,1.359-2.007,2.04-3.011c0,0-0.043,0.008-0.043,0.007
		c0.341-0.679,0.682-1.358,1.022-2.037c0,0-0.013,0.028-0.013,0.028c0.337-0.674,0.674-1.349,1.012-2.022l-0.031,0.027
		c0.342-0.342,0.683-0.683,1.024-1.023l-0.005,0.02c0.338-0.675,0.675-1.35,1.013-2.024l-0.032,0.028
		c0.342-0.342,0.684-0.683,1.025-1.024l-0.006,0.021c0.337-0.675,0.675-1.35,1.012-2.024l-0.031,0.028
		c0.342-0.342,0.683-0.683,1.024-1.024c0,0-0.005,0.019-0.005,0.019c0.338-0.675,0.675-1.35,1.013-2.024c0,0-0.035,0.03-0.034,0.03
		c0.344-0.343,0.688-0.687,1.031-1.029c0,0-0.014,0.032-0.013,0.032c0.338-0.678,0.677-1.355,1.016-2.033l-0.034,0.03
		c0.345-0.343,0.688-0.687,1.033-1.029l-0.015,0.033c0.339-0.679,0.678-1.356,1.018-2.035c0,0-0.036,0.032-0.036,0.032
		c0.345-0.344,0.689-0.688,1.034-1.031l-0.016,0.035c0.339-0.679,0.677-1.357,1.016-2.035c0,0-0.034,0.03-0.034,0.03
		c0.346-0.344,0.692-0.688,1.038-1.032l-0.014,0.05c0.325-0.343,0.65-0.686,0.975-1.028c4.256-6.379,8.511-12.758,12.767-19.136
		c0.184-0.266,0.28-0.56,0.288-0.883c0,0-0.044,0.045-0.044,0.045c0.699-1.016,1.397-2.03,2.096-3.045
		c9.633-14.409,19.247-28.831,28.926-43.21C167.433,51.302,168.944,49.816,170.294,48.22z"/>
	<path fill-rule="evenodd" clip-rule="evenodd" fill="#E8B37D" d="M106.298,143.26c-0.68,1.004-1.36,2.007-2.04,3.011
		C104.938,145.267,105.618,144.264,106.298,143.26z"/>
	<path fill-rule="evenodd" clip-rule="evenodd" fill="#E8B37D" d="M137.348,96.235c-0.699,1.015-1.397,2.029-2.096,3.045
		C135.95,98.265,136.649,97.25,137.348,96.235z"/>
	<path fill-rule="evenodd" clip-rule="evenodd" fill="#E8B37D" d="M116.277,127.234c-0.339,0.678-0.677,1.355-1.016,2.033
		C115.6,128.589,115.938,127.912,116.277,127.234z"/>
	<path fill-rule="evenodd" clip-rule="evenodd" fill="#E8B37D" d="M110.277,136.235c-0.337,0.675-0.675,1.35-1.013,2.024
		C109.602,137.584,109.939,136.91,110.277,136.235z"/>
	<path fill-rule="evenodd" clip-rule="evenodd" fill="#E8B37D" d="M107.277,141.23c-0.341,0.679-0.682,1.358-1.022,2.037
		C106.596,142.588,106.937,141.909,107.277,141.23z"/>
	<path fill-rule="evenodd" clip-rule="evenodd" fill="#E8B37D" d="M108.276,139.236c-0.337,0.674-0.674,1.349-1.012,2.022
		C107.602,140.584,107.939,139.91,108.276,139.236z"/>
	<path fill-rule="evenodd" clip-rule="evenodd" fill="#E8B37D" d="M112.276,133.236c-0.337,0.675-0.675,1.35-1.012,2.024
		C111.602,134.585,111.939,133.911,112.276,133.236z"/>
	<path fill-rule="evenodd" clip-rule="evenodd" fill="#E8B37D" d="M114.278,130.234c-0.338,0.675-0.675,1.35-1.013,2.024
		C113.602,131.583,113.94,130.909,114.278,130.234z"/>
	<path fill-rule="evenodd" clip-rule="evenodd" fill="#E8B37D" d="M85.278,174.233c-0.338,0.676-0.676,1.353-1.015,2.028
		C84.602,175.585,84.94,174.909,85.278,174.233z"/>
	<path fill-rule="evenodd" clip-rule="evenodd" fill="#E8B37D" d="M87.276,171.233c-0.338,0.679-0.677,1.357-1.016,2.036
		C86.599,172.59,86.938,171.912,87.276,171.233z"/>
	<path fill-rule="evenodd" clip-rule="evenodd" fill="#E8B37D" d="M95.263,160.269c-0.333,0.336-0.666,0.672-0.998,1.009
		c0.072-0.459,0.144-0.917,0.216-1.376C94.741,160.025,95.002,160.147,95.263,160.269z"/>
	<path fill-rule="evenodd" clip-rule="evenodd" fill="#E8B37D" d="M89.275,168.235c-0.338,0.677-0.676,1.354-1.014,2.031
		C88.599,169.589,88.937,168.912,89.275,168.235z"/>
	<path fill-rule="evenodd" clip-rule="evenodd" fill="#E8B37D" d="M122.241,119.253c-0.325,0.343-0.65,0.686-0.975,1.028
		C121.592,119.939,121.917,119.596,122.241,119.253z"/>
	<path fill-rule="evenodd" clip-rule="evenodd" fill="#E8B37D" d="M91.275,165.235c-0.338,0.677-0.676,1.354-1.014,2.029
		C90.599,166.587,90.937,165.912,91.275,165.235z"/>
	<path fill-rule="evenodd" clip-rule="evenodd" fill="#E8B37D" d="M118.278,124.233c-0.339,0.679-0.678,1.356-1.018,2.035
		C117.6,125.589,117.939,124.912,118.278,124.233z"/>
	<path fill-rule="evenodd" clip-rule="evenodd" fill="#E8B37D" d="M93.276,162.233c-0.339,0.678-0.678,1.355-1.017,2.033
		C92.598,163.588,92.937,162.911,93.276,162.233z"/>
	<path fill-rule="evenodd" clip-rule="evenodd" fill="#E8B37D" d="M120.277,121.234c-0.339,0.678-0.677,1.356-1.016,2.035
		C119.6,122.59,119.938,121.912,120.277,121.234z"/>
	<path fill-rule="evenodd" clip-rule="evenodd" fill="#E8B37D" d="M115.275,129.235c-0.344,0.343-0.687,0.687-1.031,1.029
		C114.587,129.921,114.931,129.578,115.275,129.235z"/>
	<path fill-rule="evenodd" clip-rule="evenodd" fill="#E8B37D" d="M86.276,173.234c-0.344,0.344-0.688,0.688-1.033,1.031
		C85.587,173.921,85.931,173.578,86.276,173.234z"/>
	<path fill-rule="evenodd" clip-rule="evenodd" fill="#E8B37D" d="M109.27,138.24c-0.341,0.341-0.682,0.682-1.024,1.023
		C108.587,138.921,108.928,138.581,109.27,138.24z"/>
	<path fill-rule="evenodd" clip-rule="evenodd" fill="#E8B37D" d="M88.275,170.235c-0.344,0.343-0.688,0.687-1.032,1.029
		C87.587,170.921,87.931,170.578,88.275,170.235z"/>
	<path fill-rule="evenodd" clip-rule="evenodd" fill="#E8B37D" d="M111.271,135.239c-0.341,0.342-0.683,0.683-1.025,1.024
		C110.587,135.921,110.929,135.581,111.271,135.239z"/>
	<path fill-rule="evenodd" clip-rule="evenodd" fill="#E8B37D" d="M90.272,167.236c-0.342,0.343-0.685,0.685-1.028,1.027
		C89.587,167.92,89.93,167.579,90.272,167.236z"/>
	<path fill-rule="evenodd" clip-rule="evenodd" fill="#E8B37D" d="M94.277,161.232c-0.345,0.344-0.689,0.688-1.035,1.031
		C93.587,161.919,93.932,161.576,94.277,161.232z"/>
	<path fill-rule="evenodd" clip-rule="evenodd" fill="#E8B37D" d="M117.276,126.235c-0.344,0.343-0.688,0.687-1.033,1.029
		C116.587,126.921,116.932,126.578,117.276,126.235z"/>
	<path fill-rule="evenodd" clip-rule="evenodd" fill="#E8B37D" d="M84.295,176.235c0.102,0.325,0.112,0.652,0.03,0.981
		c-0.343,0.097-0.686,0.192-1.029,0.289C83.629,177.083,83.962,176.659,84.295,176.235z"/>
	<path fill-rule="evenodd" clip-rule="evenodd" fill="#E8B37D" d="M119.276,123.234c-0.345,0.344-0.689,0.688-1.034,1.031
		C118.587,123.921,118.932,123.578,119.276,123.234z"/>
	<path fill-rule="evenodd" clip-rule="evenodd" fill="#E8B37D" d="M113.27,132.24c-0.341,0.342-0.682,0.683-1.024,1.024
		C112.587,132.922,112.928,132.582,113.27,132.24z"/>
	<path fill-rule="evenodd" clip-rule="evenodd" fill="#E8B37D" d="M135.296,99.235c-0.008,0.323-0.104,0.617-0.288,0.883
		c-0.05-0.24-0.127-0.48-0.127-0.721C134.882,99.343,135.15,99.289,135.296,99.235z"/>
	<path fill-rule="evenodd" clip-rule="evenodd" fill="#E8B37D" d="M104.293,146.242c0.022,0.33-0.057,0.633-0.237,0.91
		c-0.072-0.246-0.165-0.49-0.194-0.741C103.858,146.372,104.143,146.299,104.293,146.242z"/>
	<path fill-rule="evenodd" clip-rule="evenodd" fill="#E8B37D" d="M121.281,120.232c-0.346,0.345-0.691,0.688-1.038,1.032
		C120.589,120.92,120.935,120.577,121.281,120.232z"/>
	<path fill-rule="evenodd" clip-rule="evenodd" fill="#E8B37D" d="M92.276,164.234c-0.344,0.343-0.688,0.686-1.031,1.027
		C91.588,164.919,91.932,164.577,92.276,164.234z"/>
	<path fill-rule="evenodd" clip-rule="evenodd" fill="#83501E" d="M191.179,221.316c-0.031-3.267,0.182-6.375,4.611-7.547
		c-2.687-0.598-5.373-1.196-8.061-1.796c1.377-0.729,2.756-1.458,4.135-2.186c9.326,2.493,18.65,4.984,29.079,7.771
		c-1.11-3.523-1.877-5.954-2.644-8.386c-0.003-0.663-0.006-1.326-0.009-1.989c1.216,1.22,2.972,2.232,3.536,3.703
		c1.154,3.007,1.669,6.259,2.452,9.433c2.061-0.752,3.919-1.43,5.776-2.107c2.018,1.658,4,3.361,6.063,4.961
		c1.578,1.223,3.259,2.315,4.895,3.466c0.277,0.542,0.557,1.084,0.835,1.626c-1.858,1.765-3.718,3.53-5.575,5.295
		c-2.643-0.587-5.285-1.173-7.928-1.76C215.956,228.305,203.567,224.81,191.179,221.316z"/>
	<path fill-rule="evenodd" clip-rule="evenodd" fill="#74BFF7" d="M207.245,56.246c6.078,0.664,12.158,1.328,18.238,1.992
		c-1.037,4.02-2.075,8.039-3.115,12.059c-5.969-0.711-11.938-1.421-17.905-2.131C205.39,64.192,206.317,60.219,207.245,56.246z"/>
	<path fill-rule="evenodd" clip-rule="evenodd" fill="#90C5F2" d="M204.463,68.166c5.968,0.71,11.937,1.42,17.905,2.131
		c-0.195,1.901-0.394,3.803-0.595,5.702c-0.229,0.04-0.453,0.096-0.672,0.165c-5.994-0.662-11.989-1.324-17.983-1.986
		C203.567,72.173,204.015,70.169,204.463,68.166z"/>
	<path fill-rule="evenodd" clip-rule="evenodd" fill="#BFDEFD" d="M251.336,97.207c2.966,0.338,5.931,0.676,8.896,1.014
		c-2.002,6.995-4.004,13.99-6.007,20.985c-4.796-0.719-9.593-1.437-14.39-2.155C243.669,110.436,247.503,103.822,251.336,97.207z"/>
	<path fill-rule="evenodd" clip-rule="evenodd" fill="#B9DAFC" d="M239.835,117.05c4.797,0.719,9.594,1.437,14.39,2.155
		c-0.341,2.332-0.682,4.663-1.022,6.995c-0.99,1.666-1.98,3.332-2.971,4.998c-5.336-0.663-10.672-1.327-16.009-1.99
		c-0.029-0.735-0.059-1.472-0.087-2.207C236.035,123.684,237.936,120.368,239.835,117.05z"/>
	<path fill-rule="evenodd" clip-rule="evenodd" fill="#DFEAF6" d="M234.136,127.001c0.028,0.735,0.058,1.472,0.087,2.207
		c-0.397-0.047-0.796-0.094-1.195-0.142C233.396,128.377,233.766,127.689,234.136,127.001z"/>
	<path fill-rule="evenodd" clip-rule="evenodd" fill="#E8B37D" d="M55.108,255.224c7.343,2.01,14.713,3.928,22.009,6.094
		c1.821,0.541,3.404,1.884,5.097,2.858c-5.857-1.242-11.743-2.364-17.564-3.754c-8.185-1.953-16.321-4.105-24.479-6.173
		c-1.157-0.153-2.315-0.307-3.472-0.461c-0.021-0.408-0.043-0.816-0.065-1.225c1.538-0.139,3.075-0.276,4.613-0.414
		c0.97,0.12,1.941,0.239,2.911,0.356c2.717,0.817,5.435,1.638,8.151,2.458C53.242,255.05,54.175,255.137,55.108,255.224z"/>
	<path fill-rule="evenodd" clip-rule="evenodd" fill="#74BFF7" d="M93.083,195.127c-4.179-0.93-8.357-1.86-12.537-2.79
		c-1.855-0.448-3.71-0.897-5.566-1.347c-1.039-0.605-2.078-1.21-3.118-1.815c0.441-0.662,0.884-1.323,1.328-1.985
		c6.687,1.325,13.374,2.649,20.061,3.975c0.04,0.668,0.08,1.336,0.121,2.003C93.275,193.821,93.179,194.474,93.083,195.127z"/>
	<path fill-rule="evenodd" clip-rule="evenodd" fill="#E9E9E9" d="M44.158,252.508c-0.971-0.119-1.941-0.238-2.912-0.358
		c0.647-0.991,1.294-1.981,1.941-2.972c0.346,0.688,0.692,1.377,1.037,2.065C44.203,251.666,44.18,252.086,44.158,252.508z"/>
	<path fill-rule="evenodd" clip-rule="evenodd" fill="#D7E6F4" d="M87.309,185.438c11.51,0.19,22.409-2.081,32.392-8.035
		c1.347-0.236,2.696-0.472,4.048-0.703c0.823,0.486,1.602,1.292,2.469,1.4c6.351,0.789,12.719,1.438,19.083,2.132
		c-1.435,1.278-2.871,2.557-4.306,3.835c-8.087,4.422-16.252,8.624-25.716,9.194c-1.401-0.001-2.802-0.001-4.203-0.002
		c-0.313-0.018-0.625-0.052-0.936-0.104c-0.956-0.307-1.911-0.613-2.866-0.92c-4.39-0.702-8.78-1.404-13.171-2.106
		c-1.327-0.926-2.651-1.856-3.982-2.776C89.188,186.708,88.246,186.076,87.309,185.438z"/>
	<path fill-rule="evenodd" clip-rule="evenodd" fill="#62ABE5" d="M123.746,176.696c-1.349,0.235-2.699,0.471-4.045,0.707
		c-4.551-1.026-9.161-1.865-13.621-3.206c-1.213-0.365-1.972-2.241-2.939-3.422c4.653-3.175,9.305-6.351,13.958-9.526
		c1.609-1.989,3.219-3.979,4.823-5.969c3.663,3.85,8.64,4.094,13.423,4.919c1.436,0.247,2.826,0.761,4.237,1.152
		c-1.861,2.084-3.593,4.304-5.612,6.222C130.66,170.717,127.164,173.666,123.746,176.696z"/>
	<path fill-rule="evenodd" clip-rule="evenodd" fill="#F8FAFD" d="M117.098,161.249c-4.653,3.176-9.305,6.352-13.958,9.526
		c-3.269,1.146-6.538,2.293-9.807,3.44c5.645-8.891,11.289-17.78,16.933-26.67C112.544,152.113,114.821,156.68,117.098,161.249z"/>
	<path fill-rule="evenodd" clip-rule="evenodd" fill="#A5D0F7" d="M87.309,185.438c0.938,0.638,1.879,1.27,2.812,1.914
		c1.331,0.92,2.655,1.851,3.983,2.776c-0.284,0.346-0.568,0.69-0.853,1.036c-6.687-1.325-13.374-2.649-20.061-3.975
		c0.393-0.711,0.785-1.422,1.178-2.133C78.682,185.184,82.995,185.311,87.309,185.438z"/>
	<path fill-rule="evenodd" clip-rule="evenodd" fill="#83501E" d="M214.234,183.218c-1.967-5.647-1.708-5.972,4.815-6.016
		c0.525,1.96,1.052,3.919,1.578,5.878C218.497,183.126,216.366,183.172,214.234,183.218z"/>
	<path fill-rule="evenodd" clip-rule="evenodd" fill="#83501E" d="M217.771,205.384c-0.154-0.731-0.31-1.464-0.464-2.195
		c0.638,0.004,1.275,0.008,1.912,0.013C218.737,203.929,218.255,204.657,217.771,205.384z"/>
	<path fill-rule="evenodd" clip-rule="evenodd" fill="#D7E6F4" d="M250.182,137.182c-0.333-0.006-0.665,0.003-0.997,0.026
		c0.341-1.01,0.682-2.019,1.021-3.028C250.198,135.18,250.19,136.181,250.182,137.182z"/>
	<path fill-rule="evenodd" clip-rule="evenodd" fill="#D7E6F4" d="M249.207,137.182c-0.013,0.662-0.026,1.324-0.04,1.985
		c-0.424-0.133-0.848-0.265-1.271-0.397C248.333,138.241,248.771,137.711,249.207,137.182z"/>
	<path fill-rule="evenodd" clip-rule="evenodd" fill="#90C5F2" d="M228.187,175.209c0.01,0.322,0.009,0.646-0.005,0.968
		C228.184,175.854,228.185,175.532,228.187,175.209z"/>
	<path fill-rule="evenodd" clip-rule="evenodd" fill="#90C5F2" d="M38.2,177.269c6.332,1.31,12.664,2.618,18.995,3.928
		c-0.026,0.684-0.053,1.367-0.08,2.051c-5.371-1.309-10.76-2.55-16.097-3.984C39.975,178.983,39.134,177.954,38.2,177.269z"/>
	<path fill-rule="evenodd" clip-rule="evenodd" fill="#FDFDFD" d="M204.463,68.166c-0.448,2.004-0.896,4.008-1.344,6.012
		c-0.322,0.339-0.646,0.678-0.968,1.017c-6.992-0.665-13.986-1.331-20.98-1.996c0.027-0.991,0.055-1.982,0.083-2.974
		c0.366-1.646,0.733-3.29,1.101-4.935c1.018-4.026,2.035-8.053,3.053-12.079c0.926-1.016,1.85-2.031,2.775-3.047
		c6.984,0.682,13.969,1.363,20.952,2.045c-0.631,1.346-1.261,2.691-1.891,4.037C206.317,60.219,205.39,64.192,204.463,68.166z"/>
	<path fill-rule="evenodd" clip-rule="evenodd" fill="#E9E9E9" d="M147.144,280.125c1.005-0.654,2.01-1.31,3.015-1.964
		c0,0.337,0.001,0.674,0.002,1.011C149.155,279.491,148.149,279.808,147.144,280.125z"/>
	<path fill-rule="evenodd" clip-rule="evenodd" fill="#74BFF7" d="M185.407,53.21c-1.018,4.026-2.035,8.053-3.053,12.078
		c-2.903-0.395-5.828-0.671-8.7-1.219c-2.365-0.45-5.097-0.642-5.448-3.965c0.727-3.036,1.453-6.073,2.18-9.111
		C175.394,51.731,180.4,52.47,185.407,53.21z"/>
	<path fill-rule="evenodd" clip-rule="evenodd" fill="#9A5E22" d="M145.144,209.454c-2.652-0.698-5.305-1.396-7.958-2.095
		c-2.657-0.776-5.314-1.554-7.971-2.33c0.55-2.781,1.099-5.563,1.647-8.346c5.155,1.262,10.31,2.522,15.465,3.783
		c6.325,1.791,12.65,3.582,18.978,5.374c0.306,0.18,0.608,0.357,0.912,0.536c-0.986,2.542-1.973,5.085-2.959,7.628
		c-4.35-0.949-8.699-1.898-13.047-2.848C148.522,210.589,146.833,210.021,145.144,209.454z"/>
	<path fill-rule="evenodd" clip-rule="evenodd" fill="#BFDEFD" d="M217.185,93.171c-1.962,5.026-3.924,10.053-5.886,15.078
		c-6.044-0.688-12.086-1.375-18.128-2.062c1.337-4.664,2.674-9.328,4.011-13.993c0.62-1.01,1.239-2.021,1.858-3.031
		c6.018,0.996,12.035,1.992,18.054,2.988C217.124,92.492,217.153,92.832,217.185,93.171z"/>
	<path fill-rule="evenodd" clip-rule="evenodd" fill="#9BCBF5" d="M202.151,75.194c0.322-0.339,0.646-0.678,0.968-1.017
		c5.993,0.662,11.988,1.324,17.982,1.986c-0.594,2.035-1.188,4.069-1.782,6.104c-5.979-1.039-11.956-2.076-17.936-3.113
		C201.639,77.834,201.896,76.514,202.151,75.194z"/>
	<path fill-rule="evenodd" clip-rule="evenodd" fill="#AED5F9" d="M201.386,79.154c5.978,1.038,11.955,2.075,17.934,3.114
		c-0.379,1.642-0.761,3.283-1.142,4.924c-6.023-0.668-12.047-1.337-18.07-2.005C200.533,83.176,200.96,81.165,201.386,79.154z"/>
	<path fill-rule="evenodd" clip-rule="evenodd" fill="#B9DAFC" d="M200.107,85.187c6.023,0.668,12.047,1.337,18.07,2.005
		c-0.36,1.653-0.722,3.308-1.083,4.96c-6.02-0.996-12.037-1.992-18.053-2.987C199.398,87.838,199.753,86.512,200.107,85.187z"/>
	<path fill-rule="evenodd" clip-rule="evenodd" fill="#459BDE" d="M146.328,200.466c-5.155-1.261-10.31-2.521-15.461-3.779
		c-1.251-0.091-2.507-0.185-3.762-0.278c-3.941-1.05-7.884-2.099-11.827-3.146c9.464-0.571,17.629-4.773,25.717-9.194
		c5.963,0.719,11.955,1.262,17.875,2.238c2.49,0.412,4.829,1.741,7.236,2.653C159.514,192.794,152.921,196.63,146.328,200.466z"/>
	<path fill-rule="evenodd" clip-rule="evenodd" fill="#62ABE5" d="M166.106,188.959c-2.407-0.912-4.746-2.241-7.236-2.653
		c-5.92-0.977-11.911-1.52-17.875-2.238c1.434-1.279,2.87-2.558,4.304-3.836c3.291-2.683,6.583-5.364,9.874-8.046
		c7.854,1.047,15.708,2.095,23.562,3.143c-2.408,3.181-4.814,6.362-7.227,9.542C169.706,186.233,167.906,187.596,166.106,188.959z"
		/>
	<path fill-rule="evenodd" clip-rule="evenodd" fill="#B9DAFC" d="M193.171,106.188c6.042,0.687,12.084,1.374,18.128,2.062
		c-0.038,1.315-0.079,2.63-0.118,3.945c-1.282,2.682-2.564,5.362-3.848,8.044c-6.367-0.678-12.733-1.355-19.1-2.032
		c0.996-3.002,1.994-6.004,2.99-9.005C191.872,108.197,192.521,107.193,193.171,106.188z"/>
	<path fill-rule="evenodd" clip-rule="evenodd" fill="#AED5F9" d="M188.233,118.207c6.366,0.677,12.732,1.354,19.1,2.032
		c-1.051,3.638-2.104,7.275-3.156,10.913c-0.313,0.028-0.628,0.048-0.943,0.057c-2.244-0.339-4.492-0.658-6.732-1.019
		c-4.105-0.66-8.208-1.345-12.312-2.019c-0.019-0.328-0.046-0.655-0.081-0.982C185.483,124.195,186.858,121.201,188.233,118.207z"/>
	<path fill-rule="evenodd" clip-rule="evenodd" fill="#90C5F2" d="M195.162,149.183c-2.62,4.685-5.241,9.369-7.862,14.054
		c-7.389-1.024-14.777-2.049-22.164-3.073c3.294-4.684,6.588-9.368,9.882-14.053C181.732,147.135,188.447,148.159,195.162,149.183z"
		/>
	<path fill-rule="evenodd" clip-rule="evenodd" fill="#7BBAED" d="M165.135,160.164c7.388,1.024,14.776,2.049,22.165,3.073
		c-1.449,2.632-2.899,5.263-4.352,7.894c-1.408,1.399-2.815,2.799-4.218,4.198c-7.849-1.048-15.702-2.096-23.556-3.143
		c2.684-3.327,5.367-6.654,8.051-9.981C163.862,161.525,164.498,160.844,165.135,160.164z"/>
	<path fill-rule="evenodd" clip-rule="evenodd" fill="#9BCBF5" d="M195.162,149.183c-6.715-1.024-13.43-2.048-20.144-3.071
		c0.348-0.976,0.693-1.952,1.039-2.929c1.353-2.063,2.705-4.127,4.057-6.19c6.398,1.073,12.798,2.147,19.196,3.221
		c-1.063,2.944-2.126,5.889-3.19,8.831C195.802,149.098,195.482,149.145,195.162,149.183z"/>
	<path fill-rule="evenodd" clip-rule="evenodd" fill="#A5D0F7" d="M199.311,140.213c-6.398-1.073-12.798-2.147-19.196-3.219
		c1.359-2.939,2.717-5.881,4.075-8.823c4.104,0.674,8.206,1.358,12.312,2.019c2.24,0.36,4.488,0.68,6.732,1.019
		C201.926,134.21,200.618,137.212,199.311,140.213z"/>
	<path fill-rule="evenodd" clip-rule="evenodd" fill="#6D4518" d="M116.146,139.184c2.102,5.084,4.204,10.167,6.308,15.248
		c-0.174,0.281-0.351,0.565-0.527,0.849c-1.609,1.989-3.219,3.979-4.828,5.968c-2.278-4.568-4.555-9.136-6.832-13.703
		C112.227,144.758,114.187,141.971,116.146,139.184z"/>
	<path fill-rule="evenodd" clip-rule="evenodd" fill="#90C5F2" d="M166.354,69.174c0.271-2.571,0.541-5.144,0.813-7.719
		c0.348-0.451,0.693-0.9,1.039-1.35c0.352,3.322,3.083,3.514,5.448,3.964c2.872,0.548,5.797,0.824,8.7,1.219
		c-0.367,1.646-0.734,3.29-1.102,4.935C176.286,69.874,171.321,69.524,166.354,69.174z"/>
	<path fill-rule="evenodd" clip-rule="evenodd" fill="#7BBAED" d="M125.8,203.479c-5.863-1.76-11.727-3.52-17.59-5.278
		c0.634-0.675,1.268-1.349,1.901-2.022c0.146-0.251,0.267-0.514,0.36-0.788c5.49,0.944,10.98,1.889,16.47,2.832
		C126.561,199.974,126.181,201.727,125.8,203.479z"/>
	<path fill-rule="evenodd" clip-rule="evenodd" fill="#DFEAF6" d="M110.111,196.178c-0.634,0.674-1.268,1.348-1.901,2.022
		c-5.042-1.024-10.084-2.049-15.126-3.072c0.096-0.654,0.191-1.308,0.287-1.961C98.95,194.171,104.531,195.174,110.111,196.178z"/>
	<path fill-rule="evenodd" clip-rule="evenodd" fill="#E5A766" d="M125.8,203.479c0.38-1.752,0.761-3.505,1.142-5.257
		c0.054-0.605,0.108-1.209,0.162-1.813c1.255,0.093,2.511,0.187,3.763,0.277c-0.553,2.778-1.102,5.561-1.652,8.342
		C128.076,204.512,126.938,203.996,125.8,203.479z"/>
	<path fill-rule="evenodd" clip-rule="evenodd" fill="#EFF4FA" d="M110.111,196.178c-5.581-1.004-11.161-2.007-16.741-3.011
		c-0.04-0.667-0.08-1.335-0.12-2.003c0.285-0.346,0.569-0.69,0.853-1.036c4.39,0.702,8.78,1.404,13.169,2.105
		c0.955,0.307,1.911,0.613,2.867,0.921c0.31,0.053,0.622,0.087,0.937,0.104c-0.201,0.711-0.403,1.421-0.605,2.132
		C110.378,195.665,110.258,195.927,110.111,196.178z"/>
	<path fill-rule="evenodd" clip-rule="evenodd" fill="#DFEAF6" d="M163.226,162.206c-2.684,3.326-5.367,6.653-8.051,9.98
		c-3.292,2.682-6.584,5.363-9.875,8.046c-6.363-0.693-12.731-1.343-19.082-2.132c-0.867-0.108-1.646-0.914-2.469-1.4
		c3.415-3.034,6.911-5.982,10.221-9.127c2.019-1.918,3.751-4.138,5.609-6.224c0.761-0.424,1.524-0.848,2.291-1.27
		C148.99,160.789,156.108,161.497,163.226,162.206z"/>
	<path fill-rule="evenodd" clip-rule="evenodd" fill="#AED5F9" d="M110.472,195.39c0.202-0.711,0.404-1.421,0.605-2.132
		c1.4,0.002,2.801,0.002,4.202,0.003c3.942,1.049,7.885,2.098,11.827,3.147c-0.055,0.604-0.109,1.208-0.163,1.813
		C121.452,197.279,115.962,196.334,110.472,195.39z"/>
	<path fill-rule="evenodd" clip-rule="evenodd" fill="#AED5F9" d="M110.14,193.155c-0.956-0.308-1.912-0.614-2.867-0.921
		C108.229,192.542,109.184,192.848,110.14,193.155z"/>
	<path fill-rule="evenodd" clip-rule="evenodd" fill="#7BBAED" d="M141.867,160.079c-0.764,0.423-1.527,0.847-2.288,1.271
		c-1.408-0.39-2.798-0.903-4.234-1.15c-4.783-0.825-9.76-1.069-13.423-4.919c0.182-0.282,0.358-0.566,0.533-0.848
		c2.523-1.861,5.232-3.526,7.521-5.646c2.25-2.083,4.073-4.627,6.084-6.967c2.298,1.126,4.533,2.413,6.91,3.33
		c2.381,0.918,4.905,1.467,7.367,2.179C147.513,151.579,144.69,155.829,141.867,160.079z"/>
	<path fill-rule="evenodd" clip-rule="evenodd" fill="#F8FAFD" d="M200.107,85.187c-0.354,1.325-0.709,2.651-1.065,3.978
		c-0.621,1.01-1.24,2.021-1.86,3.03c-6.985-0.666-13.97-1.333-20.956-2c0.358-1.985,0.717-3.971,1.075-5.956
		c0.608-1.689,1.216-3.379,1.823-5.068c0.359-1.656,0.72-3.313,1.079-4.97c0.323-0.334,0.646-0.669,0.968-1.003
		c6.994,0.665,13.988,1.331,20.98,1.996c-0.256,1.32-0.513,2.641-0.768,3.961C200.96,81.165,200.533,83.176,200.107,85.187z"/>
	<path fill-rule="evenodd" clip-rule="evenodd" fill="#9BCBF5" d="M181.171,73.198c-0.322,0.334-0.645,0.669-0.968,1.003
		c-4.954-0.341-9.909-0.682-14.863-1.021c0.338-1.335,0.675-2.67,1.015-4.004c4.967,0.349,9.932,0.698,14.898,1.048
		C181.226,71.215,181.198,72.207,181.171,73.198z"/>
	<path fill-rule="evenodd" clip-rule="evenodd" fill="#F4F7FB" d="M176.226,90.195c6.986,0.667,13.971,1.334,20.956,2
		c-1.337,4.665-2.674,9.329-4.011,13.993c-0.649,1.005-1.299,2.009-1.947,3.014c-3.098-0.002-6.257,0.385-9.274-0.105
		c-3.653-0.593-7.188-1.926-10.772-2.938c0.322-1.65,0.644-3.301,0.965-4.951C173.503,97.536,174.864,93.865,176.226,90.195z"/>
	<path fill-rule="evenodd" clip-rule="evenodd" fill="#EFF4FA" d="M171.176,106.157c3.586,1.014,7.12,2.347,10.773,2.939
		c3.018,0.49,6.177,0.104,9.274,0.105c-0.996,3.001-1.994,6.003-2.99,9.005c-1.375,2.994-2.75,5.988-4.125,8.982
		c-1.801,0.002-3.807,0.522-5.369-0.091c-4.725-1.854-10.785,1.306-14.549-3.915c0.016-0.646,0.033-1.291,0.049-1.937
		c1.354-3.34,2.707-6.68,4.061-10.021C169.259,109.537,170.218,107.847,171.176,106.157z"/>
	<path fill-rule="evenodd" clip-rule="evenodd" fill="#EAF2F9" d="M164.19,123.182c3.764,5.222,9.824,2.062,14.549,3.916
		c1.563,0.613,3.568,0.093,5.369,0.091c0.035,0.327,0.063,0.654,0.081,0.982c-1.358,2.942-2.716,5.884-4.075,8.823
		c-1.352,2.062-2.704,4.125-4.055,6.188c-6.99-0.669-13.98-1.338-20.971-2.008c0.393-1.321,0.785-2.644,1.177-3.966
		c1.635-3.005,3.269-6.01,4.903-9.016C162.177,126.524,163.184,124.853,164.19,123.182z"/>
	<path fill-rule="evenodd" clip-rule="evenodd" fill="#E5EEF7" d="M155.089,141.175c6.99,0.67,13.98,1.339,20.971,2.008
		c-0.348,0.977-0.693,1.953-1.041,2.929c-3.295,4.684-6.589,9.368-9.883,14.052c-0.638,0.681-1.273,1.361-1.91,2.041
		c-7.117-0.708-14.236-1.416-21.356-2.125c2.82-4.251,5.644-8.501,8.465-12.752C151.919,145.276,153.504,143.226,155.089,141.175z"
		/>
	<path fill-rule="evenodd" clip-rule="evenodd" fill="#BFDEFD" d="M176.226,90.195c-1.361,3.67-2.723,7.341-4.083,11.012
		c-4.665-0.676-9.331-1.352-13.997-2.026c1.374-5,2.748-9.999,4.121-14.999c5.023-3.378,10.025-0.601,15.034,0.058
		C176.942,86.224,176.584,88.209,176.226,90.195z"/>
	<path fill-rule="evenodd" clip-rule="evenodd" fill="#90C5F2" d="M155.089,141.175c-1.585,2.051-3.17,4.101-4.754,6.152
		c-2.46-0.711-4.984-1.26-7.366-2.178c-2.377-0.917-4.612-2.204-6.91-3.33c2.014-2.957,4.028-5.911,6.043-8.864
		c1.167,0.749,2.243,1.857,3.517,2.174c3.505,0.871,7.092,1.41,10.647,2.08C155.874,138.532,155.481,139.854,155.089,141.175z"/>
	<path fill-rule="evenodd" clip-rule="evenodd" fill="#9BCBF5" d="M156.266,137.209c-3.555-0.67-7.142-1.209-10.647-2.08
		c-1.273-0.316-2.35-1.425-3.517-2.174c1.72-3.242,3.44-6.482,5.16-9.723c1.887,1.305,3.612,3.093,5.702,3.793
		c2.576,0.863,5.457,0.82,8.205,1.168C159.534,131.2,157.9,134.205,156.266,137.209z"/>
	<path fill-rule="evenodd" clip-rule="evenodd" fill="#B9DAFC" d="M158.146,99.18c4.666,0.675,9.332,1.351,13.997,2.026
		c-0.322,1.65-0.644,3.301-0.966,4.951c-0.959,1.689-1.918,3.379-2.878,5.068c-4.419-1.105-8.837-2.212-13.256-3.317
		C156.077,105,157.111,102.089,158.146,99.18z"/>
	<path fill-rule="evenodd" clip-rule="evenodd" fill="#AED5F9" d="M155.043,107.909c4.419,1.105,8.837,2.212,13.256,3.317
		c-1.353,3.341-2.706,6.681-4.06,10.021c-2.326-0.682-4.658-1.945-6.973-1.915c-3.999,0.055-5.472-1.572-5.137-5.326
		C153.101,111.973,154.072,109.941,155.043,107.909z"/>
	<path fill-rule="evenodd" clip-rule="evenodd" fill="#A5D0F7" d="M152.13,114.005c-0.335,3.754,1.138,5.381,5.137,5.326
		c2.314-0.03,4.646,1.233,6.973,1.915c-0.016,0.646-0.033,1.291-0.049,1.937c-1.007,1.67-2.014,3.341-3.021,5.011
		c-2.748-0.348-5.629-0.305-8.205-1.168c-2.09-0.7-3.815-2.488-5.702-3.793C148.885,120.158,150.507,117.082,152.13,114.005z"/>
	<path fill-rule="evenodd" clip-rule="evenodd" fill="#B9DAFC" d="M177.301,84.239c-5.009-0.658-10.011-3.436-15.034-0.058
		c0.344-1.349,0.688-2.697,1.029-4.046c0.291-0.329,0.582-0.66,0.873-0.99l-0.035,0.034c1.564-0.42,3.146-1.245,4.689-1.177
		c3.444,0.153,6.869,0.751,10.301,1.168C178.517,80.86,177.909,82.549,177.301,84.239z"/>
	<path fill-rule="evenodd" clip-rule="evenodd" fill="#A5D0F7" d="M179.124,79.17c-3.432-0.417-6.856-1.015-10.301-1.168
		c-1.543-0.068-3.125,0.757-4.689,1.177c0.402-2,0.803-4,1.205-6c4.955,0.34,9.91,0.681,14.864,1.021
		C179.844,75.857,179.483,77.514,179.124,79.17z"/>
	<path fill-rule="evenodd" clip-rule="evenodd" fill="#A5D0F7" d="M164.169,79.145c-0.291,0.33-0.582,0.661-0.873,0.99
		C163.587,79.805,163.878,79.475,164.169,79.145z"/>
</g>
</svg>
