<?xml version="1.0" encoding="utf-8"?>
<!-- Generator: Adobe Illustrator 16.0.0, SVG Export Plug-In . SVG Version: 6.00 Build 0)  -->
<!DOCTYPE svg PUBLIC "-//W3C//DTD SVG 1.1//EN" "http://www.w3.org/Graphics/SVG/1.1/DTD/svg11.dtd">
<svg version="1.1" id="Calque_1" xmlns="http://www.w3.org/2000/svg" xmlns:xlink="http://www.w3.org/1999/xlink" x="0px" y="0px"
	 width="399.946px" height="451.946px" viewBox="0 0 399.946 451.946" enable-background="new 0 0 399.946 451.946"
	 xml:space="preserve">
<g>
	<path fill-rule="evenodd" clip-rule="evenodd" fill="#95BB51" d="M68.668,120.714c-1.233,0.646-2.465,1.292-3.698,1.938
		l0.072,0.079c2.339-6.106,3.956-12.627,7.165-18.236c7.203-12.591,14.402-25.329,23.116-36.863
		c7.139-9.45,16.611-16.836,27.513-22.44c13.685-7.036,27.632-7.34,41.954-3.897c8.627,2.073,15.532,7.459,21.677,13.73
		c1.174,1.198,2.087,2.652,3.695,4.731c1.613-6.079,2.676-10.93,4.193-15.634c3.836-11.884,11.188-21.259,20.906-28.989
		c6.976-5.55,14.933-8.51,23.363-11.191c9.896-3.148,19.735-3.249,29.448-1.379c15.763,3.034,30.829,8.579,44.983,16.251
		c5.014,2.717,9.617,6.189,15.248,9.866c-2.07,0.491-3.026,0.717-3.982,0.941c-1.627-1.011-3.136-2.548-4.901-2.947
		c-14.529-3.278-29.229-5.104-44.054-2.576c-12.302,2.099-23.679,6.747-33.652,14.424c-12.175,9.372-22.245,20.428-27.667,35.13
		c-8.481,2.799-12.877,9.109-14.525,18.202c-6.037-3.223-10.12-0.154-14.178,3.003c-0.613-1.196-0.913-2.92-1.891-3.501
		c-6.034-3.583-11.91-7.767-18.425-10.128c-11.522-4.177-23.672-5.135-35.813-2.875c-5.694,1.06-11.604,2.201-16.758,4.674
		c-11.754,5.641-22.962,12.367-31.639,22.421C76.573,110.367,72.707,115.615,68.668,120.714z M190.908,71.765
		c-0.307-0.309-0.614-0.618-0.921-0.928c-2.616-6.611-8.679-9.963-14.214-12.874c-21.627-11.369-51.952-5.75-70.332,9.546
		c-2.373,1.975-4.145,4.671-6.196,7.033c-0.838,0.579-1.678,1.157-2.516,1.737c0.998,0.422,1.384,0.2,1.622-0.13
		c0.355-0.494,0.606-1.062,0.901-1.599c1.079-0.535,2.17-1.045,3.233-1.608c9.378-4.966,18.589-10.293,28.203-14.749
		c4.031-1.869,8.88-2.297,13.417-2.682c10.304-0.875,20.482-0.485,29.656,5.311c5.372,3.394,10.805,6.689,16.211,10.029
		c0.309,0.307,0.618,0.614,0.928,0.921c0.309,0.307,0.618,0.616,0.928,0.924c0.31,0.308,0.619,0.616,0.929,0.923
		c0.31,0.308,0.619,0.615,0.929,0.924c0.129,0.07,0.259,0.142,0.389,0.213c-0.132-0.069-0.264-0.138-0.395-0.207
		c-0.309-0.309-0.616-0.62-0.924-0.929c-0.308-0.31-0.616-0.619-0.924-0.928C191.523,72.383,191.216,72.074,190.908,71.765z
		 M204.576,52.578c4.642-10.403,11.197-19.301,20.059-26.317c14.736-11.668,31.786-14.403,49.946-12.203
		c6.389,0.774,12.74,1.863,19.658,2.891C259.357-3.468,212.006,18.128,204.576,52.578z M296.709,17.505
		c-0.133-0.046-0.268-0.124-0.398-0.119c-0.045,0.001-0.082,0.209-0.124,0.323c0.134,0.046,0.267,0.124,0.398,0.12
		C296.63,17.828,296.668,17.619,296.709,17.505z M203.327,55.466c0.087-0.281,0.142-0.457,0.195-0.632
		c-0.116,0.033-0.232,0.067-0.349,0.1C203.213,55.069,203.252,55.204,203.327,55.466z"/>
	<path fill-rule="evenodd" clip-rule="evenodd" fill="#A16A33" d="M226.616,132.849c17.965,21.996,30.846,46.744,40.17,73.488
		c13.37,38.346,20.671,77.925,23.167,118.313c1.644,26.585,1.696,53.269,2.372,79.912c0.105,4.147-0.271,8.308-0.423,12.461
		c-0.333,5.765-0.665,11.529-0.998,17.313c-11.188,0-21.614,0-32.395,0c1.209-6.323,2.356-12.315,3.502-18.309
		c5.137-33.737,6.75-67.682,5.551-101.751c-1.319-37.486-6.294-74.457-17.519-110.357c-5.814-18.597-13.187-36.597-23.597-53.204
		c-2.595-4.139-5.135-8.313-7.699-12.471C221.371,136.446,223.994,134.647,226.616,132.849z"/>
	<path fill-rule="evenodd" clip-rule="evenodd" fill="#95BB51" d="M109.376,243.031c-0.326,1.953-0.652,3.907-0.978,5.859
		c-0.31,0.059-0.619,0.116-0.929,0.175c-1.782-6.369-3.866-12.672-5.284-19.12c-3.146-14.305-4.687-28.829-3.791-43.468
		c1.161-18.964,5.752-36.827,17.414-52.435c8.593-11.5,18.477-21.053,32.617-25.292c2.709-0.813,5.341-1.881,8.009-2.832
		c8.415-0.225,16.771,0.062,24.843,2.842c1.491,5.525,3.879,10.222,10.075,11.816c0.902,0.232,1.828,1.378,2.243,2.321
		c1.147,2.616,2.03,5.348,3.019,8.034c-7.235,7.184-11.856,15.933-15.176,25.446c-5.141,14.737-6.872,29.908-4.223,45.269
		c1.42,8.229,3.893,16.345,6.604,24.268c4.629,13.521,13.065,24.849,22.45,35.376c3.567,4.002,8.289,6.974,12.485,10.415
		c0.784,1.071,1.568,2.144,2.892,3.951c-10.337-3.347-18.126-9.27-25.941-15.028c-4.016-2.958-7.604-6.53-11.204-10.012
		c-14.983-14.487-24.839-31.703-27.946-52.553c-2.028-13.609-0.611-26.931,2.754-40.144c0.305-0.333,0.745-0.614,0.896-1.006
		c5.257-13.651,13.77-24.459,27.113-31.022c1.111-0.546,2.445-0.638,3.676-0.942c-0.642-0.749-1.283-1.5-1.925-2.25
		c-6.9,0.137-13.568,0.276-20.514,2.488c-10.792,3.438-20.07,8.751-28.265,16.352c-11.657,10.812-20.313,23.592-25.779,38.55
		c-7.052,19.293-7.474,39.341-6.849,59.502C107.698,240.754,108.781,241.885,109.376,243.031z M169.015,114.531
		c-10.49-1.492-20.474,2.403-29.861,6.965c-11.535,5.605-19.177,15.933-24.724,27.013c-4.677,9.342-7.272,19.773-10.295,29.871
		c-1.119,3.738-0.968,7.891-1.145,11.865c-0.177,3.986-0.039,7.987-0.039,13.076c0.958-1.446,1.321-1.784,1.418-2.185
		c0.214-0.887,0.371-1.801,0.417-2.712c0.87-17.531,4.688-34.33,13.159-49.8c6.223-11.365,14.868-20.888,26.537-26.509
		C152.157,118.417,160.909,116.948,169.015,114.531z M181.435,139.872c-10.802,9.246-20.738,31.299-14.693,63.833
		c2.16,11.628,13.123,35.555,19.594,37.948C166.994,208.403,159.071,174.847,181.435,139.872z"/>
	<path fill-rule="evenodd" clip-rule="evenodd" fill="#D7B593" d="M262.012,416.027c-1.146,5.993-2.293,11.985-3.502,18.309
		c10.78,0,21.206,0,32.395,0c0.333-5.784,0.665-11.549,0.998-17.313c5.501,0.314,11.003,0.63,16.504,0.945
		c0.057,8.446,3.938,16.521,14.896,19.361c-0.69,0.651-1.339,1.821-2.076,1.88c-16.644,1.34-33.285,3.362-49.952,3.626
		c-31.811,0.503-63.685,1.165-95.377-2.662c-9.918-1.197-19.764-3.155-29.539-5.254c-2.3-0.493-4.177-2.964-6.248-4.524
		c2.079-1.379,3.986-3.456,6.266-4.013c8.688-2.123,17.421-4.492,26.277-5.397c12.804-1.308,25.729-1.421,38.604-2.045
		c0.235,0.565,0.616,1.114,0.686,1.699c1.08,9.16,6.646,15.117,14.589,18.514c4.717,2.017,9.776,1.796,14.884-1.196
		c8.637-5.06,12.303-12.426,12.789-21.938C256.808,416.021,259.41,416.024,262.012,416.027z"/>
	<path fill-rule="evenodd" clip-rule="evenodd" fill="#AACC6B" d="M218.756,271.706c-4.196-3.441-8.918-6.413-12.485-10.415
		c-9.385-10.527-17.821-21.854-22.45-35.376c-2.712-7.922-5.185-16.039-6.604-24.268c-2.649-15.361-0.918-30.532,4.223-45.269
		c3.319-9.513,7.94-18.262,15.175-25.445c2.612,4.651,6.971,6.782,11.83,8.187c-0.856,3.115-1.48,6.32-2.656,9.308
		c-0.71,1.804-2.101,3.451-3.515,4.833c-1.212,1.183-2.891,1.889-5.849,3.732c7.917,1.732,6.667,6.147,5.623,10.644
		c-0.941,4.053-0.236,8.833-5.894,10.639c7.22,4.903,1.44,11.278,3.361,16.896c-1.92,0.392-3.342,0.682-5.165,1.054
		c5.923,11.167,10.794,22.263,3.138,34.873c9.695-1.565,7.343,6.583,9.288,10.958c0.556,1.249-1.679,3.738-2.777,5.945
		C213.84,252.086,214.407,263.091,218.756,271.706z"/>
	<path fill-rule="evenodd" clip-rule="evenodd" fill="#AACB6B" d="M109.376,243.031c-0.596-1.146-1.679-2.277-1.715-3.44
		c-0.625-20.161-0.203-40.208,6.849-59.502c5.467-14.958,14.123-27.738,25.779-38.55c8.195-7.601,17.473-12.915,28.265-16.352
		c6.946-2.211,13.614-2.351,20.514-2.488c0.642,0.75,1.283,1.501,1.925,2.25c-1.23,0.304-2.564,0.396-3.676,0.942
		c-13.343,6.563-21.856,17.371-27.113,31.022c-0.151,0.393-0.59,0.673-0.896,1.006c-0.766-0.05-1.531-0.131-2.297-0.132
		c-0.269,0-0.537,0.196-0.825,0.311c1.504,7.825-6.205,9.029-9.397,13.924c-1.536-1.468-2.692-2.575-4.255-4.069
		c-0.501,1.745-1.139,2.994-1.18,4.263c-0.265,8.287-5.997,13.856-10.092,20.186c-0.82,1.267-3.051,1.752-4.729,2.293
		c-1.532,0.494-3.195,0.575-6.037,1.04c9.104,7.281,0.593,12.462-0.381,18.878c-2.063-0.396-3.779-0.726-6.352-1.219
		C118.459,224.495,112.411,233.495,109.376,243.031z"/>
	<path fill-rule="evenodd" clip-rule="evenodd" fill="#AACB6B" d="M214.048,73.651c5.422-14.702,15.492-25.758,27.667-35.13
		c9.974-7.677,21.351-12.325,33.652-14.424c14.824-2.529,29.524-0.703,44.054,2.576c1.766,0.399,3.274,1.936,4.901,2.947
		c-5.504,1.383-10.945,3.301-16.534,3.953c-3.595,0.418-7.405-1.025-11.335-1.67c-0.82,2.186,2.057,6.368-3.226,7.235
		c-4.257,0.701-8.777,5.438-12.187-2.708c-4.228,14.301-14.73,18.326-27.513,19.717c3.845,4.188,2.076,6.843-1.625,9.075
		c-0.772,0.466-1.649,1.117-1.979,1.896c-1.663,3.918-4.288,4.334-8.831,1.405c3.287,6.56-0.529,9.832-3.542,13.501
		c-0.773,0.942-0.874,2.437-1.284,3.677l0.048-0.042c-0.489,0.319-0.979,0.638-1.469,0.958c-0.475,0.328-0.948,0.657-1.422,0.986
		C230.058,78.658,224.361,72.948,214.048,73.651z"/>
	<path fill-rule="evenodd" clip-rule="evenodd" fill="#AACC6B" d="M181.276,108.763c-8.07-2.782-16.427-3.068-24.841-2.843
		c-0.611-1.381-1.222-2.76-1.961-4.431c-4.872,6.868-10.563,1.299-15.903,2.291c-0.153-2.302-0.262-3.956-0.4-6.034
		c-10.309,6.142-20.478,10.812-31.152,1.682c-1.273,6.008-4.187,8.573-10.585,10.08c-4.708,1.107-2.745-3.999-5.498-5.082
		c-3.883,10.118-13.817,12.161-22.267,16.289c4.038-5.099,7.905-10.347,12.15-15.266c8.676-10.054,19.884-16.781,31.639-22.421
		c5.155-2.474,11.064-3.615,16.758-4.674c12.141-2.26,24.291-1.302,35.813,2.875c6.516,2.361,12.392,6.545,18.425,10.128
		c0.978,0.581,1.277,2.305,1.891,3.502C181.459,98.753,180.724,103.569,181.276,108.763z"/>
	<path fill-rule="evenodd" clip-rule="evenodd" fill="#95BB52" d="M233.425,87.604c0.474-0.329,0.947-0.658,1.422-0.986
		c0.489-0.32,0.979-0.639,1.469-0.958l-0.048,0.042c3.326-1.297,6.569-2.891,9.99-3.842c18.19-5.053,38.354,4.976,48.739,19.52
		c12.312,17.244,16.586,36.885,18.111,57.45c0.423,5.697,0.69,11.403,1.029,17.106c-0.394,0.06-0.788,0.12-1.182,0.181
		c-0.289-0.472-0.578-0.943-0.867-1.415c-3.139-14.379-9.182-27.513-17.749-39.382c-13.368-18.523-31.533-28.361-54.542-28.19
		c-3.408,0.025-6.799,2.404-10.197,3.693c0.047-1.685-0.565-3.845,0.251-4.972C233.917,100.243,235.037,94.234,233.425,87.604z
		 M308.176,146.024c-0.347-11.36-6.558-30.241-18.514-42.916c-10.764-11.412-22.991-16.746-36.393-14.611
		c4.736,1.299,11.415,2.891,17.937,4.974c11.957,3.819,19.776,12.657,25.077,23.342C301.271,126.865,304.818,137.63,308.176,146.024
		z"/>
	<path fill-rule="evenodd" clip-rule="evenodd" fill="#935923" d="M233.425,87.604c1.612,6.631,0.492,12.64-3.573,18.246
		c-0.816,1.126-0.204,3.287-0.25,4.971c1.832,5.854,1.15,11.594-0.781,17.278c-0.734,1.583-1.469,3.167-2.204,4.75
		c-2.622,1.798-5.245,3.598-7.868,5.396c-3.435,0.292-6.87,0.584-10.305,0.876c-4.859-1.405-9.218-3.536-11.83-8.187
		c-0.987-2.687-1.87-5.419-3.018-8.035c-0.415-0.943-1.341-2.088-2.243-2.321c-6.195-1.594-8.583-6.291-10.075-11.816
		c-0.554-5.193,0.182-10.009,4.067-13.905c4.058-3.158,8.141-6.228,14.178-3.004c1.648-9.093,6.044-15.402,14.525-18.202
		C224.361,72.948,230.058,78.658,233.425,87.604z M219.333,78.336c-6.003-0.207-8.91,2.05-8.988,5.399
		c-0.105,4.565,3.404,5.032,6.543,5.528c3.046,0.482,7.9-2.927,7.082-5.078C222.987,81.602,220.416,79.624,219.333,78.336z
		 M212.209,101.463c-4.404-0.304-7.057,1.102-7.306,4.774c-0.269,3.976,2.858,5.014,6.086,5.303
		c3.885,0.347,6.326-1.792,6.471-5.459C217.61,102.282,214.237,101.883,212.209,101.463z M193.953,105.068
		c1.713-1.582,3.425-3.162,5.138-4.743c-1.821-1.493-3.451-3.782-5.512-4.275c-2.509-0.601-5.411,0.42-5.399,4.019
		C188.189,103.235,190.266,104.258,193.953,105.068z"/>
	<path fill-rule="evenodd" clip-rule="evenodd" fill="#E4CDB3" d="M211.258,418.94c-12.875,0.624-25.801,0.737-38.604,2.045
		c-8.856,0.905-17.589,3.274-26.277,5.397c-2.279,0.557-4.187,2.634-6.266,4.013c2.071,1.561,3.948,4.031,6.248,4.524
		c9.775,2.099,19.621,4.057,29.539,5.254c31.692,3.827,63.566,3.165,95.377,2.662c16.667-0.264,33.309-2.286,49.952-3.626
		c0.737-0.059,1.386-1.229,2.076-1.88c3.389-0.587,6.776-1.174,10.165-1.761c2.55-0.479,5.218-0.648,7.605-1.555
		c1.4-0.532,2.355-2.237,3.512-3.415c-1.207-1.106-2.414-2.212-3.621-3.319c0.551-1.545,1.103-3.09,1.653-4.635
		c5.22,1.267,10.511,2.307,15.62,3.922c1.798,0.567,3.151,2.54,4.708,3.871c-1.474,1.409-2.732,3.641-4.456,4.089
		c-9.415,2.446-18.845,5.448-28.454,6.402c-19.705,1.955-39.616,1.944-59.279,4.176c-28.707,3.258-57.414,1.351-86.096,1.256
		c-17.812-0.058-35.622-2.6-53.418-4.192c-8.246-0.739-16.522-1.508-24.663-2.95c-5.799-1.028-11.444-3.062-17.046-4.974
		c-1.305-0.446-2.987-2.222-2.989-3.388c-0.003-1.231,1.581-3.211,2.843-3.574c6.17-1.776,12.464-3.123,18.714-4.622
		c5.698,11.234,13,13.319,21.111,10.837c7.397-2.264,10.536-8.403,11.973-15.564c16.724-0.84,33.444-1.755,50.173-2.483
		c6.621-0.288,13.26-0.159,19.891-0.22C211.251,416.468,211.254,417.704,211.258,418.94z"/>
	<path fill-rule="evenodd" clip-rule="evenodd" fill="#AACC6B" d="M228.82,128.099c1.932-5.685,2.613-11.424,0.781-17.278
		c3.397-1.289,6.788-3.667,10.196-3.692c23.009-0.171,41.174,9.667,54.542,28.19c8.567,11.87,14.61,25.003,17.749,39.382
		c-2.64-2.96-5.614-5.693-7.832-8.941c-2.495-3.656-4.309-7.777-6.693-12.206c-0.32,0.148-1.584,0.733-2.833,1.311
		c-7.581-5.188-7.581-5.188-7.005-11.356c-11.101,2.429-16.702-5.212-22.427-12.088c-1.156,1.048-2.688,3.245-3.466,3.004
		c-3.72-1.151-8.699-0.61-9.539-5.19c-3.747,0-7.07-0.218-10.354,0.052c-4.649,0.381-5.873-2.225-5.752-6.254
		C233.588,124.819,231.204,126.458,228.82,128.099z"/>
	<path fill-rule="evenodd" clip-rule="evenodd" fill="#945924" d="M211.258,418.94c-0.004-1.236-0.007-2.473-0.01-3.71
		c1.133-9.636,4.468-18.056,14.237-21.819c13.233-5.099,26.781,4.104,28.409,18.924c0.135,1.225,0.208,2.455,0.31,3.685
		c-0.485,9.512-4.151,16.878-12.788,21.938c-5.107,2.992-10.167,3.213-14.884,1.196c-7.942-3.396-13.509-9.354-14.589-18.514
		C211.874,420.055,211.493,419.506,211.258,418.94z M228.117,412.608c1.271-0.278,3.292-0.467,5.116-1.169
		c3.936-1.513,6.718-6.029,5.719-9.405c-1.238-4.184-4.9-3.376-8.046-3.451c-0.922-0.022-1.874-0.076-2.764,0.112
		c-4.947,1.054-8.029,4.966-7.611,9.508C220.942,412.668,224.37,412.229,228.117,412.608z"/>
	<path fill-rule="evenodd" clip-rule="evenodd" fill="#945A25" d="M141.185,417.934c-1.437,7.161-4.575,13.301-11.973,15.564
		c-8.111,2.482-15.413,0.397-21.111-10.837c-1.3-5.626-1.865-11.312,0.795-16.645c4.507-9.033,13.37-13.617,21.798-9.195
		c7.336,3.851,11.065,10.657,10.609,19.284C141.271,416.716,141.225,417.324,141.185,417.934z M115.555,413.354
		c7.033,0.146,11.391-3.538,11.49-8.167c0.059-2.743-1.108-3.839-3.845-3.866c-4.49-0.045-10.02,4.265-9.889,8.446
		C113.358,411.244,115.098,412.67,115.555,413.354z"/>
	<path fill-rule="evenodd" clip-rule="evenodd" fill="#945A24" d="M333.468,435.569c-3.389,0.587-6.776,1.174-10.165,1.761
		c-10.959-2.84-14.84-10.915-14.896-19.361c0.915-15.404,13.867-23.639,25.983-16.443c5.32,3.16,7.42,8.382,8.173,14.202
		c0.294,2.271,0.053,4.61,0.055,6.918c-0.551,1.545-1.103,3.09-1.653,4.635C338.465,430.044,335.967,432.807,333.468,435.569z
		 M327.203,404.129c-4.398,0.015-6.425,2.129-4.429,5.604c1.716,2.987,4.884,5.937,8.066,7.087c4.159,1.503,7.147-2.224,5.106-6.142
		C334.207,407.335,332.026,403.508,327.203,404.129z"/>
	<path fill-rule="evenodd" clip-rule="evenodd" fill="#95BB51" d="M64.97,122.652c-0.043,0.115-0.066,0.245-0.138,0.338
		c-0.036,0.045-0.161,0.02-0.245,0.027c0.151-0.095,0.303-0.191,0.455-0.286L64.97,122.652z"/>
	<path fill-rule="evenodd" clip-rule="evenodd" fill="#80A63E" d="M204.576,52.578c7.43-34.45,54.781-56.046,89.663-35.629
		c-6.918-1.027-13.27-2.117-19.658-2.891c-18.16-2.201-35.21,0.534-49.946,12.203C215.773,33.276,209.218,42.174,204.576,52.578z"/>
	<path fill-rule="evenodd" clip-rule="evenodd" fill="#80A63E" d="M99.246,74.542c2.051-2.361,3.823-5.058,6.196-7.032
		c18.379-15.296,48.705-20.916,70.332-9.546c5.535,2.911,11.598,6.262,14.214,12.874l-0.015,0.015
		c-5.406-3.34-10.839-6.635-16.211-10.029c-9.174-5.796-19.352-6.185-29.656-5.311c-4.537,0.385-9.385,0.813-13.417,2.682
		c-9.614,4.455-18.825,9.782-28.203,14.749c-1.063,0.563-2.155,1.074-3.233,1.608L99.246,74.542z"/>
	<path fill-rule="evenodd" clip-rule="evenodd" fill="#80A63E" d="M99.253,74.55c-0.295,0.537-0.546,1.105-0.901,1.599
		c-0.237,0.33-0.624,0.553-1.622,0.13c0.838-0.58,1.678-1.158,2.516-1.737C99.246,74.542,99.253,74.55,99.253,74.55z"/>
	<path fill-rule="evenodd" clip-rule="evenodd" fill="#80A63E" d="M296.709,17.505c-0.041,0.114-0.079,0.323-0.124,0.324
		c-0.132,0.004-0.265-0.073-0.398-0.12c0.042-0.114,0.079-0.322,0.124-0.323C296.441,17.381,296.576,17.459,296.709,17.505z"/>
	<path fill-rule="evenodd" clip-rule="evenodd" fill="#80A63E" d="M203.327,55.466c-0.075-0.262-0.114-0.397-0.153-0.532
		c0.116-0.033,0.232-0.067,0.349-0.1C203.469,55.01,203.414,55.185,203.327,55.466z"/>
	<path fill-rule="evenodd" clip-rule="evenodd" fill="#80A63E" d="M193.68,74.55c0.131,0.069,0.263,0.138,0.395,0.207
		c-0.13-0.072-0.26-0.143-0.389-0.213L193.68,74.55z"/>
	<path fill-rule="evenodd" clip-rule="evenodd" fill="#80A63E" d="M193.686,74.544c-0.31-0.309-0.619-0.616-0.929-0.924
		l-0.001,0.001c0.308,0.309,0.615,0.62,0.924,0.929L193.686,74.544z"/>
	<path fill-rule="evenodd" clip-rule="evenodd" fill="#80A63E" d="M191.832,72.693c0.308,0.309,0.616,0.618,0.924,0.928l0.001-0.001
		c-0.31-0.308-0.619-0.616-0.929-0.923L191.832,72.693z"/>
	<path fill-rule="evenodd" clip-rule="evenodd" fill="#80A63E" d="M190.908,71.765c0.308,0.309,0.615,0.618,0.924,0.929
		l-0.004,0.003c-0.31-0.308-0.619-0.617-0.928-0.924L190.908,71.765z"/>
	<path fill-rule="evenodd" clip-rule="evenodd" fill="#80A63E" d="M189.987,70.837c0.307,0.31,0.614,0.619,0.921,0.928l-0.008,0.008
		c-0.31-0.308-0.619-0.615-0.928-0.921L189.987,70.837z"/>
	<path fill-rule="evenodd" clip-rule="evenodd" fill="#81A63F" d="M169.015,114.531c-8.106,2.417-16.857,3.886-24.534,7.583
		c-11.668,5.622-20.314,15.145-26.537,26.509c-8.471,15.471-12.289,32.269-13.159,49.8c-0.045,0.911-0.202,1.825-0.417,2.712
		c-0.097,0.401-0.461,0.739-1.418,2.185c0-5.089-0.138-9.09,0.039-13.076c0.176-3.974,0.025-8.127,1.145-11.865
		c3.023-10.098,5.618-20.529,10.295-29.871c5.547-11.08,13.189-21.408,24.724-27.013
		C148.541,116.934,158.525,113.039,169.015,114.531z"/>
	<path fill-rule="evenodd" clip-rule="evenodd" fill="#80A63E" d="M181.435,139.872c-22.364,34.975-14.441,68.532,4.901,101.781
		c-6.471-2.394-17.434-26.32-19.594-37.948C160.697,171.171,170.633,149.117,181.435,139.872z"/>
	<path fill-rule="evenodd" clip-rule="evenodd" fill="#FEFEFE" d="M236.315,85.659c-0.489,0.319-0.979,0.638-1.469,0.958
		C235.336,86.297,235.826,85.978,236.315,85.659z"/>
	<path fill-rule="evenodd" clip-rule="evenodd" fill="#81A73F" d="M308.176,146.024c-3.357-8.394-6.905-19.159-11.893-29.21
		c-5.301-10.686-13.12-19.523-25.077-23.342c-6.521-2.083-13.2-3.675-17.937-4.974c13.401-2.135,25.629,3.199,36.393,14.611
		C301.618,115.783,307.829,134.664,308.176,146.024z"/>
	<path fill-rule="evenodd" clip-rule="evenodd" fill="#9F672F" d="M219.333,78.336c1.083,1.288,3.654,3.266,4.637,5.849
		c0.818,2.151-4.036,5.56-7.082,5.078c-3.139-0.496-6.648-0.963-6.543-5.528C210.423,80.386,213.33,78.129,219.333,78.336z"/>
	<path fill-rule="evenodd" clip-rule="evenodd" fill="#9F672F" d="M212.209,101.463c2.028,0.42,5.401,0.819,5.251,4.619
		c-0.145,3.667-2.586,5.806-6.471,5.459c-3.228-0.289-6.354-1.327-6.086-5.303C205.152,102.565,207.805,101.159,212.209,101.463z"/>
	<path fill-rule="evenodd" clip-rule="evenodd" fill="#9F672F" d="M193.953,105.068c-3.688-0.81-5.764-1.833-5.773-5
		c-0.012-3.598,2.891-4.62,5.399-4.019c2.061,0.494,3.69,2.783,5.512,4.275C197.378,101.907,195.666,103.487,193.953,105.068z"/>
	<path fill-rule="evenodd" clip-rule="evenodd" fill="#D5B28F" d="M333.468,435.569c2.499-2.763,4.997-5.525,7.496-8.289
		c1.207,1.107,2.414,2.213,3.621,3.319c-1.156,1.178-2.111,2.883-3.512,3.415C338.686,434.921,336.018,435.09,333.468,435.569z"/>
	<path fill-rule="evenodd" clip-rule="evenodd" fill="#9F6730" d="M228.117,412.608c-3.747-0.379-7.175,0.06-7.586-4.405
		c-0.418-4.542,2.664-8.454,7.611-9.508c0.89-0.188,1.842-0.135,2.764-0.112c3.146,0.075,6.808-0.732,8.046,3.451
		c0.999,3.376-1.783,7.893-5.719,9.405C231.409,412.142,229.389,412.33,228.117,412.608z"/>
	<path fill-rule="evenodd" clip-rule="evenodd" fill="#9F6730" d="M115.555,413.354c-0.458-0.685-2.197-2.11-2.244-3.587
		c-0.13-4.182,5.399-8.491,9.889-8.446c2.737,0.027,3.904,1.123,3.845,3.866C126.946,409.816,122.588,413.501,115.555,413.354z"/>
	<path fill-rule="evenodd" clip-rule="evenodd" fill="#9F672F" d="M327.203,404.129c4.823-0.621,7.004,3.206,8.744,6.55
		c2.041,3.918-0.947,7.645-5.106,6.142c-3.183-1.15-6.351-4.1-8.066-7.087C320.778,406.258,322.805,404.144,327.203,404.129z"/>
</g>
</svg>
