<?xml version="1.0" encoding="utf-8"?>
<!-- Generator: Adobe Illustrator 16.0.0, SVG Export Plug-In . SVG Version: 6.00 Build 0)  -->
<!DOCTYPE svg PUBLIC "-//W3C//DTD SVG 1.1//EN" "http://www.w3.org/Graphics/SVG/1.1/DTD/svg11.dtd">
<svg version="1.1" id="Calque_1" xmlns="http://www.w3.org/2000/svg" xmlns:xlink="http://www.w3.org/1999/xlink" x="0px" y="0px"
	 width="406px" height="500px" viewBox="0 0 406 500" enable-background="new 0 0 406 500" xml:space="preserve">
<g>
	<path fill-rule="evenodd" clip-rule="evenodd" fill="#E9CE96" d="M89.957,416.988c0.353-0.323,0.705-0.646,1.057-0.97
		c4.181-0.475,8.391-0.782,12.529-1.499c1.798-0.312,4.137-1.005,5.026-2.331c1.873-2.796,2.952-6.124,4.356-9.233
		c0,0,0.029-0.029,0.029-0.028c1.358-1.301,2.716-2.603,4.074-3.904l-0.007,0.007c3.895-1.017,7.771-2.781,11.689-2.879
		c6.365-0.159,10.584-4.107,15.445-7.048c0.292,0.011,0.584,0,0.875-0.034c1.203,0.527,2.405,1.055,3.608,1.587
		c0.409,3.119,0.817,6.234,1.226,9.349c-0.043,1.113-0.507,2.461-0.043,3.291c1.004,1.799,2.483,3.333,4.387,5.767
		c4.292,1.343,1.788-4.185,4.378-6.337c1.967,0.476,4.518,0.792,6.828,1.713c4.719,1.881,8.273-0.438,11.846-3.405
		c4.439-3.686,10.494-5.447,15.915-7.896c0.441-0.199,1.342,0.808,2.093,1.068c2.876,0.998,5.777,1.92,8.67,2.87
		c1.542,2.957,2.554,6.421,4.766,8.74c2.48,2.6,4.488,4.707,4.58,8.685c0.036,1.519,2.982,3.79,4.925,4.203
		c1.789,0.38,5.829-1.749,5.774-1.96c-1.295-4.941,3.873-6.234,5.155-9.585c4.04-0.05,8.212,0.251,10.685-3.995
		c0.782-0.004,1.564-0.008,2.347-0.012c1.952,0.602,3.903,1.204,5.855,1.806l0.005,0.009c0.908,1.479,1.807,3.113,2.974,0.175
		c0.323-0.009,0.645-0.032,0.965-0.07c0.28,0.055,0.563,0.092,0.85,0.111c0.69,0.634,1.382,1.268,2.073,1.901l0.024,0.027
		c1.978,2.014,3.956,4.028,5.934,6.042c0.326,0.641,0.652,1.281,0.979,1.922c1.665,3.885-0.017,9.87,6.671,10.602
		c7.531,0.822,12.688,5.148,16.616,11.281c0.598,0.719,1.195,1.438,1.793,2.156c0.088,1.271,0.177,2.54,0.265,3.811
		c0.608,1.359,1.217,2.718,1.826,4.077c0,1.667,0,3.333,0,5c-1.314,2.344-2.63,4.688-3.945,7.031
		c-0.051,0.301-0.088,0.603-0.111,0.906c-0.6,0.712-1.201,1.425-1.803,2.138c-0.369,0.336-0.737,0.672-1.106,1.008
		c-0.327,0.313-0.654,0.626-0.981,0.938c-1.324,1.045-2.646,2.089-3.971,3.133c-0.72,0.592-1.439,1.184-2.16,1.775
		c-0.617,0.068-1.235,0.137-1.854,0.205c-1.705,0.606-3.41,1.212-5.116,1.818c-4.299,0.05-8.598,0.101-12.896,0.15
		c-2.353,1.299-4.704,2.598-7.056,3.896c-0.666,0-1.334,0-2,0c-0.334,0-0.666,0-1,0c-2,0-4,0-6,0
		c-3.307-1.693-6.615-3.387-9.922-5.08c-0.049-0.284-0.117-0.563-0.205-0.839c-1.852-2.107-3.705-4.215-5.891-6.702
		c-1.746,1.93-2.914,3.22-4.081,4.51c-0.3,0.044-0.599,0.094-0.896,0.149c-1.385,0.593-2.77,1.186-4.153,1.778
		c-4.237,0.007-8.475,0.014-12.711,0.02c-1.348-0.64-2.695-1.28-4.044-1.92l-0.021-0.015c-0.708-0.606-1.416-1.213-2.125-1.82
		c-0.29-0.064-0.582-0.116-0.877-0.157c-1.705-3.07-3.431-2.958-5.173-0.031c-0.618,0.062-1.237,0.123-1.856,0.185
		c-4.094-0.019-8.197-0.195-12.276,0.038c-1.272,0.073-2.48,1.254-3.718,1.928l-0.01,0.01c-0.67,0.658-1.338,1.316-2.007,1.974
		l-0.007,0.007c-0.708,0.621-1.416,1.241-2.124,1.862c-0.304,0.031-0.607,0.07-0.909,0.116c-2.998,1.33-5.996,2.659-8.994,3.988
		c-2.667,0-5.333,0-8,0c-1.314-0.684-2.629-1.366-3.944-2.05c-2.006-1.328-4.012-2.656-6.019-3.984c0,0-0.004-0.004-0.004-0.004
		c-0.343-0.649-0.686-1.299-1.029-1.948c-3.296-3.489-9.163-2.554-12.943,2.064l0.013-0.011c-1.511,0.447-3.2,0.6-4.503,1.39
		c-8.259,5.006-15.902,2.084-20.793-1.866c-6.644-5.364-10.154-5.151-14.792,2.387l-0.002,0.008
		c-5.347,0.025-10.694,0.051-16.041,0.077l0.001,0.004c-1.989-1.005-3.978-2.01-5.966-3.015c-0.7-0.622-1.4-1.243-2.1-1.865
		c-0.795-1.892-1.406-3.891-2.423-5.655c-2.482-4.305-4.41-8.812-3.254-13.798c0.783-3.377,2.453-6.549,3.726-9.813l-0.004-0.003
		c3.524-0.453,6.336-1.636,6.076-5.952c4.201-1.095,8.429-2.096,12.589-3.324c1.9-0.562,4.052-1.175,5.398-2.479
		c1.71-1.657,2.72-4.038,4.031-6.107c0.641-0.365,1.281-0.73,1.922-1.097c0,0,0.041-0.025,0.042-0.025
		C89.304,417.619,89.63,417.304,89.957,416.988z"/>
	<path fill-rule="evenodd" clip-rule="evenodd" fill="#CAD9D9" d="M215,47c1.334,0,2.666,0,4,0c0.334,0,0.666,0,1,0
		c0.666,0,1.334,0,2,0c0.348,1.354,0.694,2.71,1.042,4.064c0.021,0.829,0.104,1.662,0.052,2.486
		c-1.412,21.843-2.82,43.686-4.271,65.525c-0.639,9.595-1.414,19.18-2.054,28.774c-1.313,19.686-2.578,39.376-3.862,59.064
		c-0.285,1.775-0.711,3.542-0.832,5.329c-1.111,16.397-2.116,32.803-3.257,49.199c-1.913,27.48-3.895,54.957-5.862,82.434
		c-1.126,15.722-2.282,31.44-3.425,47.16c-0.562,0.52-1.175,1.531-1.679,1.479c-3.593-0.372-7.163-0.961-10.741-1.481
		c-0.003-1.496-0.097-2.998,0.003-4.486c1.359-20.037,2.722-40.075,4.137-60.108c0.701-9.935,1.607-19.855,2.254-29.793
		c1.248-19.213,2.379-38.434,3.559-57.65c1.674-22.669,3.381-45.335,5.012-68.007c1.119-15.562,2.114-31.132,3.195-46.695
		c1.632-23.504,3.31-47.004,4.873-70.511c0.068-1.026-0.807-2.114-1.241-3.174C210.934,49.406,212.967,48.203,215,47z"/>
	<path fill-rule="evenodd" clip-rule="evenodd" fill="#F1FAF7" d="M220,47c-0.334,0-0.666,0-1,0C219.334,47,219.666,47,220,47z"/>
	<path fill-rule="evenodd" clip-rule="evenodd" fill="#F6ECCA" d="M245,475c0.334,0,0.666,0,1,0C245.666,475,245.334,475,245,475z"
		/>
	<path fill-rule="evenodd" clip-rule="evenodd" fill="#FBF7E1" d="M87.014,419.056c0.349-0.372,0.697-0.743,1.046-1.116
		c0.292,0.013,0.584,0.021,0.876,0.021C88.295,418.325,87.655,418.69,87.014,419.056z"/>
	<path fill-rule="evenodd" clip-rule="evenodd" fill="#FBF7E1" d="M89.957,416.988c-0.327,0.315-0.653,0.631-0.979,0.945
		C89.304,417.618,89.63,417.304,89.957,416.988z"/>
	<path fill-rule="evenodd" clip-rule="evenodd" fill="#0283BB" d="M183.98,91.025c0.651-1.399,1.303-2.798,1.955-4.197
		c0.035,3.059,0.071,6.117,0.107,9.176c-0.014,8.666-0.025,17.331-0.038,25.997c-0.006,0.663-0.012,1.326-0.017,1.989
		c-0.314,6.669-0.629,13.337-0.942,20.005c-0.005,1.003-0.009,2.006-0.013,3.009c-0.01,1.332-0.02,2.664-0.029,3.996
		c-0.012,1.328-0.023,2.655-0.035,3.983c-0.315,1.242-0.861,2.475-0.91,3.728c-0.395,10.29-0.785,20.581-1.01,30.876
		c-0.418,19.12-0.729,38.243-1.07,57.366c-0.048,2.691-0.02,5.384-0.025,8.075c-0.33,10.319-0.658,20.639-0.988,30.958
		c-0.281,1.337-0.562,2.673-0.843,4.01c-0.024,3.34-0.05,6.68-0.075,10.02c-0.638,16.66-1.275,33.32-1.912,49.98
		c-0.012,1.67-0.023,3.34-0.035,5.01c-0.032,5.664-0.064,11.327-0.096,16.99c-0.002,0.668-0.004,1.336-0.005,2.005
		c-0.308,6.357-0.614,12.716-0.921,19.074c0.021,1.314,0.043,2.628,0.064,3.942c-2.844,3.502-6.19,5.656-11.038,5.209
		c-3.858-0.356-7.79,0.117-11.657-0.186c-1.571-0.123-3.058-1.325-4.583-2.037c-0.409-3.114-0.817-6.229-1.226-9.349
		c-0.587-7.436-1.173-14.866-1.759-22.3c0.547-2.405,1.542-4.812,1.526-7.211c-0.019-2.9-1.319-5.794-1.333-8.693
		c-0.138-28.94-0.125-57.882-0.155-86.822c1.564-17.362,2.531-34.805,4.855-52.063c2.458-18.256,6.208-36.337,9.393-54.494
		c0.306-1.372,0.611-2.744,0.917-4.116c0.828-0.673,2.022-1.18,2.416-2.05c1.342-2.966,2.496-6.028,3.544-9.114
		c1.087-3.199,1.993-6.462,2.932-9.71c2.443-8.455,4.951-16.894,7.251-25.388c1.128-4.168,1.851-8.446,2.757-12.675
		c0.123-0.41,0.247-0.82,0.371-1.229C182.23,93.534,183.105,92.279,183.98,91.025z"/>
	<path fill-rule="evenodd" clip-rule="evenodd" fill="#C9D0B2" d="M149.865,400.004c1.525,0.712,3.012,1.914,4.583,2.037
		c3.867,0.303,7.799-0.171,11.657,0.186c4.847,0.447,8.194-1.707,11.038-5.208c3.322-1.994,6.645-3.988,9.969-5.983
		c3.577,0.52,7.147,1.108,10.74,1.48c0.504,0.053,1.117-0.959,1.68-1.479c1.627,1.839,3.252,3.679,4.877,5.519
		c-0.158,0.172-0.314,0.345-0.469,0.519c-2.893-0.95-5.794-1.872-8.67-2.87c-0.751-0.261-1.651-1.268-2.093-1.068
		c-5.421,2.449-11.476,4.211-15.915,7.896c-3.573,2.968-7.127,5.286-11.846,3.405c-2.31-0.921-4.861-1.237-6.828-1.713
		c-2.591,2.152-0.087,7.68-4.378,6.337c-1.903-2.434-3.382-3.968-4.387-5.767C149.358,402.465,149.822,401.117,149.865,400.004z"/>
	<path fill-rule="evenodd" clip-rule="evenodd" fill="#C9D0B2" d="M229.141,407.158c-1.283,3.35-6.451,4.643-5.156,9.584
		c0.055,0.211-3.985,2.34-5.774,1.96c-1.942-0.413-4.889-2.685-4.925-4.203c-0.092-3.978-2.1-6.085-4.58-8.685
		c-2.212-2.319-3.224-5.783-4.766-8.74c0.154-0.174,0.311-0.347,0.467-0.517c1.44,0.855,2.883,1.709,4.326,2.563
		c1.325,1.99,2.648,3.98,3.973,5.97c0.911,3.151,1.822,6.304,2.777,9.605c1.502,0.298,3.08,0.611,4.799,0.953
		c1.68-2.547,3.292-4.99,4.904-7.434l0.123,0.003c1.168-0.48,2.337-0.962,3.506-1.442
		C228.923,406.904,229.031,407.031,229.141,407.158z"/>
	<path fill-rule="evenodd" clip-rule="evenodd" fill="#E5D5A8" d="M84.982,470.985c-4.708,0.633-9.41,1.335-14.135,1.808
		c-0.572,0.057-1.267-1.125-1.906-1.731C74.289,471.036,79.635,471.011,84.982,470.985z"/>
	<path fill-rule="evenodd" clip-rule="evenodd" fill="#C9D0B2" d="M235.834,402.93c1.332,0.076,2.663,0.152,3.992,0.23
		c-2.475,4.248-6.646,3.947-10.687,3.997c-0.108-0.126-0.217-0.253-0.325-0.381C231.154,405.494,233.494,404.212,235.834,402.93z"/>
	<path fill-rule="evenodd" clip-rule="evenodd" fill="#F6ECCA" d="M254.917,407.109c1.979,2.013,3.958,4.026,5.935,6.041
		C258.873,411.138,256.895,409.123,254.917,407.109z"/>
	<path fill-rule="evenodd" clip-rule="evenodd" fill="#E5D5A8" d="M68.942,471.066c-1.301-0.051-2.601-0.102-3.901-0.152
		c-0.714-0.627-1.428-1.254-2.141-1.88c0.038-0.327,0.063-0.654,0.076-0.982C64.965,469.057,66.954,470.062,68.942,471.066z"/>
	<path fill-rule="evenodd" clip-rule="evenodd" fill="#F6ECCA" d="M145.056,472.95c-2.006-1.328-4.013-2.656-6.019-3.984
		C141.044,470.294,143.05,471.622,145.056,472.95z"/>
	<path fill-rule="evenodd" clip-rule="evenodd" fill="#C9D0B2" d="M242.171,403.15c1.565-0.02,3.13-0.039,4.695-0.06
		c0.388,0.621,0.774,1.243,1.16,1.865C246.074,404.354,244.123,403.752,242.171,403.15z"/>
	<path fill-rule="evenodd" clip-rule="evenodd" fill="#F6ECCA" d="M273.068,469.135c-1.705,0.606-3.41,1.213-5.116,1.818
		C269.658,470.347,271.363,469.741,273.068,469.135z"/>
	<path fill-rule="evenodd" clip-rule="evenodd" fill="#F6ECCA" d="M201.141,468.836c-1.349-0.64-2.697-1.279-4.045-1.92
		C198.445,467.556,199.793,468.196,201.141,468.836z"/>
	<path fill-rule="evenodd" clip-rule="evenodd" fill="#F6ECCA" d="M218.004,467.038c-1.383,0.595-2.767,1.188-4.152,1.78
		C215.235,468.224,216.62,467.631,218.004,467.038z"/>
	<path fill-rule="evenodd" clip-rule="evenodd" fill="#C9D0B2" d="M248.031,404.965c0.991,0.058,1.982,0.114,2.975,0.174
		C249.838,408.078,248.939,406.444,248.031,404.965z"/>
	<path fill-rule="evenodd" clip-rule="evenodd" fill="#F6ECCA" d="M197.076,466.901c-0.707-0.607-1.416-1.215-2.125-1.82
		C195.66,465.688,196.368,466.295,197.076,466.901z"/>
	<path fill-rule="evenodd" clip-rule="evenodd" fill="#F6ECCA" d="M285.116,436.956c0.599,0.718,1.196,1.437,1.794,2.155
		C286.312,438.394,285.714,437.675,285.116,436.956z"/>
	<path fill-rule="evenodd" clip-rule="evenodd" fill="#F6ECCA" d="M284.943,459.938c-0.602,0.712-1.203,1.424-1.804,2.137
		C283.742,461.362,284.344,460.649,284.943,459.938z"/>
	<path fill-rule="evenodd" clip-rule="evenodd" fill="#F6ECCA" d="M171.041,467.053c-0.67,0.657-1.339,1.315-2.008,1.974
		C169.703,468.369,170.371,467.711,171.041,467.053z"/>
	<path fill-rule="evenodd" clip-rule="evenodd" fill="#F6ECCA" d="M277.082,467.154c-0.719,0.593-1.439,1.185-2.159,1.775
		C275.643,468.338,276.362,467.746,277.082,467.154z"/>
	<path fill-rule="evenodd" clip-rule="evenodd" fill="#F6ECCA" d="M252.819,405.181c0.692,0.634,1.384,1.267,2.074,1.9
		C254.201,406.448,253.51,405.814,252.819,405.181z"/>
	<path fill-rule="evenodd" clip-rule="evenodd" fill="#F6ECCA" d="M136.929,467.097c0.358-0.028,0.717-0.056,1.075-0.083
		c0.343,0.649,0.686,1.299,1.029,1.948C138.332,468.34,137.63,467.719,136.929,467.097z"/>
	<path fill-rule="evenodd" clip-rule="evenodd" fill="#F6ECCA" d="M169.026,469.033c-0.707,0.622-1.415,1.243-2.123,1.863
		C167.611,470.274,168.319,469.654,169.026,469.033z"/>
	<path fill-rule="evenodd" clip-rule="evenodd" fill="#F6ECCA" d="M282.034,463.083c-0.327,0.313-0.655,0.626-0.981,0.938
		C281.38,463.709,281.707,463.396,282.034,463.083z"/>
	<path fill-rule="evenodd" clip-rule="evenodd" fill="#1BB0C9" d="M186.043,96.004c-0.036-3.059-0.072-6.117-0.107-9.176
		c1.655-3.952,3.311-7.904,4.967-11.857c2.162-2.465,4.594-4.746,6.424-7.437c2.766-4.07,5.111-8.426,7.637-12.66
		c1.313-1.421,2.625-2.842,3.938-4.264c0.435,1.059,1.31,2.146,1.241,3.173c-1.563,23.507-3.241,47.007-4.873,70.511
		c-1.081,15.563-2.076,31.134-3.195,46.695c-1.631,22.672-3.338,45.338-5.013,68.007c-0.679,0.77-1.877,1.489-1.956,2.315
		c-0.804,8.457-1.629,16.921-2.055,25.402c-0.828,16.453-1.371,32.921-2.157,49.377c-0.048,1.003-1.194,1.953-1.829,2.928
		c-0.688-1.423-1.504-2.799-2.037-4.276c-1.407-3.891-2.691-7.825-4.025-11.742c-0.984-0.995-1.969-1.989-2.954-2.984
		c0.024-3.34,0.05-6.68,0.073-10.02c0.85-0.885,1.701-1.77,2.554-2.653c-0.569-0.452-1.14-0.904-1.71-1.356
		c0.33-10.319,0.658-20.639,0.988-30.958c1.016-3.75,2.773-7.471,2.918-11.253c0.635-16.532,0.797-33.082,1.144-49.625
		c0.017-0.824,0.224-1.646,0.229-2.469c0.035-6.073,0.027-12.146,0.066-18.22c0.013-1.951-0.523-4.26,0.316-5.785
		c2.651-4.814,1.506-8.808-1.658-12.693c0.012-1.328,0.023-2.655,0.035-3.983c0.641-0.581,1.898-1.328,1.796-1.71
		c-0.23-0.858-1.136-1.535-1.767-2.286c0.004-1.003,0.008-2.006,0.012-3.009c0.645-0.613,1.861-1.244,1.844-1.837
		c-0.186-6.06-0.571-12.112-0.9-18.168c0.005-0.663,0.011-1.326,0.016-1.989c0.969-2.846,2.537-5.645,2.77-8.549
		c0.386-4.835,0.051-9.749-0.307-14.605C188.393,97.846,186.889,96.949,186.043,96.004z"/>
	<path fill-rule="evenodd" clip-rule="evenodd" fill="#3AACBC" d="M208.73,399.119c-1.441-0.853-2.884-1.706-4.324-2.562
		c-1.623-1.842-3.248-3.682-4.875-5.521c1.142-15.72,2.298-31.438,3.424-47.16c1.968-27.477,3.949-54.953,5.862-82.434
		c1.141-16.396,2.146-32.802,3.257-49.199c0.121-1.787,0.547-3.554,0.832-5.329l0.24,0.216c-0.706,12.891-1.33,25.787-2.143,38.671
		c-0.682,10.81,1.133,21.634-1.735,32.497c-1.931,7.315-1.599,15.234-2.218,22.889c-0.779,9.637-0.277,19.237-1.579,28.993
		c-2.263,16.949-1.806,34.261-2.491,51.421c-0.06,1.49,0.137,3.059-0.26,4.457c-1.668,5.882-0.217,8.081,6.195,9.004
		C208.855,396.414,208.793,397.767,208.73,399.119z"/>
	<path fill-rule="evenodd" clip-rule="evenodd" fill="#39ABB9" d="M189.064,319.019c0.635-0.975,1.781-1.925,1.829-2.928
		c0.786-16.456,1.329-32.924,2.157-49.377c0.426-8.481,1.251-16.945,2.055-25.402c0.079-0.826,1.277-1.546,1.956-2.315
		c-1.179,19.217-2.31,38.438-3.558,57.65c-0.646,9.938-1.553,19.858-2.254,29.793c-1.415,20.033-2.777,40.071-4.137,60.108
		c-0.1,1.488-0.006,2.99-0.003,4.486c-3.323,1.996-6.646,3.99-9.968,5.984c-0.021-1.315-0.043-2.629-0.064-3.944
		c0.641-0.021,1.281-0.042,1.923-0.062c2.13-1.767,6.447-1.161,6.001-5.748c-0.213-2.197-0.258-4.471,0.064-6.644
		c0.375-2.517,1.68-4.936,1.816-7.438c0.82-15.057,1.422-30.124,2.098-45.188C189.009,325.003,189.037,322.011,189.064,319.019z"/>
	<path fill-rule="evenodd" clip-rule="evenodd" fill="#3AACBC" d="M223.042,51.064c5.501,2.151,7.522,7.154,9.794,11.952
		c-2.332-1.849-4.663-3.697-6.944-5.506c-0.988,5.03-2.302,9.727-2.768,14.506c-0.954,9.79,0.429,19.59-1.786,29.512
		c-2.084,9.331,0.1,19.179-1.992,28.943c-2.215,10.333-0.059,21.153-1.936,31.938c-2.313,13.282-1.7,27.069-2.496,40.63
		c-0.082,1.394-1.155,2.729-1.768,4.092l-0.24-0.216c1.284-19.688,2.549-39.379,3.862-59.064c0.64-9.595,1.415-19.18,2.054-28.774
		c1.451-21.84,2.859-43.683,4.271-65.525C223.146,52.727,223.063,51.894,223.042,51.064z"/>
	<path fill-rule="evenodd" clip-rule="evenodd" fill="#1AB0CA" d="M213.146,207.131c0.612-1.363,1.686-2.698,1.768-4.092
		c0.796-13.561,0.184-27.348,2.496-40.63c1.877-10.784-0.279-21.604,1.936-31.938c2.092-9.765-0.092-19.612,1.992-28.943
		c2.215-9.922,0.832-19.722,1.786-29.512c0.466-4.779,1.779-9.476,2.768-14.506c2.281,1.809,4.612,3.657,6.944,5.506
		c0.255,0.113,0.371,0.309,0.347,0.588c0.034,1.483-0.334,3.122,0.171,4.421c2.746,7.057,5.707,14.028,8.595,21.028
		c-1.003,9.985-2.006,19.971-3.009,29.956c-0.299,1.003-0.596,2.007-0.895,3.01c-0.016,1.329-0.032,2.657-0.049,3.986
		c-0.993,1.071-2.782,2.088-2.859,3.222c-0.856,12.589-1.447,25.196-2.111,37.798l0.016,0.001c-0.68,1.243-1.877,2.457-1.947,3.733
		c-0.241,4.405-0.09,8.832-0.088,13.251l0.008-0.005c-0.67,1.451-1.695,2.846-1.937,4.365c-0.488,3.072-0.653,6.208-0.767,9.325
		c-0.188,5.095-0.227,10.195-0.329,15.294c-0.007,0.671-0.013,1.342-0.02,2.013c-0.302,1.009-0.604,2.018-0.906,3.026
		c-0.018,1.657-0.035,3.314-0.053,4.971c-1.333,3.828-3.353,7.572-3.835,11.505c-0.664,5.418-0.173,10.979-0.168,16.478
		c0.002,2.346,0.023,4.691,0.037,7.038c-0.342,5.615-0.52,11.246-1.059,16.843c-1.283,13.321-2.689,26.632-4.139,39.937
		c-1.555,14.28-3.232,28.547-4.824,42.823c-1.391,12.478-2.735,24.96-4.101,37.439c-6.411-0.923-7.862-3.122-6.194-9.004
		c0.396-1.398,0.2-2.967,0.26-4.457c0.686-17.16,0.229-34.472,2.491-51.421c1.302-9.756,0.8-19.356,1.579-28.993
		c0.619-7.654,0.287-15.573,2.218-22.889c2.868-10.863,1.054-21.688,1.735-32.497C211.816,232.918,212.44,220.021,213.146,207.131z"
		/>
	<path fill-rule="evenodd" clip-rule="evenodd" fill="#3AACBC" d="M241.947,89.055c-2.887-7.001-5.848-13.973-8.594-21.029
		c-0.505-1.299-0.137-2.938-0.171-4.421c1.12,1.854,2.239,3.711,3.356,5.567c1.439,3.299,2.879,6.598,4.318,9.896
		c-0.001,0,0.059,0.021,0.06,0.021c0.656,1.998,1.313,3.997,1.97,5.996c0,0-0.079,0.11-0.08,0.11
		c0.054,1.281,0.107,2.561,0.161,3.84C242.628,89.041,242.288,89.048,241.947,89.055z"/>
	<path fill-rule="evenodd" clip-rule="evenodd" fill="#3AACBC" d="M204.963,54.874c-2.525,4.234-4.871,8.59-7.637,12.66
		c-1.83,2.69-4.262,4.972-6.424,7.437c2.071-3.921,4.143-7.843,6.214-11.765C199.732,60.429,202.348,57.651,204.963,54.874z"/>
	<path fill-rule="evenodd" clip-rule="evenodd" fill="#207D9D" d="M146.918,265.629c0.03,28.94,0.017,57.882,0.155,86.822
		c0.014,2.899,1.313,5.793,1.333,8.693c0.016,2.399-0.979,4.806-1.526,7.211c-0.632-6.069-1.746-12.137-1.81-18.215
		c-0.222-21.269-0.236-42.544,0.009-63.813C145.159,279.422,146.276,272.528,146.918,265.629z"/>
	<path fill-rule="evenodd" clip-rule="evenodd" fill="#1D84AB" d="M180.982,96.019c-0.906,4.229-1.629,8.507-2.757,12.675
		c-2.3,8.494-4.808,16.933-7.251,25.388c-0.939,3.248-1.845,6.511-2.932,9.71c-1.048,3.086-2.202,6.148-3.544,9.114
		c-0.394,0.87-1.588,1.377-2.416,2.05c5.91-18.932,11.815-37.865,17.75-56.789C180.071,97.405,180.592,96.732,180.982,96.019z"/>
	<path fill-rule="evenodd" clip-rule="evenodd" fill="#1D84AB" d="M183.98,91.025c-0.875,1.254-1.75,2.509-2.627,3.764
		C182.229,93.534,183.105,92.279,183.98,91.025z"/>
	<path fill-rule="evenodd" clip-rule="evenodd" fill="#18B0CB" d="M188.98,327.994c-0.676,15.064-1.277,30.132-2.098,45.188
		c-0.137,2.503-1.441,4.922-1.816,7.438c-0.322,2.173-0.277,4.446-0.064,6.644c0.446,4.587-3.871,3.981-6.001,5.747
		c-0.334-6.337-0.668-12.674-1.002-19.011c0.001-0.669,0.003-1.337,0.005-2.005c0.888-4.888,1.883-9.761,2.533-14.679
		c0.086-0.651-1.582-1.535-2.438-2.312c0.012-1.67,0.023-3.34,0.033-5.01c3.052,0.205,2.879-1.897,2.873-3.95
		c-0.02-7.58-0.109-15.162,0.086-22.736c0.037-1.453,1.246-2.876,1.914-4.312c0.662,0.771,1.428,1.477,1.967,2.326
		C186.362,323.514,187.651,325.767,188.98,327.994z"/>
	<path fill-rule="evenodd" clip-rule="evenodd" fill="#1BACCF" d="M184.969,154.983c3.164,3.886,4.31,7.879,1.658,12.693
		c-0.84,1.525-0.304,3.834-0.316,5.785c-0.039,6.073-0.031,12.146-0.066,18.22c-0.006,0.823-0.213,1.645-0.229,2.469
		c-0.347,16.543-0.509,33.093-1.144,49.625c-0.145,3.782-1.902,7.503-2.918,11.253c0.006-2.691-0.022-5.384,0.025-8.075
		c0.342-19.123,0.652-38.246,1.07-57.366c0.225-10.295,0.615-20.586,1.01-30.876C184.107,157.458,184.653,156.226,184.969,154.983z"
		/>
	<path fill-rule="evenodd" clip-rule="evenodd" fill="#1BACCF" d="M183.006,318.998c-0.668,1.436-1.877,2.858-1.914,4.312
		c-0.195,7.574-0.105,15.156-0.086,22.736c0.006,2.053,0.179,4.155-2.873,3.95c0.639-16.66,1.276-33.32,1.914-49.98
		c0.986,0.995,1.971,1.989,2.955,2.984C183.004,308.332,183.004,313.665,183.006,318.998z"/>
	<path fill-rule="evenodd" clip-rule="evenodd" fill="#1BACCF" d="M186.043,96.004c0.846,0.945,2.35,1.842,2.424,2.843
		c0.357,4.856,0.692,9.771,0.307,14.605c-0.232,2.904-1.801,5.703-2.77,8.549C186.018,113.335,186.029,104.67,186.043,96.004z"/>
	<path fill-rule="evenodd" clip-rule="evenodd" fill="#1BACCF" d="M185.988,123.99c0.329,6.056,0.715,12.108,0.9,18.168
		c0.018,0.593-1.199,1.224-1.844,1.837C185.359,137.327,185.674,130.659,185.988,123.99z"/>
	<path fill-rule="evenodd" clip-rule="evenodd" fill="#1BACCF" d="M177.999,374.001c0.334,6.337,0.668,12.674,1.002,19.011
		c-0.642,0.021-1.282,0.041-1.923,0.063C177.385,386.717,177.691,380.358,177.999,374.001z"/>
	<path fill-rule="evenodd" clip-rule="evenodd" fill="#1BACCF" d="M178.1,355.006c0.855,0.776,2.523,1.66,2.438,2.312
		c-0.65,4.918-1.646,9.791-2.533,14.679C178.035,366.333,178.067,360.67,178.1,355.006z"/>
	<path fill-rule="evenodd" clip-rule="evenodd" fill="#1BACCF" d="M180.965,285.986c0.57,0.452,1.141,0.904,1.71,1.356
		c-0.853,0.884-1.704,1.769-2.554,2.653C180.403,288.659,180.684,287.323,180.965,285.986z"/>
	<path fill-rule="evenodd" clip-rule="evenodd" fill="#1BACCF" d="M185.033,147.004c0.631,0.751,1.536,1.428,1.767,2.286
		c0.103,0.382-1.155,1.129-1.796,1.71C185.014,149.668,185.023,148.336,185.033,147.004z"/>
	<path fill-rule="evenodd" clip-rule="evenodd" fill="#207D9D" d="M239.202,388.179c-0.731,3.61-1.462,7.221-2.192,10.831
		c-0.393,1.308-0.784,2.614-1.176,3.92c-2.34,1.282-4.68,2.564-7.02,3.847c-1.169,0.48-2.338,0.962-3.506,1.441
		c0.448-1.05,0.65-2.771,1.385-3.04c5.023-1.838,7.88-4.972,8.607-10.52C235.602,392.367,237.844,390.331,239.202,388.179z"/>
	<path fill-rule="evenodd" clip-rule="evenodd" fill="#0483BB" d="M239.202,388.179c-1.358,2.152-3.601,4.188-3.901,6.479
		c-0.728,5.548-3.584,8.682-8.607,10.52c-0.734,0.269-0.937,1.99-1.385,3.04c0,0.001-0.123-0.002-0.125-0.004
		c-2.354,1.611-4.709,3.224-6.988,4.784c-2.75-2.433,1.497-9.002-5.49-7.907c-1.324-1.989-2.647-3.979-3.973-5.97
		c0.061-1.354,0.123-2.707,0.184-4.059c1.364-12.479,2.709-24.962,4.1-37.439c1.592-14.276,3.27-28.543,4.824-42.823
		c1.449-13.305,2.855-26.615,4.139-39.937c0.539-5.597,0.717-11.228,1.059-16.843c0.438-3.527,0.914-7.05,1.309-10.582
		c0.906-8.144,1.773-16.292,2.657-24.438c0.018-1.656,0.035-3.313,0.052-4.971c0.303-1.009,0.605-2.018,0.907-3.026
		c0.007-0.671,0.013-1.342,0.02-2.013c1.011-9.661,2.021-19.323,3.032-28.984l-0.008,0.005c0.679-5.661,1.357-11.323,2.035-16.984
		l-0.016-0.001c0.499-2.696,1.164-5.375,1.469-8.094c1.228-10.969,2.345-21.949,3.502-32.926c0.017-1.329,0.033-2.657,0.049-3.986
		c0.297-1.004,0.596-2.007,0.895-3.01c1.003-9.985,2.006-19.971,3.009-29.956c0.34-0.006,0.68-0.013,1.02-0.02
		c2.698,10.939,5.397,21.878,8.096,32.816c-0.024,2.474-0.455,5.027,0.012,7.404c0.968,4.935,2.413,9.775,3.661,14.655
		c0.746,5.033,1.492,10.065,2.238,15.099c0.729,20.265,2.17,40.534,2.049,60.794c-0.326,54.995-5.701,109.489-18.321,163.136
		c-3.902,0.703-0.767,3.551-1.583,5.194L239.202,388.179z"/>
	<path fill-rule="evenodd" clip-rule="evenodd" fill="#207D9D" d="M212.705,405.091c6.987-1.095,2.74,5.475,5.49,7.907
		c2.279-1.561,4.634-3.173,6.988-4.784c-1.61,2.445-3.223,4.889-4.902,7.436c-1.719-0.342-3.297-0.655-4.799-0.953
		C214.527,411.395,213.616,408.242,212.705,405.091z"/>
	<path fill-rule="evenodd" clip-rule="evenodd" fill="#207D9D" d="M239.119,388.133c0.816-1.644-2.319-4.491,1.583-5.194
		C240.175,384.67,239.646,386.401,239.119,388.133z"/>
	<path fill-rule="evenodd" clip-rule="evenodd" fill="#207D9D" d="M254.736,143.91c-1.248-4.88-2.693-9.721-3.661-14.655
		c-0.467-2.377-0.036-4.931-0.012-7.404C252.288,129.203,253.512,136.557,254.736,143.91z"/>
	<path fill-rule="evenodd" clip-rule="evenodd" fill="#E2F8F7" d="M242.887,85.084c-0.656-1.999-1.313-3.998-1.97-5.996
		C241.573,81.087,242.229,83.086,242.887,85.084z"/>
	<path fill-rule="evenodd" clip-rule="evenodd" fill="#10B6CC" d="M183.006,318.998c-0.002-5.333-0.002-10.666-0.004-15.998
		c1.334,3.917,2.618,7.852,4.025,11.742c0.533,1.478,1.349,2.854,2.037,4.276c-0.027,2.992-0.056,5.984-0.084,8.976
		c-1.329-2.228-2.618-4.48-4.008-6.67C184.434,320.475,183.668,319.769,183.006,318.998z"/>
	<path fill-rule="evenodd" clip-rule="evenodd" fill="#1DAED2" d="M237.996,126.006c-1.157,10.977-2.274,21.957-3.502,32.926
		c-0.305,2.719-0.97,5.397-1.469,8.094c0.664-12.602,1.255-25.209,2.111-37.798C235.214,128.094,237.003,127.077,237.996,126.006z"
		/>
	<path fill-rule="evenodd" clip-rule="evenodd" fill="#1DAED2" d="M227.003,223c-0.884,8.146-1.751,16.295-2.657,24.438
		c-0.395,3.532-0.871,7.055-1.309,10.582c-0.014-2.347-0.035-4.692-0.037-7.038c-0.005-5.499-0.496-11.06,0.168-16.478
		C223.65,230.572,225.67,226.828,227.003,223z"/>
	<path fill-rule="evenodd" clip-rule="evenodd" fill="#1DAED2" d="M231.014,184.006c-1.011,9.661-2.021,19.323-3.032,28.984
		c0.103-5.099,0.142-10.199,0.329-15.294c0.113-3.117,0.278-6.253,0.767-9.325C229.318,186.852,230.344,185.457,231.014,184.006z"/>
	<path fill-rule="evenodd" clip-rule="evenodd" fill="#1DAED2" d="M233.041,167.026c-0.678,5.661-1.356,11.323-2.035,16.984
		c-0.002-4.419-0.153-8.846,0.088-13.251C231.164,169.483,232.361,168.27,233.041,167.026z"/>
	<path fill-rule="evenodd" clip-rule="evenodd" fill="#1DAED2" d="M227.962,215.003c-0.302,1.009-0.604,2.018-0.907,3.026
		C227.357,217.021,227.66,216.012,227.962,215.003z"/>
	<path fill-rule="evenodd" clip-rule="evenodd" fill="#1DAED2" d="M238.939,119.01c-0.299,1.003-0.598,2.006-0.895,3.01
		C238.344,121.017,238.641,120.013,238.939,119.01z"/>
</g>
</svg>
