<?xml version="1.0" encoding="utf-8"?>
<!-- Generator: Adobe Illustrator 16.0.0, SVG Export Plug-In . SVG Version: 6.00 Build 0)  -->
<!DOCTYPE svg PUBLIC "-//W3C//DTD SVG 1.1//EN" "http://www.w3.org/Graphics/SVG/1.1/DTD/svg11.dtd">
<svg version="1.1" id="Calque_1" xmlns="http://www.w3.org/2000/svg" xmlns:xlink="http://www.w3.org/1999/xlink" x="0px" y="0px"
	 width="384.038px" height="414.041px" viewBox="0 0 384.038 414.041" enable-background="new 0 0 384.038 414.041"
	 xml:space="preserve">
<g>
	<path fill-rule="evenodd" clip-rule="evenodd" fill="#6B3535" d="M35.999,204.415c0.606-2.397,1.212-4.796,1.817-7.193
		c0.193-0.033,0.387-0.047,0.582-0.04c0,0.548,0.001,1.096,0.002,1.644c-0.272,8.271-0.543,16.544-0.814,24.815
		c-0.01,0.538-0.02,1.076-0.029,1.614c-0.519-0.012-1.039-0.025-1.558-0.038C35.999,218.283,35.999,211.349,35.999,204.415z"/>
	<path fill-rule="evenodd" clip-rule="evenodd" fill="#593636" d="M35.999,225.216c0.52,0.013,1.039,0.026,1.559,0.038
		c0.015,2.122,0.028,4.246,0.042,6.369c-0.533-1.069-1.067-2.138-1.601-3.207C35.999,227.35,35.999,226.283,35.999,225.216z"/>
	<path fill-rule="evenodd" clip-rule="evenodd" fill="#AA0404" d="M252.09,30.918c2.378,0.191,4.756,0.383,7.133,0.575
		c5.586,0.845,11.173,1.689,16.76,2.534c7.949,2.121,15.897,4.242,23.846,6.364c1.102,0.296,2.202,0.593,3.304,0.889
		c4.097,2.081,8.192,4.16,12.289,6.241c7.821,4.195,14.374,9.885,19.859,16.835c0.528,0.633,1.058,1.267,1.586,1.9
		c0.193,0.144,0.368,0.309,0.524,0.495c-1.122,0.82-2.144,2.066-3.393,2.368c-2.431,0.586-4.988,0.642-7.492,0.918
		c-3.261,0.754-6.521,1.509-9.779,2.263c-1.011,0.625-2.022,1.25-3.034,1.873l0.038-0.036c-0.557,0.257-1.114,0.514-1.672,0.771
		l0.023-0.035c-5.854,0.419-9.684,4.352-13.732,7.906c-0.234,0.552-0.47,1.104-0.705,1.656l0.005-0.006
		c-4.618,1.194-7.185,4.503-8.929,8.661l-0.029,0.035c-0.489,0.603-0.979,1.206-1.468,1.807c-1.651,2.319-3.303,4.638-4.955,6.957
		c-1.591,2.022-3.414,3.906-4.71,6.1c-1.563,2.643-3.348,3.848-6.63,3.839c-4.703-0.013-9.409,0.837-14.113,1.319
		c-15.92,2.896-25.6,13.089-31.789,27.293c-1.203,2.762-1.326,6.734-3.354,8.193c-2.067,1.487-5.893,0.367-8.906,0.736
		c-6.542,0.803-13.24,1.248-18.599,5.861c-0.491,0.155-0.982,0.309-1.474,0.464c-0.736,0.566-1.472,1.133-2.207,1.701
		c-2.256,1.529-4.512,3.058-6.768,4.588c-0.715,0.712-1.43,1.425-2.145,2.138c-0.331,0.344-0.662,0.687-0.994,1.031
		c-1.027,0.791-2.326,1.392-3.033,2.405c-3.112,4.463-6.326,8.893-8.966,13.635c-1.935,3.474-3.904,5.798-8.3,5.029
		c-1.603-0.28-3.361,0.33-5.049,0.533c-5.332,1.117-10.664,2.233-15.996,3.35c-14.737,5.524-22.724,16.862-27.024,31.376
		c0,0,0-0.025,0-0.025c-0.88,0.169-1.759,0.339-2.638,0.508c-0.806,0.024-1.611,0.05-2.416,0.075
		c-6.701,1.839-13.403,3.677-20.104,5.517c-0.13,0.098-0.275,0.135-0.436,0.113c-5.142,2.623-10.284,5.247-15.425,7.871
		c-4.066,3.627-8.342,7.052-12.103,10.972c-1.731,1.804-2.452,4.577-3.63,6.911c0,0,0.029,0.008,0.028,0.009
		c-0.376,0.216-0.75,0.431-1.125,0.646c0.061,0.287,0.122,0.574,0.182,0.861l-0.02-0.054c-0.326,0.23-0.65,0.461-0.976,0.691
		l0.009-0.008c-0.244,0.292-0.488,0.583-0.732,0.875c-1.391,2.29-2.782,4.58-4.694,7.729c-2.466-6.647-4.609-12.423-6.751-18.197
		c-0.163-0.305-0.326-0.608-0.488-0.912c-0.101-0.771-0.201-1.541-0.302-2.312c-0.178-0.537-0.356-1.075-0.534-1.612
		c-0.074-0.523-0.148-1.045-0.223-1.567c-0.201-0.801-0.401-1.6-0.602-2.399c-0.058-0.53-0.116-1.061-0.174-1.59
		c-0.491-3.979-0.982-7.96-1.473-11.938c0.271-8.272,0.542-16.545,0.814-24.816c0.252-1.603,0.505-3.206,0.758-4.809
		c0.063-0.245,0.084-0.494,0.066-0.746c0.27-1.343,0.539-2.686,0.808-4.029l-0.011-0.002c0.252-1.073,0.503-2.146,0.754-3.219
		l0.024-0.038c0.244-1.053,0.488-2.104,0.732-3.157c0.079-0.238,0.119-0.483,0.12-0.734c0.194-0.542,0.388-1.083,0.581-1.626
		c0.075-0.515,0.15-1.029,0.225-1.544c0.248-0.841,0.496-1.68,0.745-2.519c0.056-0.21,0.079-0.423,0.068-0.64
		c0.231-0.588,0.463-1.177,0.694-1.766c0.077-0.21,0.109-0.427,0.097-0.651c0.225-0.576,0.451-1.152,0.676-1.728
		c0.082-0.224,0.123-0.456,0.121-0.695c0.218-0.565,0.436-1.13,0.654-1.695c0.595-1.802,1.189-3.604,1.785-5.405
		c0.201-0.334,0.402-0.669,0.604-1.004c1.347-4.019,2.695-8.038,4.042-12.057l-0.019,0.029c0.267-0.547,0.535-1.095,0.802-1.642
		l-0.026,0.021c2.398-4.818,4.798-9.637,7.197-14.456c0,0-0.035,0.05-0.035,0.049c0.294-0.536,0.589-1.073,0.883-1.608
		c0,0-0.021,0.034-0.021,0.034c0.278-0.541,0.556-1.082,0.835-1.622l-0.015,0.012c2.389-4.019,4.777-8.037,7.166-12.055
		c0,0-0.023,0.043-0.024,0.043c0.296-0.532,0.592-1.063,0.889-1.595l-0.019,0.028c0.239-0.318,0.478-0.635,0.716-0.953l-0.044,0.036
		c3.781-5.406,7.563-10.811,11.344-16.217c1.319-1.819,2.638-3.64,3.956-5.459c0.5-0.782,1-1.564,1.502-2.347
		c0,0-0.008,0.036-0.007,0.036c0.241-0.31,0.481-0.618,0.722-0.927c0,0-0.049-0.09-0.047-0.09c0.407-0.113,0.813-0.226,1.219-0.338
		c0.172-0.632,0.344-1.265,0.517-1.897c0,0,0.016,0.071,0.017,0.071c0.242-0.31,0.482-0.618,0.724-0.927c0,0-0.042-0.001-0.042,0
		c0.819-1.051,1.637-2.103,2.456-3.154c0,0,0.01,0.031,0.011,0.031c0.25-0.301,0.499-0.602,0.749-0.902c0,0-0.029-0.016-0.028-0.016
		c4.057-4.152,8.203-8.222,12.125-12.498c1.626-1.773,2.774-3.984,4.14-5.995c1.4-1.463,2.801-2.925,4.202-4.388
		c0.462-0.483,0.923-0.965,1.384-1.448c0.026-0.594,0.052-1.188,0.078-1.781c1.877-1.335,3.754-2.67,5.631-4.007
		c6.913-1.915,13.826-3.831,20.738-5.746c6.187-1.837,12.375-3.674,18.562-5.511c8.804-2.152,17.593-4.368,26.418-6.427
		c4.165-0.972,8.398-1.646,12.601-2.454c6.392-0.582,12.779-1.194,19.173-1.733c3.431-0.288,6.873-0.449,10.31-0.667
		c4.843-0.228,9.688-0.424,14.529-0.695C246.174,31.428,249.131,31.147,252.09,30.918z M132.42,59.292
		c0.017,0.492,0.033,0.984,0.05,1.477c51.399-2.529,98.613,8.497,139.064,43.168c9.625-26.79,29.636-37.88,56.523-39.281
		c-0.739-1.242-0.932-1.739-1.271-2.098c-0.821-0.871-1.656-1.743-2.581-2.5c-8.106-6.631-17.068-11.764-26.795-15.679
		c-27.69-11.146-56.491-10.112-85.157-6.766c-25.865,3.019-50.74,10.813-75.173,19.795C135.51,57.986,133.973,58.661,132.42,59.292z
		 M216.639,142.172c-0.479-1.386-0.582-1.903-0.821-2.346c-12.772-23.575-28.509-44.762-50.397-60.688
		c-10.504-7.643-21.886-13.773-35.219-15.038c-4.535-0.431-6.506,1.048-6.999,5.548c-0.318,2.901-0.549,5.877-0.271,8.768
		c3.075,31.998,14.232,61.356,29.601,89.271c2.294,4.167,5.502,7.83,8.288,11.727c0.403-0.03,0.807-0.061,1.21-0.092
		C170.07,152.172,186.322,137.06,216.639,142.172z M107.131,215.143c-14.284-48.363-13.821-94.676,9.097-139.607
		c-1.619,0.514-2.53,1.193-3.271,2.023c-18.917,21.146-35.512,43.875-48.384,69.287c-12.949,25.563-20.576,52.238-19.025,81.16
		c0.419,7.831,1.315,15.51,4.719,23.784C61.56,227.475,78.945,213.411,107.131,215.143z"/>
	<path fill-rule="evenodd" clip-rule="evenodd" fill="#D3A280" d="M183.719,161.981c2.255-1.53,4.512-3.059,6.767-4.588
		c0.773-0.048,1.547-0.097,2.32-0.145c0.851,0.476,1.701,0.952,2.552,1.427l0.005,0.027c-0.042,0.297-0.085,0.593-0.128,0.889
		c0.296-0.038,0.592-0.075,0.888-0.113l0.051,0.046c0.468,1.665,0.604,3.527,1.453,4.968
		c21.301,36.143,42.716,72.218,64.028,108.354c13.597,23.054,27.063,46.186,40.588,69.282c0.449,0.787,0.898,1.575,1.348,2.363
		c0.992,0.999,1.984,1.999,2.977,2.999l0.041,0.063c-0.165,0.401-0.33,0.802-0.495,1.203c0.425,0.121,0.85,0.242,1.274,0.363
		c0,0,0.001-0.008,0.002-0.007c0.519,0.799,1.037,1.599,1.557,2.398l0.028,0.038c-0.09,0.559-0.179,1.118-0.268,1.677
		c1.03,3.793-2.31,4.73-3.717,6.333c-1.666-0.85-2.973-1.518-4.279-2.184l-0.063-0.082c-0.139-1.119-0.276-2.237-0.414-3.357
		c-0.307-0.51-0.613-1.021-0.919-1.53c-2.276-3.913-4.537-7.834-6.832-11.736c-23.993-40.792-47.898-81.635-72.049-122.332
		c-6.568-11.069-13.863-21.708-20.888-32.502c-0.402-0.618-1.378-0.862-2.086-1.28c0,0-0.028-0.039-0.028-0.04
		c-0.521-0.789-1.042-1.576-1.563-2.365l-0.017-0.023c-0.162-0.863-0.323-1.726-0.484-2.589c-1.608-1.826-3.217-3.652-4.825-5.479
		c-1.936-3.33-3.871-6.66-5.806-9.988C184.397,163.375,184.058,162.678,183.719,161.981z"/>
	<path fill-rule="evenodd" clip-rule="evenodd" fill="#211D1B" d="M302.242,342.128c-13.525-23.097-26.991-46.229-40.588-69.282
		c-21.313-36.136-42.728-72.211-64.028-108.354c-0.85-1.441-0.985-3.303-1.453-4.968c0.848,0.775,1.933,1.406,2.509,2.347
		c13.264,21.686,26.77,43.23,39.623,65.157c21.616,36.871,42.813,73.989,64.177,111.009c0.729,1.263,1.345,2.591,2.015,3.89
		C303.744,341.994,302.993,342.061,302.242,342.128z"/>
	<path fill-rule="evenodd" clip-rule="evenodd" fill="#1F1B19" d="M197.459,184.555c0.708,0.418,1.684,0.662,2.086,1.28
		c7.024,10.794,14.319,21.433,20.888,32.502c24.15,40.697,48.056,81.54,72.049,122.332c2.295,3.902,4.556,7.823,6.832,11.736
		c-0.761,0.096-1.521,0.192-2.281,0.288c-8.633-14.238-17.348-28.429-25.882-42.727c-23.281-39.004-46.501-78.045-69.69-117.103
		C199.896,190.231,198.782,187.331,197.459,184.555z"/>
	<path fill-rule="evenodd" clip-rule="evenodd" fill="#562F2F" d="M194.167,155.229c5.358-4.613,12.057-5.058,18.599-5.861
		c3.014-0.369,6.839,0.751,8.906-0.736c2.028-1.458,2.151-5.431,3.354-8.193c6.189-14.204,15.869-24.397,31.788-27.293
		c0.518,0.222,1.036,0.443,1.555,0.665c-16.877,3.774-27.572,14.219-32.909,30.467c-2.037,6.201-2.061,6.267-8.698,6.406
		c-7.687,0.16-15.103,1.421-22.049,4.872C194.438,155.601,194.257,155.492,194.167,155.229z"/>
	<path fill-rule="evenodd" clip-rule="evenodd" fill="#593636" d="M39.835,239.569c0.074,0.522,0.148,1.044,0.222,1.567
		c0.178,0.538,0.356,1.075,0.535,1.612c0.101,0.771,0.202,1.541,0.302,2.312c0.163,0.305,0.325,0.608,0.488,0.912
		c2.143,5.774,4.285,11.55,6.751,18.197c1.912-3.149,3.303-5.439,4.694-7.729c0.221-0.015,0.434-0.064,0.637-0.15l0.263,0.248
		c-1.416,3.399-2.831,6.8-4.67,11.216c-6.318-11.669-10.412-22.967-11.351-35.324c0.451,1.051,0.902,2.1,1.353,3.15
		c0.058,0.529,0.116,1.06,0.174,1.591C39.434,237.969,39.634,238.769,39.835,239.569z"/>
	<path fill-rule="evenodd" clip-rule="evenodd" fill="#562F2F" d="M112.212,221.477c4.3-14.514,12.287-25.852,27.024-31.377
		c-0.014,0.239-0.022,0.479-0.024,0.718c-11.791,5.681-19.636,14.92-24.468,26.944C114.198,219.12,113.07,220.245,112.212,221.477z"
		/>
	<path fill-rule="evenodd" clip-rule="evenodd" fill="#593636" d="M155.232,186.751c1.688-0.203,3.446-0.813,5.049-0.533
		c4.396,0.77,6.365-1.555,8.3-5.029c2.641-4.742,5.854-9.172,8.966-13.635c0.707-1.013,2.006-1.614,3.033-2.405
		c-3.844,5.988-7.689,11.976-11.532,17.965c-0.901,1.406-1.792,2.817-2.688,4.225C162.651,187.144,158.942,186.948,155.232,186.751z
		"/>
	<path fill-rule="evenodd" clip-rule="evenodd" fill="#593636" d="M258.369,113.811c-0.519-0.222-1.037-0.443-1.555-0.665
		c4.705-0.481,9.411-1.332,14.114-1.319c3.282,0.008,5.067-1.196,6.63-3.839c1.296-2.194,3.119-4.078,4.71-6.1
		c-1.704,3.262-3.271,6.61-5.207,9.729c-0.523,0.844-2.143,1.319-3.3,1.404C268.639,113.395,263.501,113.566,258.369,113.811z"/>
	<path fill-rule="evenodd" clip-rule="evenodd" fill="#4C2727" d="M55.461,253.418c1.178-2.334,1.899-5.107,3.63-6.911
		c3.761-3.92,8.037-7.345,12.103-10.971c0.009,0.303,0.019,0.605,0.028,0.907C65.968,242.102,60.715,247.76,55.461,253.418z"/>
	<path fill-rule="evenodd" clip-rule="evenodd" fill="#1F1B19" d="M300.71,357.375c1.307,0.666,2.613,1.334,4.279,2.184
		c1.407-1.603,4.747-2.54,3.717-6.333c0.54,0.001,1.081,0.001,1.621,0.002c0.47,1.159,0.94,2.317,1.828,4.503
		c-1.022,0.748-2.376,1.827-3.82,2.769c-1.466,0.954-3.021,1.773-4.538,2.651C302.768,361.226,301.739,359.3,300.71,357.375z"/>
	<path fill-rule="evenodd" clip-rule="evenodd" fill="#4D3C3C" d="M155.232,186.751c3.709,0.196,7.418,0.392,11.128,0.588
		c-7.01,0.599-14.03,1.111-21.025,1.848c-2.075,0.219-4.083,1.07-6.123,1.631c0.002-0.24,0.01-0.479,0.024-0.718
		C144.568,188.984,149.9,187.868,155.232,186.751z"/>
	<path fill-rule="evenodd" clip-rule="evenodd" fill="#504242" d="M87.055,227.551c6.702-1.84,13.404-3.678,20.104-5.517
		c-0.271,0.276-0.498,0.726-0.817,0.805C99.919,224.436,93.485,225.989,87.055,227.551z"/>
	<path fill-rule="evenodd" clip-rule="evenodd" fill="#562F2F" d="M71.222,236.444c-0.009-0.302-0.019-0.604-0.028-0.907
		c5.142-2.625,10.283-5.249,15.425-7.872C81.487,230.59,76.354,233.517,71.222,236.444z"/>
	<path fill-rule="evenodd" clip-rule="evenodd" fill="#4F2A2A" d="M315.421,47.521c-4.097-2.081-8.192-4.161-12.289-6.241
		C307.228,43.36,311.324,45.44,315.421,47.521z"/>
	<path fill-rule="evenodd" clip-rule="evenodd" fill="#322C28" d="M190.542,174.059c1.608,1.827,3.217,3.652,4.825,5.479
		c-0.4,0.438-0.8,0.875-1.2,1.313C192.959,178.587,191.75,176.323,190.542,174.059z"/>
	<path fill-rule="evenodd" clip-rule="evenodd" fill="#602C2C" d="M39.06,235.58c-0.451-1.051-0.902-2.1-1.353-3.15
		c-0.036-0.269-0.071-0.537-0.107-0.806c-0.014-2.123-0.027-4.247-0.042-6.369c0.009-0.538,0.019-1.076,0.029-1.614
		C38.078,227.62,38.568,231.6,39.06,235.58z"/>
	<path fill-rule="evenodd" clip-rule="evenodd" fill="#4C2727" d="M326.506,70.036c-0.045,0.251-0.076,0.504-0.095,0.76
		c-0.448,0.037-0.897,0.074-1.346,0.111c-0.604,0.168-1.209,0.335-1.813,0.503c-0.637,0.14-1.274,0.279-1.912,0.419
		c-0.434,0.143-0.866,0.286-1.298,0.429c-0.439,0.091-0.878,0.182-1.317,0.273c-0.627-0.036-1.254-0.071-1.88-0.107l-0.119-0.125
		C319.985,71.545,323.245,70.79,326.506,70.036z"/>
	<path fill-rule="evenodd" clip-rule="evenodd" fill="#211D1B" d="M306.566,347.491c-0.992-1-1.984-2-2.977-2.999
		c0.734-0.05,1.469-0.099,2.203-0.147C306.051,345.393,306.309,346.442,306.566,347.491z"/>
	<path fill-rule="evenodd" clip-rule="evenodd" fill="#593636" d="M183.719,161.981c0.339,0.696,0.679,1.393,1.018,2.089
		c-1.055,0.016-2.108,0.033-3.163,0.049C182.289,163.407,183.004,162.694,183.719,161.981z"/>
	<path fill-rule="evenodd" clip-rule="evenodd" fill="#1F1B19" d="M300.232,353.936c0.138,1.12,0.275,2.238,0.414,3.357
		c-0.902-1.048-1.805-2.095-2.707-3.143C298.704,354.08,299.468,354.008,300.232,353.936z"/>
	<path fill-rule="evenodd" clip-rule="evenodd" fill="#38322D" d="M305.793,344.344c-0.734,0.049-1.469,0.098-2.203,0.147
		c-0.449-0.788-0.898-1.576-1.348-2.363c0.751-0.067,1.502-0.135,2.254-0.201C304.928,342.733,305.36,343.539,305.793,344.344z"/>
	<path fill-rule="evenodd" clip-rule="evenodd" fill="#211D1B" d="M194.167,155.229c0.09,0.263,0.271,0.372,0.546,0.326
		c0.215,1.04,0.43,2.081,0.645,3.121c-0.851-0.476-1.701-0.952-2.552-1.427c-0.037-0.519-0.075-1.038-0.112-1.556
		C193.185,155.538,193.676,155.384,194.167,155.229z"/>
	<path fill-rule="evenodd" clip-rule="evenodd" fill="#282421" d="M300.232,353.936c-0.765,0.072-1.528,0.144-2.293,0.215
		c-0.303-0.485-0.604-0.972-0.907-1.457c0.761-0.096,1.521-0.192,2.281-0.288C299.619,352.916,299.926,353.426,300.232,353.936z"/>
	<path fill-rule="evenodd" clip-rule="evenodd" fill="#211D1B" d="M308.945,351.511c-0.52-0.8-1.038-1.6-1.557-2.398
		C307.907,349.912,308.426,350.71,308.945,351.511z"/>
	<path fill-rule="evenodd" clip-rule="evenodd" fill="#4C2727" d="M313.692,74.172c1.012-0.624,2.023-1.248,3.034-1.873
		c-0.001,0,0.118,0.125,0.117,0.125c-0.018,0.23-0.026,0.46-0.025,0.691C315.776,73.468,314.734,73.82,313.692,74.172z"/>
	<path fill-rule="evenodd" clip-rule="evenodd" fill="#1F1B19" d="M194.167,180.85c0.4-0.438,0.8-0.875,1.2-1.313
		c0.161,0.863,0.322,1.726,0.484,2.589C195.29,181.701,194.729,181.275,194.167,180.85z"/>
	<path fill-rule="evenodd" clip-rule="evenodd" fill="#562F2F" d="M109.575,221.959c0.879-0.169,1.758-0.339,2.638-0.508
		C111.333,221.622,110.454,221.791,109.575,221.959z"/>
	<path fill-rule="evenodd" clip-rule="evenodd" fill="#1F1B19" d="M195.868,182.15c0.521,0.789,1.041,1.576,1.563,2.365
		C196.909,183.728,196.389,182.939,195.868,182.15z"/>
	<path fill-rule="evenodd" clip-rule="evenodd" fill="#211D1B" d="M310.327,353.228c-0.54-0.001-1.081-0.001-1.621-0.002
		c0.089-0.559,0.178-1.118,0.268-1.677C309.425,352.11,309.876,352.668,310.327,353.228z"/>
	<path fill-rule="evenodd" clip-rule="evenodd" fill="#504242" d="M336.866,66.256c-0.528-0.633-1.058-1.267-1.586-1.9
		C335.809,64.99,336.338,65.623,336.866,66.256z"/>
	<path fill-rule="evenodd" clip-rule="evenodd" fill="#562F2F" d="M287.224,94.931c0.489-0.602,0.979-1.204,1.468-1.807
		C288.202,93.726,287.713,94.329,287.224,94.931z"/>
	<path fill-rule="evenodd" clip-rule="evenodd" fill="#562F2F" d="M298.35,82.778c0.048,0.342,0.095,0.684,0.143,1.026
		c-0.282,0.209-0.565,0.42-0.848,0.63C297.88,83.882,298.115,83.33,298.35,82.778z"/>
	<path fill-rule="evenodd" clip-rule="evenodd" fill="#4C2727" d="M312.059,74.908c0.558-0.257,1.115-0.514,1.672-0.771
		C313.174,74.394,312.616,74.65,312.059,74.908z"/>
	<path fill-rule="evenodd" clip-rule="evenodd" fill="#593636" d="M316.818,73.115c-0.001-0.23,0.008-0.461,0.025-0.691
		c0.627,0.036,1.254,0.071,1.881,0.107C318.09,72.726,317.453,72.92,316.818,73.115z"/>
	<path fill-rule="evenodd" clip-rule="evenodd" fill="#211D1B" d="M307.387,349.12c-0.425-0.121-0.85-0.242-1.274-0.363
		c0.165-0.401,0.33-0.802,0.495-1.203C306.867,348.075,307.127,348.597,307.387,349.12z"/>
	<path fill-rule="evenodd" clip-rule="evenodd" fill="#4C2727" d="M54.364,254.074c0.375-0.216,0.749-0.431,1.125-0.646
		c0.001-0.001,0.118,0.358,0.118,0.358l-0.277,0.256C55.008,254.052,54.686,254.063,54.364,254.074z"/>
	<path fill-rule="evenodd" clip-rule="evenodd" fill="#4C2727" d="M53.551,255.573c0.325-0.23,0.65-0.461,0.976-0.691
		c-0.07,0.243-0.141,0.486-0.211,0.729C54.061,255.607,53.806,255.594,53.551,255.573z"/>
	<path fill-rule="evenodd" clip-rule="evenodd" fill="#593636" d="M53.551,255.573c0.255,0.021,0.51,0.034,0.765,0.038
		c-0.196,0.309-0.392,0.618-0.588,0.927c0,0-0.263-0.248-0.262-0.247c0.066-0.237,0.098-0.479,0.094-0.726L53.551,255.573z"/>
	<path fill-rule="evenodd" clip-rule="evenodd" fill="#593636" d="M320.042,72.259c0.432-0.143,0.864-0.286,1.298-0.429
		C320.907,71.973,320.475,72.116,320.042,72.259z"/>
	<path fill-rule="evenodd" clip-rule="evenodd" fill="#211D1B" d="M196.122,159.479c-0.296,0.038-0.592,0.076-0.888,0.113
		c0.043-0.296,0.086-0.592,0.128-0.889C195.615,158.961,195.868,159.22,196.122,159.479z"/>
	<path fill-rule="evenodd" clip-rule="evenodd" fill="#593636" d="M54.364,254.074c0.322-0.011,0.644-0.021,0.966-0.032
		c-0.262,0.298-0.523,0.596-0.784,0.894C54.486,254.648,54.425,254.361,54.364,254.074z"/>
	<path fill-rule="evenodd" clip-rule="evenodd" fill="#D5A382" d="M120.88,54.827c-1.877,1.336-3.754,2.671-5.631,4.007
		c-0.805-1.355-1.609-2.709-2.414-4.065c-0.297-1.127-0.359-2.396-0.934-3.357c-2.082-3.484-3.055-7.045-1.51-10.993
		c0.373-0.054,0.745-0.108,1.115-0.159c0.578-0.212,1.159-0.427,1.739-0.642c0,0-0.042-0.102-0.04-0.104
		c3.6,3.765,7.199,7.531,10.797,11.297C122.962,52.15,121.921,53.489,120.88,54.827z"/>
	<path fill-rule="evenodd" clip-rule="evenodd" fill="#4C2727" d="M109.585,66.451c-1.365,2.011-2.514,4.222-4.14,5.995
		c-3.923,4.275-8.069,8.345-12.125,12.498C98.741,78.779,104.163,72.614,109.585,66.451z"/>
	<path fill-rule="evenodd" clip-rule="evenodd" fill="#562F2F" d="M51.944,150.76c-1.347,4.019-2.695,8.038-4.042,12.057
		c-0.201,0.335-0.403,0.67-0.604,1.004c-0.595,1.802-1.189,3.604-1.784,5.405c-0.218,0.565-0.437,1.13-0.655,1.695
		c0.001,0.239-0.039,0.471-0.121,0.695c-0.225,0.576-0.451,1.152-0.676,1.728c0.012,0.224-0.02,0.441-0.097,0.651
		c-0.225,0.015-0.446,0.053-0.664,0.113l-0.228-0.205C46.031,166.189,48.988,158.475,51.944,150.76z"/>
	<path fill-rule="evenodd" clip-rule="evenodd" fill="#3A1515" d="M120.88,54.827c1.041-1.338,2.083-2.677,3.124-4.016
		c0.532-0.001,1.064-0.001,1.596-0.002c3.563-0.513,7.13-0.996,10.687-1.55c1.76-0.275,3.5-0.682,5.25-1.029
		c0.027,0.284,0.054,0.567,0.082,0.852C134.706,50.996,127.793,52.912,120.88,54.827z"/>
	<path fill-rule="evenodd" clip-rule="evenodd" fill="#592828" d="M81.572,100.863c-3.781,5.406-7.563,10.811-11.344,16.217
		C74.01,111.674,77.791,106.269,81.572,100.863z"/>
	<path fill-rule="evenodd" clip-rule="evenodd" fill="#5D5149" d="M125.6,50.809c-0.532,0.001-1.064,0.001-1.596,0.002
		c-3.599-3.766-7.197-7.532-10.797-11.297c2.142,1.003,4.734,1.549,6.325,3.115C121.922,44.98,123.611,48.046,125.6,50.809z"/>
	<path fill-rule="evenodd" clip-rule="evenodd" fill="#481A1A" d="M141.618,49.081c-0.027-0.284-0.054-0.568-0.082-0.852
		c6.213-1.553,12.426-3.106,18.641-4.659C153.993,45.407,147.805,47.244,141.618,49.081z"/>
	<path fill-rule="evenodd" clip-rule="evenodd" fill="#84756A" d="M110.392,40.418c-1.545,3.948-0.572,7.509,1.51,10.993
		c0.575,0.961,0.637,2.23,0.934,3.357c-3.86-3.018-4.943-7.215-4.672-11.801C108.216,42.077,109.614,41.266,110.392,40.418z"/>
	<path fill-rule="evenodd" clip-rule="evenodd" fill="#562F2F" d="M59.898,134.712c-2.399,4.819-4.798,9.637-7.197,14.456
		C55.1,144.35,57.499,139.531,59.898,134.712z"/>
	<path fill-rule="evenodd" clip-rule="evenodd" fill="#562F2F" d="M68.711,119.521c-2.388,4.019-4.777,8.037-7.166,12.055
		C63.934,127.558,66.323,123.54,68.711,119.521z"/>
	<path fill-rule="evenodd" clip-rule="evenodd" fill="#562F2F" d="M42.459,178.921c-0.075,0.515-0.15,1.029-0.224,1.542
		c-0.193,0.542-0.388,1.085-0.583,1.627c-0.001,0.251-0.041,0.496-0.119,0.734c-0.244,1.052-0.488,2.104-0.733,3.157l-0.024,0.038
		c-0.223,0.003-0.441,0.038-0.654,0.106l-0.206-0.182c0.807-3.197,1.614-6.392,2.421-9.588l0.188,0.173
		C42.504,177.327,42.482,178.124,42.459,178.921z"/>
	<path fill-rule="evenodd" clip-rule="evenodd" fill="#562F2F" d="M39.226,193.27c0.018,0.252-0.004,0.501-0.066,0.746
		c-0.253,1.055-0.507,2.109-0.761,3.165c-0.195-0.007-0.389,0.007-0.582,0.04c0.433-2.465,0.866-4.93,1.298-7.395
		C39.151,190.974,39.188,192.122,39.226,193.27z"/>
	<path fill-rule="evenodd" clip-rule="evenodd" fill="#4C2727" d="M92.588,85.83c-0.818,1.052-1.637,2.104-2.456,3.154
		C90.951,87.932,91.77,86.881,92.588,85.83z"/>
	<path fill-rule="evenodd" clip-rule="evenodd" fill="#4C2727" d="M87.03,93.057c-0.501,0.783-1.002,1.565-1.502,2.347
		C86.029,94.62,86.53,93.838,87.03,93.057z"/>
	<path fill-rule="evenodd" clip-rule="evenodd" fill="#592828" d="M39.226,193.27c-0.037-1.148-0.074-2.296-0.111-3.444
		c-0.146-0.242-0.104-0.443,0.126-0.605c0.264,0,0.528,0.006,0.792,0.02C39.764,190.584,39.495,191.927,39.226,193.27z"/>
	<path fill-rule="evenodd" clip-rule="evenodd" fill="#562F2F" d="M40.033,189.241c-0.264-0.013-0.528-0.02-0.792-0.02
		c0.226-1.092,0.451-2.186,0.676-3.277c0,0,0.206,0.182,0.205,0.181c-0.034,1.038-0.066,2.076-0.1,3.113L40.033,189.241z"/>
	<path fill-rule="evenodd" clip-rule="evenodd" fill="#4C2727" d="M115.171,60.615c-0.461,0.482-0.922,0.964-1.384,1.448
		C114.248,61.581,114.709,61.098,115.171,60.615z"/>
	<path fill-rule="evenodd" clip-rule="evenodd" fill="#5D5149" d="M113.246,39.618c-0.581,0.215-1.161,0.43-1.739,0.642
		C112.089,40.043,112.667,39.831,113.246,39.618z"/>
	<path fill-rule="evenodd" clip-rule="evenodd" fill="#562F2F" d="M43.272,175.761c0.01,0.217-0.012,0.43-0.069,0.64
		c-0.231,0.015-0.457,0.057-0.677,0.127l-0.188-0.173c0.246-0.817,0.491-1.635,0.737-2.452c0,0,0.228,0.205,0.227,0.204
		C43.292,174.658,43.282,175.21,43.272,175.761z"/>
	<path fill-rule="evenodd" clip-rule="evenodd" fill="#4C2727" d="M89.433,89.84c-0.172,0.632-0.344,1.265-0.517,1.897l-0.138-0.157
		c-0.032-0.357-0.063-0.715-0.096-1.074C88.933,90.285,89.183,90.062,89.433,89.84z"/>
	<path fill-rule="evenodd" clip-rule="evenodd" fill="#562F2F" d="M60.746,133.153c-0.294,0.536-0.588,1.073-0.883,1.608
		C60.158,134.226,60.452,133.689,60.746,133.153z"/>
	<path fill-rule="evenodd" clip-rule="evenodd" fill="#562F2F" d="M61.561,131.565c-0.279,0.541-0.557,1.081-0.835,1.622
		C61.004,132.647,61.282,132.105,61.561,131.565z"/>
	<path fill-rule="evenodd" clip-rule="evenodd" fill="#562F2F" d="M69.576,117.969c-0.296,0.532-0.593,1.063-0.889,1.595
		C68.983,119.032,69.279,118.501,69.576,117.969z"/>
	<path fill-rule="evenodd" clip-rule="evenodd" fill="#562F2F" d="M52.728,149.147c-0.267,0.547-0.535,1.095-0.802,1.642
		C52.193,150.242,52.46,149.694,52.728,149.147z"/>
	<path fill-rule="evenodd" clip-rule="evenodd" fill="#4C2727" d="M87.745,92.166c-0.24,0.309-0.481,0.618-0.722,0.927
		C87.263,92.783,87.504,92.475,87.745,92.166z"/>
	<path fill-rule="evenodd" clip-rule="evenodd" fill="#562F2F" d="M70.273,117.044c-0.239,0.318-0.478,0.635-0.716,0.953
		C69.795,117.68,70.034,117.362,70.273,117.044z"/>
	<path fill-rule="evenodd" clip-rule="evenodd" fill="#4C2727" d="M93.348,84.959c-0.25,0.3-0.499,0.601-0.749,0.902
		C92.848,85.56,93.098,85.259,93.348,84.959z"/>
	<path fill-rule="evenodd" clip-rule="evenodd" fill="#4C2727" d="M90.174,88.984c-0.242,0.309-0.482,0.618-0.724,0.927
		C89.691,89.602,89.933,89.293,90.174,88.984z"/>
	<path fill-rule="evenodd" clip-rule="evenodd" fill="#4C2727" d="M88.917,91.737c-0.406,0.112-0.813,0.226-1.219,0.338
		c-0.001,0-0.065-0.29-0.065-0.29s0.229-0.188,0.229-0.187c0.306-0.006,0.612-0.013,0.917-0.019L88.917,91.737z"/>
	<path fill-rule="evenodd" clip-rule="evenodd" fill="#4F2A2A" d="M88.779,91.581c-0.306,0.006-0.611,0.013-0.917,0.019
		c0.273-0.364,0.548-0.728,0.822-1.092C88.715,90.865,88.747,91.223,88.779,91.581z"/>
	<path fill-rule="evenodd" clip-rule="evenodd" fill="#592828" d="M38.398,197.181c0.253-1.056,0.507-2.11,0.761-3.165
		c-0.253,1.603-0.506,3.206-0.758,4.809C38.4,198.277,38.399,197.729,38.398,197.181z"/>
	<path fill-rule="evenodd" clip-rule="evenodd" fill="#FDFBFB" d="M132.42,59.292c1.553-0.631,3.089-1.306,4.662-1.884
		c24.433-8.983,49.308-16.776,75.173-19.795c28.666-3.346,57.467-4.379,85.157,6.766c9.727,3.915,18.688,9.048,26.795,15.679
		c0.925,0.756,1.76,1.628,2.581,2.5c0.339,0.359,0.531,0.856,1.271,2.098c-26.888,1.401-46.898,12.491-56.523,39.281
		c-40.451-34.671-87.665-45.697-139.064-43.168C132.454,60.276,132.438,59.784,132.42,59.292z"/>
	<path fill-rule="evenodd" clip-rule="evenodd" fill="#FDFBFB" d="M216.639,142.172c-30.317-5.112-46.568,10-54.608,37.148
		c-0.403,0.031-0.807,0.062-1.21,0.092c-2.785-3.896-5.993-7.56-8.288-11.727c-15.369-27.914-26.526-57.273-29.601-89.271
		c-0.278-2.89-0.047-5.867,0.271-8.768c0.493-4.5,2.463-5.979,6.999-5.548c13.333,1.265,24.715,7.395,35.219,15.038
		c21.889,15.926,37.625,37.113,50.397,60.688C216.057,140.269,216.16,140.786,216.639,142.172z"/>
	<path fill-rule="evenodd" clip-rule="evenodd" fill="#FDFAFA" d="M107.131,215.143c-28.186-1.732-45.572,12.332-56.865,36.646
		c-3.403-8.274-4.299-15.953-4.719-23.784c-1.551-28.922,6.077-55.597,19.025-81.16c12.872-25.412,29.467-48.142,48.384-69.287
		c0.742-0.83,1.652-1.509,3.271-2.023C93.311,120.467,92.847,166.78,107.131,215.143z"/>
	<path fill-rule="evenodd" clip-rule="evenodd" fill="#592828" d="M40.022,189.238c0.033-1.038,0.066-2.076,0.1-3.113
		c0.213-0.067,0.432-0.103,0.655-0.105C40.526,187.092,40.274,188.166,40.022,189.238z"/>
	<path fill-rule="evenodd" clip-rule="evenodd" fill="#592828" d="M40.801,185.982c0.245-1.053,0.489-2.105,0.733-3.157
		C41.29,183.878,41.045,184.929,40.801,185.982z"/>
	<path fill-rule="evenodd" clip-rule="evenodd" fill="#372C28" d="M192.693,155.693c0.037,0.519,0.075,1.037,0.112,1.556
		c-0.773,0.047-1.547,0.096-2.32,0.145C191.222,156.826,191.957,156.259,192.693,155.693z"/>
	<path fill-rule="evenodd" clip-rule="evenodd" fill="#592828" d="M42.526,176.529c0.221-0.07,0.446-0.112,0.677-0.127
		c-0.248,0.839-0.496,1.678-0.744,2.519C42.482,178.124,42.504,177.327,42.526,176.529z"/>
	<path fill-rule="evenodd" clip-rule="evenodd" fill="#602C2C" d="M39.835,239.569c-0.201-0.8-0.401-1.6-0.602-2.398
		C39.434,237.969,39.634,238.768,39.835,239.569z"/>
	<path fill-rule="evenodd" clip-rule="evenodd" fill="#592828" d="M44.063,173.345c0.226-0.576,0.451-1.152,0.676-1.728
		C44.514,172.192,44.289,172.769,44.063,173.345z"/>
	<path fill-rule="evenodd" clip-rule="evenodd" fill="#592828" d="M43.272,175.761c0.01-0.551,0.02-1.103,0.03-1.654
		c0.219-0.059,0.44-0.097,0.665-0.112C43.735,174.584,43.503,175.173,43.272,175.761z"/>
	<path fill-rule="evenodd" clip-rule="evenodd" fill="#592828" d="M44.86,170.922c0.218-0.565,0.437-1.13,0.655-1.695
		C45.296,169.792,45.078,170.357,44.86,170.922z"/>
	<path fill-rule="evenodd" clip-rule="evenodd" fill="#592828" d="M41.653,182.091c0.194-0.542,0.389-1.085,0.583-1.627
		C42.041,181.007,41.847,181.549,41.653,182.091z"/>
	<path fill-rule="evenodd" clip-rule="evenodd" fill="#602C2C" d="M40.592,242.749c-0.178-0.537-0.356-1.074-0.535-1.612
		C40.235,241.673,40.414,242.211,40.592,242.749z"/>
	<path fill-rule="evenodd" clip-rule="evenodd" fill="#602C2C" d="M41.382,245.972c-0.163-0.304-0.326-0.607-0.488-0.912
		C41.056,245.364,41.219,245.667,41.382,245.972z"/>
	<path fill-rule="evenodd" clip-rule="evenodd" fill="#4C2727" d="M53.56,255.565c0.004,0.246-0.027,0.488-0.094,0.726
		c-0.205,0.085-0.418,0.135-0.639,0.149C53.071,256.148,53.315,255.857,53.56,255.565z"/>
	<path fill-rule="evenodd" clip-rule="evenodd" fill="#592828" d="M47.299,163.821c0.201-0.334,0.403-0.669,0.604-1.004
		C47.701,163.152,47.5,163.487,47.299,163.821z"/>
</g>
</svg>
